<svg width="190" height="104" viewBox="0 0 190 104" fill="none" xmlns="http://www.w3.org/2000/svg">
<path d="M36.9656 0C35.748 3.04523 33.917 5.80345 31.588 8.10074C29.2589 10.398 26.4824 12.1846 23.4333 13.3477C23.4544 7.01392 30.3156 0.170034 36.9656 0ZM23.2222 92.9238C18.62 87.1426 12.4556 83.7207 7.83222 85.8886C11.6322 93.5189 19.3589 96.2395 23.2222 92.9238ZM16.0233 81.7015C12.7933 75.3252 7.45222 70.7768 2.49111 71.9671C4.70778 80.0862 11.6111 84.1883 16.0233 81.7015ZM11.3367 69.5016C9.43667 62.7427 5.00333 57.2166 0 57.4291C0.612222 65.7608 6.52333 71.0531 11.3367 69.5016ZM9.22556 56.749C8.67667 49.7776 5.46778 43.4863 0.422222 42.6999C-0.654444 51.0103 4.22222 57.3866 9.14111 56.749H9.22556ZM9.54222 43.8264C10.3233 36.8762 8.40222 30.0323 3.63111 28.2682C0.928889 36.2598 4.43333 43.4013 9.45778 43.8264H9.54222ZM12.3289 31.0738C14.44 24.3787 13.9756 17.1947 9.64778 14.4954C5.36222 22.0195 7.41 29.756 12.2444 31.1588L12.3289 31.0738ZM17.5433 19.1289C21.0056 12.9014 22.1244 5.63239 18.43 2.12543C12.6667 8.75677 13.0678 16.8334 17.5433 19.1289ZM20.5622 20.8717C25.08 23.2522 30.8856 21.0418 34.8122 16.6209C31.16 13.1777 24.0878 14.708 20.5622 20.9142V20.8717ZM15.5589 32.264C20.4567 33.7093 25.6922 30.4574 28.5422 25.4839C24.2567 22.7846 17.7333 25.5052 15.5589 32.264ZM12.92 44.2515C17.9867 44.6978 22.4833 40.5107 24.2778 35.1759C19.5489 33.3693 13.7433 37.3226 12.92 44.2515ZM12.6667 56.4727C17.7122 55.9201 21.3433 50.9253 22.0611 45.3779C17.0367 44.634 12.1178 49.5225 12.6667 56.4727ZM14.7778 68.5664C19.6333 67.0148 22.23 61.3824 21.85 55.8138C16.72 55.9838 12.8567 61.8075 14.7778 68.5664ZM19.2111 80.1075C23.6656 77.6207 25.0589 71.6057 23.6233 66.0796C18.62 67.2486 15.9389 73.7737 19.1267 80.1075H19.2111ZM25.9878 90.7346C29.8511 87.3977 29.9144 81.0214 27.4022 75.8566C22.7156 78.0458 21.3856 85.0172 25.9033 90.7346H25.9878ZM36.5433 102.191C23.5683 92.4224 14.805 78.0192 12.0562 61.9443C9.30736 45.8693 12.7821 29.345 21.7656 15.7707C12.4284 29.3843 8.63753 46.0868 11.1752 62.4323C13.7128 78.7777 22.3853 93.519 35.4033 103.615C35.9944 104.082 36.7122 104.125 37.0078 103.615C37.3033 103.105 37.0078 102.552 36.5011 102.106L36.5433 102.191ZM153.034 0C154.252 3.04523 156.083 5.80345 158.412 8.10074C160.741 10.398 163.518 12.1846 166.567 13.3477C166.546 7.01392 159.684 0.170034 153.034 0ZM182.168 85.8886C177.544 83.7632 171.38 87.2277 166.82 92.9238C170.641 96.2395 178.368 93.5189 182.168 85.8886ZM187.509 71.9671C182.548 70.7768 177.207 75.3677 173.977 81.7015C178.389 84.1883 185.292 80.0862 187.509 71.9671ZM190 57.3866C184.912 57.1741 180.563 62.7002 178.663 69.4591C183.477 71.0531 189.388 65.7608 190 57.3866ZM189.662 42.6574C184.617 43.4438 181.408 49.7351 180.859 56.7065C185.778 57.3866 190.654 51.0103 189.662 42.6999V42.6574ZM186.453 28.2682C181.682 30.0323 179.761 36.8762 180.542 43.8264C185.567 43.4013 189.071 36.2598 186.453 28.2682ZM180.437 14.5805C176.214 17.2797 175.623 24.4637 177.756 31.1588C182.59 29.756 184.638 22.0195 180.437 14.5805ZM171.57 2.12543C167.876 5.65364 168.994 12.9226 172.457 19.1289C176.932 16.8334 177.333 8.75677 171.57 2.12543ZM155.188 16.6846C159.114 21.0843 164.92 23.2947 169.438 20.9355C165.912 14.708 158.84 13.1777 155.188 16.6846ZM161.521 25.4839C164.371 30.4574 169.607 33.7093 174.504 32.264C172.267 25.5052 165.743 22.7846 161.458 25.5052L161.521 25.4839ZM165.743 35.1759C167.538 40.5107 172.077 44.6978 177.101 44.2515C176.257 37.3226 170.451 33.3693 165.722 35.1759H165.743ZM168.002 45.3779C168.72 50.9253 172.351 56.0051 177.397 56.4727C177.882 49.5225 172.963 44.634 167.981 45.3779H168.002ZM168.256 55.7925C167.876 61.3824 170.367 67.0148 175.328 68.5451C177.143 61.8075 173.28 55.9838 168.234 55.7925H168.256ZM166.482 66.0796C165.047 71.5207 166.482 77.6207 170.894 80.1075C174.061 73.7737 171.38 67.2486 166.461 66.0796H166.482ZM162.703 75.9204C160.191 81.0214 160.254 87.3977 164.118 90.7984C168.614 85.0172 167.284 78.0458 162.682 75.9204H162.703ZM153.562 102.212C152.992 102.658 152.76 103.338 153.056 103.721C153.351 104.104 154.069 104.082 154.66 103.721C167.707 93.6223 176.399 78.8605 178.938 62.4899C181.476 46.1192 177.667 29.3926 168.298 15.7707C177.281 29.345 180.756 45.8693 178.007 61.9443C175.258 78.0192 166.495 92.4224 153.52 102.191L153.562 102.212Z" fill="black"/>
<path d="M83.9609 32.0225V34H75.207V32.3125L79.3467 27.874C79.7627 27.4111 80.0908 27.0039 80.3311 26.6523C80.5713 26.2949 80.7441 25.9756 80.8496 25.6943C80.9609 25.4072 81.0166 25.1348 81.0166 24.877C81.0166 24.4902 80.9521 24.1592 80.8232 23.8838C80.6943 23.6025 80.5039 23.3857 80.252 23.2334C80.0059 23.0811 79.7012 23.0049 79.3379 23.0049C78.9512 23.0049 78.6172 23.0986 78.3359 23.2861C78.0605 23.4736 77.8496 23.7344 77.7031 24.0684C77.5625 24.4023 77.4922 24.7803 77.4922 25.2021H74.9521C74.9521 24.4404 75.1338 23.7432 75.4971 23.1104C75.8604 22.4717 76.373 21.9648 77.0352 21.5898C77.6973 21.209 78.4824 21.0186 79.3906 21.0186C80.2871 21.0186 81.043 21.165 81.6582 21.458C82.2793 21.7451 82.748 22.1611 83.0645 22.7061C83.3867 23.2451 83.5479 23.8896 83.5479 24.6396C83.5479 25.0615 83.4805 25.4746 83.3457 25.8789C83.2109 26.2773 83.0176 26.6758 82.7656 27.0742C82.5195 27.4668 82.2207 27.8652 81.8691 28.2695C81.5176 28.6738 81.1279 29.0928 80.7002 29.5264L78.4766 32.0225H83.9609ZM94.1562 26.4766V28.6914C94.1562 29.6523 94.0537 30.4814 93.8486 31.1787C93.6436 31.8701 93.3477 32.4385 92.9609 32.8838C92.5801 33.3232 92.126 33.6484 91.5986 33.8594C91.0713 34.0703 90.4854 34.1758 89.8408 34.1758C89.3252 34.1758 88.8447 34.1113 88.3994 33.9824C87.9541 33.8477 87.5527 33.6396 87.1953 33.3584C86.8438 33.0771 86.5391 32.7227 86.2812 32.2949C86.0293 31.8613 85.8359 31.3457 85.7012 30.748C85.5664 30.1504 85.499 29.4648 85.499 28.6914V26.4766C85.499 25.5156 85.6016 24.6924 85.8066 24.0068C86.0176 23.3154 86.3135 22.75 86.6943 22.3105C87.0811 21.8711 87.5381 21.5488 88.0654 21.3438C88.5928 21.1328 89.1787 21.0273 89.8232 21.0273C90.3389 21.0273 90.8164 21.0947 91.2559 21.2295C91.7012 21.3584 92.1025 21.5605 92.46 21.8359C92.8174 22.1113 93.1221 22.4658 93.374 22.8994C93.626 23.3271 93.8193 23.8398 93.9541 24.4375C94.0889 25.0293 94.1562 25.709 94.1562 26.4766ZM91.6162 29.0254V26.1338C91.6162 25.6709 91.5898 25.2666 91.5371 24.9209C91.4902 24.5752 91.417 24.2822 91.3174 24.042C91.2178 23.7959 91.0947 23.5967 90.9482 23.4443C90.8018 23.292 90.6348 23.1807 90.4473 23.1104C90.2598 23.04 90.0518 23.0049 89.8232 23.0049C89.5361 23.0049 89.2812 23.0605 89.0586 23.1719C88.8418 23.2832 88.6572 23.4619 88.5049 23.708C88.3525 23.9482 88.2354 24.2705 88.1533 24.6748C88.0771 25.0732 88.0391 25.5596 88.0391 26.1338V29.0254C88.0391 29.4883 88.0625 29.8955 88.1094 30.2471C88.1621 30.5986 88.2383 30.9004 88.3379 31.1523C88.4434 31.3984 88.5664 31.6006 88.707 31.7588C88.8535 31.9111 89.0205 32.0225 89.208 32.0928C89.4014 32.1631 89.6123 32.1982 89.8408 32.1982C90.1221 32.1982 90.3711 32.1426 90.5879 32.0312C90.8105 31.9141 90.998 31.7324 91.1504 31.4863C91.3086 31.2344 91.4258 30.9062 91.502 30.502C91.5781 30.0977 91.6162 29.6055 91.6162 29.0254ZM104.633 32.0225V34H95.8789V32.3125L100.019 27.874C100.435 27.4111 100.763 27.0039 101.003 26.6523C101.243 26.2949 101.416 25.9756 101.521 25.6943C101.633 25.4072 101.688 25.1348 101.688 24.877C101.688 24.4902 101.624 24.1592 101.495 23.8838C101.366 23.6025 101.176 23.3857 100.924 23.2334C100.678 23.0811 100.373 23.0049 100.01 23.0049C99.623 23.0049 99.2891 23.0986 99.0078 23.2861C98.7324 23.4736 98.5215 23.7344 98.375 24.0684C98.2344 24.4023 98.1641 24.7803 98.1641 25.2021H95.624C95.624 24.4404 95.8057 23.7432 96.1689 23.1104C96.5322 22.4717 97.0449 21.9648 97.707 21.5898C98.3691 21.209 99.1543 21.0186 100.062 21.0186C100.959 21.0186 101.715 21.165 102.33 21.458C102.951 21.7451 103.42 22.1611 103.736 22.7061C104.059 23.2451 104.22 23.8896 104.22 24.6396C104.22 25.0615 104.152 25.4746 104.018 25.8789C103.883 26.2773 103.689 26.6758 103.438 27.0742C103.191 27.4668 102.893 27.8652 102.541 28.2695C102.189 28.6738 101.8 29.0928 101.372 29.5264L99.1484 32.0225H104.633ZM114.969 32.0225V34H106.215V32.3125L110.354 27.874C110.771 27.4111 111.099 27.0039 111.339 26.6523C111.579 26.2949 111.752 25.9756 111.857 25.6943C111.969 25.4072 112.024 25.1348 112.024 24.877C112.024 24.4902 111.96 24.1592 111.831 23.8838C111.702 23.6025 111.512 23.3857 111.26 23.2334C111.014 23.0811 110.709 23.0049 110.346 23.0049C109.959 23.0049 109.625 23.0986 109.344 23.2861C109.068 23.4736 108.857 23.7344 108.711 24.0684C108.57 24.4023 108.5 24.7803 108.5 25.2021H105.96C105.96 24.4404 106.142 23.7432 106.505 23.1104C106.868 22.4717 107.381 21.9648 108.043 21.5898C108.705 21.209 109.49 21.0186 110.398 21.0186C111.295 21.0186 112.051 21.165 112.666 21.458C113.287 21.7451 113.756 22.1611 114.072 22.7061C114.395 23.2451 114.556 23.8896 114.556 24.6396C114.556 25.0615 114.488 25.4746 114.354 25.8789C114.219 26.2773 114.025 26.6758 113.773 27.0742C113.527 27.4668 113.229 27.8652 112.877 28.2695C112.525 28.6738 112.136 29.0928 111.708 29.5264L109.484 32.0225H114.969Z" fill="black"/>
<path d="M47.0205 49.2031V62H45.3242V49.2031H47.0205ZM51.4854 54.5205V62H49.8594V52.4902H51.3975L51.4854 54.5205ZM51.0986 56.8848L50.4219 56.8584C50.4277 56.208 50.5244 55.6074 50.7119 55.0566C50.8994 54.5 51.1631 54.0166 51.5029 53.6064C51.8428 53.1963 52.2471 52.8799 52.7158 52.6572C53.1904 52.4287 53.7148 52.3145 54.2891 52.3145C54.7578 52.3145 55.1797 52.3789 55.5547 52.5078C55.9297 52.6309 56.249 52.8301 56.5127 53.1055C56.7822 53.3809 56.9873 53.7383 57.1279 54.1777C57.2686 54.6113 57.3389 55.1416 57.3389 55.7686V62H55.7041V55.751C55.7041 55.2529 55.6309 54.8545 55.4844 54.5557C55.3379 54.251 55.124 54.0312 54.8428 53.8965C54.5615 53.7559 54.2158 53.6855 53.8057 53.6855C53.4014 53.6855 53.0322 53.7705 52.6982 53.9404C52.3701 54.1104 52.0859 54.3447 51.8457 54.6436C51.6113 54.9424 51.4268 55.2852 51.292 55.6719C51.1631 56.0527 51.0986 56.457 51.0986 56.8848ZM61.4346 54.5205V62H59.8086V52.4902H61.3467L61.4346 54.5205ZM61.0479 56.8848L60.3711 56.8584C60.377 56.208 60.4736 55.6074 60.6611 55.0566C60.8486 54.5 61.1123 54.0166 61.4521 53.6064C61.792 53.1963 62.1963 52.8799 62.665 52.6572C63.1396 52.4287 63.6641 52.3145 64.2383 52.3145C64.707 52.3145 65.1289 52.3789 65.5039 52.5078C65.8789 52.6309 66.1982 52.8301 66.4619 53.1055C66.7314 53.3809 66.9365 53.7383 67.0771 54.1777C67.2178 54.6113 67.2881 55.1416 67.2881 55.7686V62H65.6533V55.751C65.6533 55.2529 65.5801 54.8545 65.4336 54.5557C65.2871 54.251 65.0732 54.0312 64.792 53.8965C64.5107 53.7559 64.165 53.6855 63.7549 53.6855C63.3506 53.6855 62.9814 53.7705 62.6475 53.9404C62.3193 54.1104 62.0352 54.3447 61.7949 54.6436C61.5605 54.9424 61.376 55.2852 61.2412 55.6719C61.1123 56.0527 61.0479 56.457 61.0479 56.8848ZM69.3271 57.3506V57.1484C69.3271 56.4629 69.4268 55.8271 69.626 55.2412C69.8252 54.6494 70.1123 54.1367 70.4873 53.7031C70.8623 53.2637 71.3164 52.9238 71.8496 52.6836C72.3828 52.4375 72.9805 52.3145 73.6426 52.3145C74.3105 52.3145 74.9111 52.4375 75.4443 52.6836C75.9834 52.9238 76.4404 53.2637 76.8154 53.7031C77.1963 54.1367 77.4863 54.6494 77.6855 55.2412C77.8848 55.8271 77.9844 56.4629 77.9844 57.1484V57.3506C77.9844 58.0361 77.8848 58.6719 77.6855 59.2578C77.4863 59.8438 77.1963 60.3564 76.8154 60.7959C76.4404 61.2295 75.9863 61.5693 75.4531 61.8154C74.9258 62.0557 74.3281 62.1758 73.6602 62.1758C72.9922 62.1758 72.3916 62.0557 71.8584 61.8154C71.3252 61.5693 70.8682 61.2295 70.4873 60.7959C70.1123 60.3564 69.8252 59.8438 69.626 59.2578C69.4268 58.6719 69.3271 58.0361 69.3271 57.3506ZM70.9531 57.1484V57.3506C70.9531 57.8252 71.0088 58.2734 71.1201 58.6953C71.2314 59.1113 71.3984 59.4805 71.6211 59.8027C71.8496 60.125 72.1338 60.3799 72.4736 60.5674C72.8135 60.749 73.209 60.8398 73.6602 60.8398C74.1055 60.8398 74.4951 60.749 74.8291 60.5674C75.1689 60.3799 75.4502 60.125 75.6729 59.8027C75.8955 59.4805 76.0625 59.1113 76.1738 58.6953C76.291 58.2734 76.3496 57.8252 76.3496 57.3506V57.1484C76.3496 56.6797 76.291 56.2373 76.1738 55.8213C76.0625 55.3994 75.8926 55.0273 75.6641 54.7051C75.4414 54.377 75.1602 54.1191 74.8203 53.9316C74.4863 53.7441 74.0938 53.6504 73.6426 53.6504C73.1973 53.6504 72.8047 53.7441 72.4648 53.9316C72.1309 54.1191 71.8496 54.377 71.6211 54.7051C71.3984 55.0273 71.2314 55.3994 71.1201 55.8213C71.0088 56.2373 70.9531 56.6797 70.9531 57.1484ZM82.7744 60.5322L85.376 52.4902H87.0371L83.6182 62H82.5283L82.7744 60.5322ZM80.6035 52.4902L83.2842 60.5762L83.4688 62H82.3789L78.9336 52.4902H80.6035ZM94.0684 60.374V55.4785C94.0684 55.1035 93.9922 54.7783 93.8398 54.5029C93.6934 54.2217 93.4707 54.0049 93.1719 53.8525C92.873 53.7002 92.5039 53.624 92.0645 53.624C91.6543 53.624 91.2939 53.6943 90.9834 53.835C90.6787 53.9756 90.4385 54.1602 90.2627 54.3887C90.0928 54.6172 90.0078 54.8633 90.0078 55.127H88.3818C88.3818 54.7871 88.4697 54.4502 88.6455 54.1162C88.8213 53.7822 89.0732 53.4805 89.4014 53.2109C89.7354 52.9355 90.1338 52.7188 90.5967 52.5605C91.0654 52.3965 91.5869 52.3145 92.1611 52.3145C92.8525 52.3145 93.4619 52.4316 93.9893 52.666C94.5225 52.9004 94.9385 53.2549 95.2373 53.7295C95.542 54.1982 95.6943 54.7871 95.6943 55.4961V59.9258C95.6943 60.2422 95.7207 60.5791 95.7734 60.9365C95.832 61.2939 95.917 61.6016 96.0283 61.8594V62H94.332C94.25 61.8125 94.1855 61.5635 94.1387 61.2529C94.0918 60.9365 94.0684 60.6436 94.0684 60.374ZM94.3496 56.2344L94.3672 57.377H92.7236C92.2607 57.377 91.8477 57.415 91.4844 57.4912C91.1211 57.5615 90.8164 57.6699 90.5703 57.8164C90.3242 57.9629 90.1367 58.1475 90.0078 58.3701C89.8789 58.5869 89.8145 58.8418 89.8145 59.1348C89.8145 59.4336 89.8818 59.7061 90.0166 59.9521C90.1514 60.1982 90.3535 60.3945 90.623 60.541C90.8984 60.6816 91.2354 60.752 91.6338 60.752C92.1318 60.752 92.5713 60.6465 92.9521 60.4355C93.333 60.2246 93.6348 59.9668 93.8574 59.6621C94.0859 59.3574 94.209 59.0615 94.2266 58.7744L94.9209 59.5566C94.8799 59.8027 94.7686 60.0752 94.5869 60.374C94.4053 60.6729 94.1621 60.96 93.8574 61.2354C93.5586 61.5049 93.2012 61.7305 92.7852 61.9121C92.375 62.0879 91.9121 62.1758 91.3965 62.1758C90.752 62.1758 90.1865 62.0498 89.7002 61.7979C89.2197 61.5459 88.8447 61.209 88.5752 60.7871C88.3115 60.3594 88.1797 59.8818 88.1797 59.3545C88.1797 58.8447 88.2793 58.3965 88.4785 58.0098C88.6777 57.6172 88.9648 57.292 89.3398 57.0342C89.7148 56.7705 90.166 56.5713 90.6934 56.4365C91.2207 56.3018 91.8096 56.2344 92.46 56.2344H94.3496ZM102.233 52.4902V53.7383H97.0918V52.4902H102.233ZM98.832 50.1787H100.458V59.6445C100.458 59.9668 100.508 60.21 100.607 60.374C100.707 60.5381 100.836 60.6465 100.994 60.6992C101.152 60.752 101.322 60.7783 101.504 60.7783C101.639 60.7783 101.779 60.7666 101.926 60.7432C102.078 60.7139 102.192 60.6904 102.269 60.6729L102.277 62C102.148 62.041 101.979 62.0791 101.768 62.1143C101.562 62.1553 101.313 62.1758 101.021 62.1758C100.622 62.1758 100.256 62.0967 99.9219 61.9385C99.5879 61.7803 99.3213 61.5166 99.1221 61.1475C98.9287 60.7725 98.832 60.2686 98.832 59.6357V50.1787ZM105.907 52.4902V62H104.272V52.4902H105.907ZM104.149 49.9678C104.149 49.7041 104.229 49.4814 104.387 49.2998C104.551 49.1182 104.791 49.0273 105.107 49.0273C105.418 49.0273 105.655 49.1182 105.819 49.2998C105.989 49.4814 106.074 49.7041 106.074 49.9678C106.074 50.2197 105.989 50.4365 105.819 50.6182C105.655 50.7939 105.418 50.8818 105.107 50.8818C104.791 50.8818 104.551 50.7939 104.387 50.6182C104.229 50.4365 104.149 50.2197 104.149 49.9678ZM108.087 57.3506V57.1484C108.087 56.4629 108.187 55.8271 108.386 55.2412C108.585 54.6494 108.872 54.1367 109.247 53.7031C109.622 53.2637 110.076 52.9238 110.609 52.6836C111.143 52.4375 111.74 52.3145 112.402 52.3145C113.07 52.3145 113.671 52.4375 114.204 52.6836C114.743 52.9238 115.2 53.2637 115.575 53.7031C115.956 54.1367 116.246 54.6494 116.445 55.2412C116.645 55.8271 116.744 56.4629 116.744 57.1484V57.3506C116.744 58.0361 116.645 58.6719 116.445 59.2578C116.246 59.8438 115.956 60.3564 115.575 60.7959C115.2 61.2295 114.746 61.5693 114.213 61.8154C113.686 62.0557 113.088 62.1758 112.42 62.1758C111.752 62.1758 111.151 62.0557 110.618 61.8154C110.085 61.5693 109.628 61.2295 109.247 60.7959C108.872 60.3564 108.585 59.8438 108.386 59.2578C108.187 58.6719 108.087 58.0361 108.087 57.3506ZM109.713 57.1484V57.3506C109.713 57.8252 109.769 58.2734 109.88 58.6953C109.991 59.1113 110.158 59.4805 110.381 59.8027C110.609 60.125 110.894 60.3799 111.233 60.5674C111.573 60.749 111.969 60.8398 112.42 60.8398C112.865 60.8398 113.255 60.749 113.589 60.5674C113.929 60.3799 114.21 60.125 114.433 59.8027C114.655 59.4805 114.822 59.1113 114.934 58.6953C115.051 58.2734 115.109 57.8252 115.109 57.3506V57.1484C115.109 56.6797 115.051 56.2373 114.934 55.8213C114.822 55.3994 114.652 55.0273 114.424 54.7051C114.201 54.377 113.92 54.1191 113.58 53.9316C113.246 53.7441 112.854 53.6504 112.402 53.6504C111.957 53.6504 111.564 53.7441 111.225 53.9316C110.891 54.1191 110.609 54.377 110.381 54.7051C110.158 55.0273 109.991 55.3994 109.88 55.8213C109.769 56.2373 109.713 56.6797 109.713 57.1484ZM120.409 54.5205V62H118.783V52.4902H120.321L120.409 54.5205ZM120.022 56.8848L119.346 56.8584C119.352 56.208 119.448 55.6074 119.636 55.0566C119.823 54.5 120.087 54.0166 120.427 53.6064C120.767 53.1963 121.171 52.8799 121.64 52.6572C122.114 52.4287 122.639 52.3145 123.213 52.3145C123.682 52.3145 124.104 52.3789 124.479 52.5078C124.854 52.6309 125.173 52.8301 125.437 53.1055C125.706 53.3809 125.911 53.7383 126.052 54.1777C126.192 54.6113 126.263 55.1416 126.263 55.7686V62H124.628V55.751C124.628 55.2529 124.555 54.8545 124.408 54.5557C124.262 54.251 124.048 54.0312 123.767 53.8965C123.485 53.7559 123.14 53.6855 122.729 53.6855C122.325 53.6855 121.956 53.7705 121.622 53.9404C121.294 54.1104 121.01 54.3447 120.77 54.6436C120.535 54.9424 120.351 55.2852 120.216 55.6719C120.087 56.0527 120.022 56.457 120.022 56.8848ZM134.964 52.4902V62H133.329V52.4902H134.964ZM133.206 49.9678C133.206 49.7041 133.285 49.4814 133.443 49.2998C133.607 49.1182 133.848 49.0273 134.164 49.0273C134.475 49.0273 134.712 49.1182 134.876 49.2998C135.046 49.4814 135.131 49.7041 135.131 49.9678C135.131 50.2197 135.046 50.4365 134.876 50.6182C134.712 50.7939 134.475 50.8818 134.164 50.8818C133.848 50.8818 133.607 50.7939 133.443 50.6182C133.285 50.4365 133.206 50.2197 133.206 49.9678ZM139.2 54.5205V62H137.574V52.4902H139.112L139.2 54.5205ZM138.813 56.8848L138.137 56.8584C138.143 56.208 138.239 55.6074 138.427 55.0566C138.614 54.5 138.878 54.0166 139.218 53.6064C139.558 53.1963 139.962 52.8799 140.431 52.6572C140.905 52.4287 141.43 52.3145 142.004 52.3145C142.473 52.3145 142.895 52.3789 143.27 52.5078C143.645 52.6309 143.964 52.8301 144.228 53.1055C144.497 53.3809 144.702 53.7383 144.843 54.1777C144.983 54.6113 145.054 55.1416 145.054 55.7686V62H143.419V55.751C143.419 55.2529 143.346 54.8545 143.199 54.5557C143.053 54.251 142.839 54.0312 142.558 53.8965C142.276 53.7559 141.931 53.6855 141.521 53.6855C141.116 53.6855 140.747 53.7705 140.413 53.9404C140.085 54.1104 139.801 54.3447 139.561 54.6436C139.326 54.9424 139.142 55.2852 139.007 55.6719C138.878 56.0527 138.813 56.457 138.813 56.8848ZM68.6592 70.2031V83H66.9629V70.2031H68.6592ZM74.0205 75.96V77.3486H68.29V75.96H74.0205ZM74.8906 70.2031V71.5918H68.29V70.2031H74.8906ZM78.4326 73.4902V83H76.7979V73.4902H78.4326ZM76.6748 70.9678C76.6748 70.7041 76.7539 70.4814 76.9121 70.2998C77.0762 70.1182 77.3164 70.0273 77.6328 70.0273C77.9434 70.0273 78.1807 70.1182 78.3447 70.2998C78.5146 70.4814 78.5996 70.7041 78.5996 70.9678C78.5996 71.2197 78.5146 71.4365 78.3447 71.6182C78.1807 71.7939 77.9434 71.8818 77.6328 71.8818C77.3164 71.8818 77.0762 71.7939 76.9121 71.6182C76.7539 71.4365 76.6748 71.2197 76.6748 70.9678ZM82.6689 75.5205V83H81.043V73.4902H82.5811L82.6689 75.5205ZM82.2822 77.8848L81.6055 77.8584C81.6113 77.208 81.708 76.6074 81.8955 76.0566C82.083 75.5 82.3467 75.0166 82.6865 74.6064C83.0264 74.1963 83.4307 73.8799 83.8994 73.6572C84.374 73.4287 84.8984 73.3145 85.4727 73.3145C85.9414 73.3145 86.3633 73.3789 86.7383 73.5078C87.1133 73.6309 87.4326 73.8301 87.6963 74.1055C87.9658 74.3809 88.1709 74.7383 88.3115 75.1777C88.4521 75.6113 88.5225 76.1416 88.5225 76.7686V83H86.8877V76.751C86.8877 76.2529 86.8145 75.8545 86.668 75.5557C86.5215 75.251 86.3076 75.0312 86.0264 74.8965C85.7451 74.7559 85.3994 74.6855 84.9893 74.6855C84.585 74.6855 84.2158 74.7705 83.8818 74.9404C83.5537 75.1104 83.2695 75.3447 83.0293 75.6436C82.7949 75.9424 82.6104 76.2852 82.4756 76.6719C82.3467 77.0527 82.2822 77.457 82.2822 77.8848ZM94.9736 73.4902V74.7383H89.832V73.4902H94.9736ZM91.5723 71.1787H93.1982V80.6445C93.1982 80.9668 93.248 81.21 93.3477 81.374C93.4473 81.5381 93.5762 81.6465 93.7344 81.6992C93.8926 81.752 94.0625 81.7783 94.2441 81.7783C94.3789 81.7783 94.5195 81.7666 94.666 81.7432C94.8184 81.7139 94.9326 81.6904 95.0088 81.6729L95.0176 83C94.8887 83.041 94.7188 83.0791 94.5078 83.1143C94.3027 83.1553 94.0537 83.1758 93.7607 83.1758C93.3623 83.1758 92.9961 83.0967 92.6621 82.9385C92.3281 82.7803 92.0615 82.5166 91.8623 82.1475C91.6689 81.7725 91.5723 81.2686 91.5723 80.6357V71.1787ZM100.827 83.1758C100.165 83.1758 99.5645 83.0645 99.0254 82.8418C98.4922 82.6133 98.0322 82.2939 97.6455 81.8838C97.2646 81.4736 96.9717 80.9873 96.7666 80.4248C96.5615 79.8623 96.459 79.2471 96.459 78.5791V78.21C96.459 77.4365 96.5732 76.748 96.8018 76.1445C97.0303 75.5352 97.3408 75.0195 97.7334 74.5977C98.126 74.1758 98.5713 73.8564 99.0693 73.6396C99.5674 73.4229 100.083 73.3145 100.616 73.3145C101.296 73.3145 101.882 73.4316 102.374 73.666C102.872 73.9004 103.279 74.2285 103.596 74.6504C103.912 75.0664 104.146 75.5586 104.299 76.127C104.451 76.6895 104.527 77.3047 104.527 77.9727V78.7021H97.4258V77.375H102.901V77.252C102.878 76.8301 102.79 76.4199 102.638 76.0215C102.491 75.623 102.257 75.2949 101.935 75.0371C101.612 74.7793 101.173 74.6504 100.616 74.6504C100.247 74.6504 99.9072 74.7295 99.5967 74.8877C99.2861 75.04 99.0195 75.2686 98.7969 75.5732C98.5742 75.8779 98.4014 76.25 98.2783 76.6895C98.1553 77.1289 98.0938 77.6357 98.0938 78.21V78.5791C98.0938 79.0303 98.1553 79.4551 98.2783 79.8535C98.4072 80.2461 98.5918 80.5918 98.832 80.8906C99.0781 81.1895 99.374 81.4238 99.7197 81.5938C100.071 81.7637 100.47 81.8486 100.915 81.8486C101.489 81.8486 101.976 81.7314 102.374 81.4971C102.772 81.2627 103.121 80.9492 103.42 80.5566L104.404 81.3389C104.199 81.6494 103.938 81.9453 103.622 82.2266C103.306 82.5078 102.916 82.7363 102.453 82.9121C101.996 83.0879 101.454 83.1758 100.827 83.1758ZM110.231 81.8398C110.618 81.8398 110.976 81.7607 111.304 81.6025C111.632 81.4443 111.901 81.2275 112.112 80.9521C112.323 80.6709 112.443 80.3516 112.473 79.9941H114.02C113.99 80.5566 113.8 81.0811 113.448 81.5674C113.103 82.0479 112.648 82.4375 112.086 82.7363C111.523 83.0293 110.905 83.1758 110.231 83.1758C109.517 83.1758 108.893 83.0498 108.359 82.7979C107.832 82.5459 107.393 82.2002 107.041 81.7607C106.695 81.3213 106.435 80.8174 106.259 80.249C106.089 79.6748 106.004 79.0684 106.004 78.4297V78.0605C106.004 77.4219 106.089 76.8184 106.259 76.25C106.435 75.6758 106.695 75.1689 107.041 74.7295C107.393 74.29 107.832 73.9443 108.359 73.6924C108.893 73.4404 109.517 73.3145 110.231 73.3145C110.976 73.3145 111.626 73.4668 112.183 73.7715C112.739 74.0703 113.176 74.4805 113.492 75.002C113.814 75.5176 113.99 76.1035 114.02 76.7598H112.473C112.443 76.3672 112.332 76.0127 112.139 75.6963C111.951 75.3799 111.693 75.1279 111.365 74.9404C111.043 74.7471 110.665 74.6504 110.231 74.6504C109.733 74.6504 109.314 74.75 108.975 74.9492C108.641 75.1426 108.374 75.4062 108.175 75.7402C107.981 76.0684 107.841 76.4346 107.753 76.8389C107.671 77.2373 107.63 77.6445 107.63 78.0605V78.4297C107.63 78.8457 107.671 79.2559 107.753 79.6602C107.835 80.0645 107.973 80.4307 108.166 80.7588C108.365 81.0869 108.632 81.3506 108.966 81.5498C109.306 81.7432 109.728 81.8398 110.231 81.8398ZM117.474 69.5V83H115.848V69.5H117.474ZM117.087 77.8848L116.41 77.8584C116.416 77.208 116.513 76.6074 116.7 76.0566C116.888 75.5 117.151 75.0166 117.491 74.6064C117.831 74.1963 118.235 73.8799 118.704 73.6572C119.179 73.4287 119.703 73.3145 120.277 73.3145C120.746 73.3145 121.168 73.3789 121.543 73.5078C121.918 73.6309 122.237 73.8301 122.501 74.1055C122.771 74.3809 122.976 74.7383 123.116 75.1777C123.257 75.6113 123.327 76.1416 123.327 76.7686V83H121.692V76.751C121.692 76.2529 121.619 75.8545 121.473 75.5557C121.326 75.251 121.112 75.0312 120.831 74.8965C120.55 74.7559 120.204 74.6855 119.794 74.6855C119.39 74.6855 119.021 74.7705 118.687 74.9404C118.358 75.1104 118.074 75.3447 117.834 75.6436C117.6 75.9424 117.415 76.2852 117.28 76.6719C117.151 77.0527 117.087 77.457 117.087 77.8848Z" fill="black"/>
</svg>
