<svg width="190" height="104" viewBox="0 0 190 104" fill="none" xmlns="http://www.w3.org/2000/svg">
<path d="M36.9656 0C35.748 3.04523 33.917 5.80345 31.588 8.10074C29.2589 10.398 26.4824 12.1846 23.4333 13.3477C23.4544 7.01392 30.3156 0.170034 36.9656 0ZM23.2222 92.9238C18.62 87.1426 12.4556 83.7207 7.83222 85.8886C11.6322 93.5189 19.3589 96.2395 23.2222 92.9238ZM16.0233 81.7015C12.7933 75.3252 7.45222 70.7768 2.49111 71.9671C4.70778 80.0862 11.6111 84.1883 16.0233 81.7015ZM11.3367 69.5016C9.43667 62.7427 5.00333 57.2166 0 57.4291C0.612222 65.7608 6.52333 71.0531 11.3367 69.5016ZM9.22556 56.749C8.67667 49.7776 5.46778 43.4863 0.422222 42.6999C-0.654444 51.0103 4.22222 57.3866 9.14111 56.749H9.22556ZM9.54222 43.8264C10.3233 36.8762 8.40222 30.0323 3.63111 28.2682C0.928889 36.2598 4.43333 43.4013 9.45778 43.8264H9.54222ZM12.3289 31.0738C14.44 24.3787 13.9756 17.1947 9.64778 14.4954C5.36222 22.0195 7.41 29.756 12.2444 31.1588L12.3289 31.0738ZM17.5433 19.1289C21.0056 12.9014 22.1244 5.63239 18.43 2.12543C12.6667 8.75677 13.0678 16.8334 17.5433 19.1289ZM20.5622 20.8717C25.08 23.2522 30.8856 21.0418 34.8122 16.6209C31.16 13.1777 24.0878 14.708 20.5622 20.9142V20.8717ZM15.5589 32.264C20.4567 33.7093 25.6922 30.4574 28.5422 25.4839C24.2567 22.7846 17.7333 25.5052 15.5589 32.264ZM12.92 44.2515C17.9867 44.6978 22.4833 40.5107 24.2778 35.1759C19.5489 33.3693 13.7433 37.3226 12.92 44.2515ZM12.6667 56.4727C17.7122 55.9201 21.3433 50.9253 22.0611 45.3779C17.0367 44.634 12.1178 49.5225 12.6667 56.4727ZM14.7778 68.5664C19.6333 67.0148 22.23 61.3824 21.85 55.8138C16.72 55.9838 12.8567 61.8075 14.7778 68.5664ZM19.2111 80.1075C23.6656 77.6207 25.0589 71.6057 23.6233 66.0796C18.62 67.2486 15.9389 73.7737 19.1267 80.1075H19.2111ZM25.9878 90.7346C29.8511 87.3977 29.9144 81.0214 27.4022 75.8566C22.7156 78.0458 21.3856 85.0172 25.9033 90.7346H25.9878ZM36.5433 102.191C23.5683 92.4224 14.805 78.0192 12.0562 61.9443C9.30736 45.8693 12.7821 29.345 21.7656 15.7707C12.4284 29.3843 8.63753 46.0868 11.1752 62.4323C13.7128 78.7777 22.3853 93.519 35.4033 103.615C35.9944 104.082 36.7122 104.125 37.0078 103.615C37.3033 103.105 37.0078 102.552 36.5011 102.106L36.5433 102.191ZM153.034 0C154.252 3.04523 156.083 5.80345 158.412 8.10074C160.741 10.398 163.518 12.1846 166.567 13.3477C166.546 7.01392 159.684 0.170034 153.034 0ZM182.168 85.8886C177.544 83.7632 171.38 87.2277 166.82 92.9238C170.641 96.2395 178.368 93.5189 182.168 85.8886ZM187.509 71.9671C182.548 70.7768 177.207 75.3677 173.977 81.7015C178.389 84.1883 185.292 80.0862 187.509 71.9671ZM190 57.3866C184.912 57.1741 180.563 62.7002 178.663 69.4591C183.477 71.0531 189.388 65.7608 190 57.3866ZM189.662 42.6574C184.617 43.4438 181.408 49.7351 180.859 56.7065C185.778 57.3866 190.654 51.0103 189.662 42.6999V42.6574ZM186.453 28.2682C181.682 30.0323 179.761 36.8762 180.542 43.8264C185.567 43.4013 189.071 36.2598 186.453 28.2682ZM180.437 14.5805C176.214 17.2797 175.623 24.4637 177.756 31.1588C182.59 29.756 184.638 22.0195 180.437 14.5805ZM171.57 2.12543C167.876 5.65364 168.994 12.9226 172.457 19.1289C176.932 16.8334 177.333 8.75677 171.57 2.12543ZM155.188 16.6846C159.114 21.0843 164.92 23.2947 169.438 20.9355C165.912 14.708 158.84 13.1777 155.188 16.6846ZM161.521 25.4839C164.371 30.4574 169.607 33.7093 174.504 32.264C172.267 25.5052 165.743 22.7846 161.458 25.5052L161.521 25.4839ZM165.743 35.1759C167.538 40.5107 172.077 44.6978 177.101 44.2515C176.257 37.3226 170.451 33.3693 165.722 35.1759H165.743ZM168.002 45.3779C168.72 50.9253 172.351 56.0051 177.397 56.4727C177.882 49.5225 172.963 44.634 167.981 45.3779H168.002ZM168.256 55.7925C167.876 61.3824 170.367 67.0148 175.328 68.5451C177.143 61.8075 173.28 55.9838 168.234 55.7925H168.256ZM166.482 66.0796C165.047 71.5207 166.482 77.6207 170.894 80.1075C174.061 73.7737 171.38 67.2486 166.461 66.0796H166.482ZM162.703 75.9204C160.191 81.0214 160.254 87.3977 164.118 90.7984C168.614 85.0172 167.284 78.0458 162.682 75.9204H162.703ZM153.562 102.212C152.992 102.658 152.76 103.338 153.056 103.721C153.351 104.104 154.069 104.082 154.66 103.721C167.707 93.6223 176.399 78.8605 178.938 62.4899C181.476 46.1192 177.667 29.3926 168.298 15.7707C177.281 29.345 180.756 45.8693 178.007 61.9443C175.258 78.0192 166.495 92.4224 153.52 102.191L153.562 102.212Z" fill="black"/>
<path d="M83.9609 26.0225V28H75.207V26.3125L79.3467 21.874C79.7627 21.4111 80.0908 21.0039 80.3311 20.6523C80.5713 20.2949 80.7441 19.9756 80.8496 19.6943C80.9609 19.4072 81.0166 19.1348 81.0166 18.877C81.0166 18.4902 80.9521 18.1592 80.8232 17.8838C80.6943 17.6025 80.5039 17.3857 80.252 17.2334C80.0059 17.0811 79.7012 17.0049 79.3379 17.0049C78.9512 17.0049 78.6172 17.0986 78.3359 17.2861C78.0605 17.4736 77.8496 17.7344 77.7031 18.0684C77.5625 18.4023 77.4922 18.7803 77.4922 19.2021H74.9521C74.9521 18.4404 75.1338 17.7432 75.4971 17.1104C75.8604 16.4717 76.373 15.9648 77.0352 15.5898C77.6973 15.209 78.4824 15.0186 79.3906 15.0186C80.2871 15.0186 81.043 15.165 81.6582 15.458C82.2793 15.7451 82.748 16.1611 83.0645 16.7061C83.3867 17.2451 83.5479 17.8896 83.5479 18.6396C83.5479 19.0615 83.4805 19.4746 83.3457 19.8789C83.2109 20.2773 83.0176 20.6758 82.7656 21.0742C82.5195 21.4668 82.2207 21.8652 81.8691 22.2695C81.5176 22.6738 81.1279 23.0928 80.7002 23.5264L78.4766 26.0225H83.9609ZM94.1562 20.4766V22.6914C94.1562 23.6523 94.0537 24.4814 93.8486 25.1787C93.6436 25.8701 93.3477 26.4385 92.9609 26.8838C92.5801 27.3232 92.126 27.6484 91.5986 27.8594C91.0713 28.0703 90.4854 28.1758 89.8408 28.1758C89.3252 28.1758 88.8447 28.1113 88.3994 27.9824C87.9541 27.8477 87.5527 27.6396 87.1953 27.3584C86.8438 27.0771 86.5391 26.7227 86.2812 26.2949C86.0293 25.8613 85.8359 25.3457 85.7012 24.748C85.5664 24.1504 85.499 23.4648 85.499 22.6914V20.4766C85.499 19.5156 85.6016 18.6924 85.8066 18.0068C86.0176 17.3154 86.3135 16.75 86.6943 16.3105C87.0811 15.8711 87.5381 15.5488 88.0654 15.3438C88.5928 15.1328 89.1787 15.0273 89.8232 15.0273C90.3389 15.0273 90.8164 15.0947 91.2559 15.2295C91.7012 15.3584 92.1025 15.5605 92.46 15.8359C92.8174 16.1113 93.1221 16.4658 93.374 16.8994C93.626 17.3271 93.8193 17.8398 93.9541 18.4375C94.0889 19.0293 94.1562 19.709 94.1562 20.4766ZM91.6162 23.0254V20.1338C91.6162 19.6709 91.5898 19.2666 91.5371 18.9209C91.4902 18.5752 91.417 18.2822 91.3174 18.042C91.2178 17.7959 91.0947 17.5967 90.9482 17.4443C90.8018 17.292 90.6348 17.1807 90.4473 17.1104C90.2598 17.04 90.0518 17.0049 89.8232 17.0049C89.5361 17.0049 89.2812 17.0605 89.0586 17.1719C88.8418 17.2832 88.6572 17.4619 88.5049 17.708C88.3525 17.9482 88.2354 18.2705 88.1533 18.6748C88.0771 19.0732 88.0391 19.5596 88.0391 20.1338V23.0254C88.0391 23.4883 88.0625 23.8955 88.1094 24.2471C88.1621 24.5986 88.2383 24.9004 88.3379 25.1523C88.4434 25.3984 88.5664 25.6006 88.707 25.7588C88.8535 25.9111 89.0205 26.0225 89.208 26.0928C89.4014 26.1631 89.6123 26.1982 89.8408 26.1982C90.1221 26.1982 90.3711 26.1426 90.5879 26.0312C90.8105 25.9141 90.998 25.7324 91.1504 25.4863C91.3086 25.2344 91.4258 24.9062 91.502 24.502C91.5781 24.0977 91.6162 23.6055 91.6162 23.0254ZM104.633 26.0225V28H95.8789V26.3125L100.019 21.874C100.435 21.4111 100.763 21.0039 101.003 20.6523C101.243 20.2949 101.416 19.9756 101.521 19.6943C101.633 19.4072 101.688 19.1348 101.688 18.877C101.688 18.4902 101.624 18.1592 101.495 17.8838C101.366 17.6025 101.176 17.3857 100.924 17.2334C100.678 17.0811 100.373 17.0049 100.01 17.0049C99.623 17.0049 99.2891 17.0986 99.0078 17.2861C98.7324 17.4736 98.5215 17.7344 98.375 18.0684C98.2344 18.4023 98.1641 18.7803 98.1641 19.2021H95.624C95.624 18.4404 95.8057 17.7432 96.1689 17.1104C96.5322 16.4717 97.0449 15.9648 97.707 15.5898C98.3691 15.209 99.1543 15.0186 100.062 15.0186C100.959 15.0186 101.715 15.165 102.33 15.458C102.951 15.7451 103.42 16.1611 103.736 16.7061C104.059 17.2451 104.22 17.8896 104.22 18.6396C104.22 19.0615 104.152 19.4746 104.018 19.8789C103.883 20.2773 103.689 20.6758 103.438 21.0742C103.191 21.4668 102.893 21.8652 102.541 22.2695C102.189 22.6738 101.8 23.0928 101.372 23.5264L99.1484 26.0225H104.633ZM108.808 20.5029H110.161C110.595 20.5029 110.952 20.4297 111.233 20.2832C111.515 20.1309 111.723 19.9199 111.857 19.6504C111.998 19.375 112.068 19.0557 112.068 18.6924C112.068 18.3643 112.004 18.0742 111.875 17.8223C111.752 17.5645 111.562 17.3652 111.304 17.2246C111.046 17.0781 110.721 17.0049 110.328 17.0049C110.018 17.0049 109.73 17.0664 109.467 17.1895C109.203 17.3125 108.992 17.4854 108.834 17.708C108.676 17.9307 108.597 18.2002 108.597 18.5166H106.057C106.057 17.8135 106.244 17.2012 106.619 16.6797C107 16.1582 107.51 15.751 108.148 15.458C108.787 15.165 109.49 15.0186 110.258 15.0186C111.125 15.0186 111.884 15.1592 112.534 15.4404C113.185 15.7158 113.691 16.123 114.055 16.6621C114.418 17.2012 114.6 17.8691 114.6 18.666C114.6 19.0703 114.506 19.4629 114.318 19.8438C114.131 20.2188 113.861 20.5586 113.51 20.8633C113.164 21.1621 112.742 21.4023 112.244 21.584C111.746 21.7598 111.187 21.8477 110.565 21.8477H108.808V20.5029ZM108.808 22.4277V21.1182H110.565C111.263 21.1182 111.875 21.1973 112.402 21.3555C112.93 21.5137 113.372 21.7422 113.729 22.041C114.087 22.334 114.356 22.6826 114.538 23.0869C114.72 23.4854 114.811 23.9277 114.811 24.4141C114.811 25.0117 114.696 25.5449 114.468 26.0137C114.239 26.4766 113.917 26.8691 113.501 27.1914C113.091 27.5137 112.61 27.7598 112.06 27.9297C111.509 28.0938 110.908 28.1758 110.258 28.1758C109.719 28.1758 109.188 28.1025 108.667 27.9561C108.151 27.8037 107.683 27.5781 107.261 27.2793C106.845 26.9746 106.511 26.5938 106.259 26.1367C106.013 25.6738 105.89 25.126 105.89 24.4932H108.43C108.43 24.8213 108.512 25.1143 108.676 25.3721C108.84 25.6299 109.065 25.832 109.353 25.9785C109.646 26.125 109.971 26.1982 110.328 26.1982C110.732 26.1982 111.078 26.125 111.365 25.9785C111.658 25.8262 111.881 25.6152 112.033 25.3457C112.191 25.0703 112.271 24.751 112.271 24.3877C112.271 23.9189 112.186 23.5439 112.016 23.2627C111.846 22.9756 111.603 22.7646 111.286 22.6299C110.97 22.4951 110.595 22.4277 110.161 22.4277H108.808Z" fill="black"/>
<path d="M47.0205 50.0146H43.7773L43.7598 48.6523H46.7041C47.1904 48.6523 47.6152 48.5703 47.9785 48.4062C48.3418 48.2422 48.623 48.0078 48.8223 47.7031C49.0273 47.3926 49.1299 47.0234 49.1299 46.5957C49.1299 46.127 49.0391 45.7461 48.8574 45.4531C48.6816 45.1543 48.4092 44.9375 48.04 44.8027C47.6768 44.6621 47.2139 44.5918 46.6514 44.5918H44.1553V56H42.459V43.2031H46.6514C47.3076 43.2031 47.8936 43.2705 48.4092 43.4053C48.9248 43.5342 49.3613 43.7393 49.7188 44.0205C50.082 44.2959 50.3574 44.6475 50.5449 45.0752C50.7324 45.5029 50.8262 46.0156 50.8262 46.6133C50.8262 47.1406 50.6914 47.6182 50.4219 48.0459C50.1523 48.4678 49.7773 48.8135 49.2969 49.083C48.8223 49.3525 48.2656 49.5254 47.627 49.6016L47.0205 50.0146ZM46.9414 56H43.1094L44.0674 54.6201H46.9414C47.4805 54.6201 47.9375 54.5264 48.3125 54.3389C48.6934 54.1514 48.9834 53.8877 49.1826 53.5479C49.3818 53.2021 49.4814 52.7949 49.4814 52.3262C49.4814 51.8516 49.3965 51.4414 49.2266 51.0957C49.0566 50.75 48.79 50.4834 48.4268 50.2959C48.0635 50.1084 47.5947 50.0146 47.0205 50.0146H44.6035L44.6211 48.6523H47.9258L48.2861 49.1445C48.9014 49.1973 49.4229 49.373 49.8506 49.6719C50.2783 49.9648 50.6035 50.3398 50.8262 50.7969C51.0547 51.2539 51.1689 51.7578 51.1689 52.3086C51.1689 53.1055 50.9932 53.7793 50.6416 54.3301C50.2959 54.875 49.8066 55.291 49.1738 55.5781C48.541 55.8594 47.7969 56 46.9414 56ZM57.374 56.1758C56.7119 56.1758 56.1113 56.0645 55.5723 55.8418C55.0391 55.6133 54.5791 55.2939 54.1924 54.8838C53.8115 54.4736 53.5186 53.9873 53.3135 53.4248C53.1084 52.8623 53.0059 52.2471 53.0059 51.5791V51.21C53.0059 50.4365 53.1201 49.748 53.3486 49.1445C53.5771 48.5352 53.8877 48.0195 54.2803 47.5977C54.6729 47.1758 55.1182 46.8564 55.6162 46.6396C56.1143 46.4229 56.6299 46.3145 57.1631 46.3145C57.8428 46.3145 58.4287 46.4316 58.9209 46.666C59.4189 46.9004 59.8262 47.2285 60.1426 47.6504C60.459 48.0664 60.6934 48.5586 60.8457 49.127C60.998 49.6895 61.0742 50.3047 61.0742 50.9727V51.7021H53.9727V50.375H59.4482V50.252C59.4248 49.8301 59.3369 49.4199 59.1846 49.0215C59.0381 48.623 58.8037 48.2949 58.4814 48.0371C58.1592 47.7793 57.7197 47.6504 57.1631 47.6504C56.7939 47.6504 56.4541 47.7295 56.1436 47.8877C55.833 48.04 55.5664 48.2686 55.3438 48.5732C55.1211 48.8779 54.9482 49.25 54.8252 49.6895C54.7021 50.1289 54.6406 50.6357 54.6406 51.21V51.5791C54.6406 52.0303 54.7021 52.4551 54.8252 52.8535C54.9541 53.2461 55.1387 53.5918 55.3789 53.8906C55.625 54.1895 55.9209 54.4238 56.2666 54.5938C56.6182 54.7637 57.0166 54.8486 57.4619 54.8486C58.0361 54.8486 58.5225 54.7314 58.9209 54.4971C59.3193 54.2627 59.668 53.9492 59.9668 53.5566L60.9512 54.3389C60.7461 54.6494 60.4854 54.9453 60.1689 55.2266C59.8525 55.5078 59.4629 55.7363 59 55.9121C58.543 56.0879 58.001 56.1758 57.374 56.1758ZM68.5098 53.4775C68.5098 53.2432 68.457 53.0264 68.3516 52.8271C68.252 52.6221 68.0439 52.4375 67.7275 52.2734C67.417 52.1035 66.9482 51.957 66.3213 51.834C65.7939 51.7227 65.3164 51.5908 64.8887 51.4385C64.4668 51.2861 64.1064 51.1016 63.8076 50.8848C63.5146 50.668 63.2891 50.4131 63.1309 50.1201C62.9727 49.8271 62.8936 49.4844 62.8936 49.0918C62.8936 48.7168 62.9756 48.3623 63.1396 48.0283C63.3096 47.6943 63.5469 47.3984 63.8516 47.1406C64.1621 46.8828 64.5342 46.6807 64.9678 46.5342C65.4014 46.3877 65.8848 46.3145 66.418 46.3145C67.1797 46.3145 67.8301 46.4492 68.3691 46.7188C68.9082 46.9883 69.3213 47.3486 69.6084 47.7998C69.8955 48.2451 70.0391 48.7402 70.0391 49.2852H68.4131C68.4131 49.0215 68.334 48.7666 68.1758 48.5205C68.0234 48.2686 67.7979 48.0605 67.499 47.8965C67.2061 47.7324 66.8457 47.6504 66.418 47.6504C65.9668 47.6504 65.6006 47.7207 65.3193 47.8613C65.0439 47.9961 64.8418 48.1689 64.7129 48.3799C64.5898 48.5908 64.5283 48.8135 64.5283 49.0479C64.5283 49.2236 64.5576 49.3818 64.6162 49.5225C64.6807 49.6572 64.792 49.7832 64.9502 49.9004C65.1084 50.0117 65.3311 50.1172 65.6182 50.2168C65.9053 50.3164 66.2715 50.416 66.7168 50.5156C67.4961 50.6914 68.1377 50.9023 68.6416 51.1484C69.1455 51.3945 69.5205 51.6963 69.7666 52.0537C70.0127 52.4111 70.1357 52.8447 70.1357 53.3545C70.1357 53.7705 70.0479 54.1514 69.8721 54.4971C69.7021 54.8428 69.4531 55.1416 69.125 55.3936C68.8027 55.6396 68.416 55.833 67.9648 55.9736C67.5195 56.1084 67.0186 56.1758 66.4619 56.1758C65.624 56.1758 64.915 56.0264 64.335 55.7275C63.7549 55.4287 63.3154 55.042 63.0166 54.5674C62.7178 54.0928 62.5684 53.5918 62.5684 53.0645H64.2031C64.2266 53.5098 64.3555 53.8643 64.5898 54.1279C64.8242 54.3857 65.1113 54.5703 65.4512 54.6816C65.791 54.7871 66.1279 54.8398 66.4619 54.8398C66.9072 54.8398 67.2793 54.7812 67.5781 54.6641C67.8828 54.5469 68.1143 54.3857 68.2725 54.1807C68.4307 53.9756 68.5098 53.7412 68.5098 53.4775ZM76.2529 46.4902V47.7383H71.1113V46.4902H76.2529ZM72.8516 44.1787H74.4775V53.6445C74.4775 53.9668 74.5273 54.21 74.627 54.374C74.7266 54.5381 74.8555 54.6465 75.0137 54.6992C75.1719 54.752 75.3418 54.7783 75.5234 54.7783C75.6582 54.7783 75.7988 54.7666 75.9453 54.7432C76.0977 54.7139 76.2119 54.6904 76.2881 54.6729L76.2969 56C76.168 56.041 75.998 56.0791 75.7871 56.1143C75.582 56.1553 75.333 56.1758 75.04 56.1758C74.6416 56.1758 74.2754 56.0967 73.9414 55.9385C73.6074 55.7803 73.3408 55.5166 73.1416 55.1475C72.9482 54.7725 72.8516 54.2686 72.8516 53.6357V44.1787ZM84.7959 56H83.1699V45.6641C83.1699 44.9434 83.3105 44.334 83.5918 43.8359C83.873 43.3379 84.2744 42.96 84.7959 42.7021C85.3174 42.4443 85.9355 42.3154 86.6504 42.3154C87.0723 42.3154 87.4854 42.3682 87.8896 42.4736C88.2939 42.5732 88.71 42.6992 89.1377 42.8516L88.8652 44.2227C88.5957 44.1172 88.2822 44.0176 87.9248 43.9238C87.5732 43.8242 87.1865 43.7744 86.7646 43.7744C86.0674 43.7744 85.5635 43.9326 85.2529 44.249C84.9482 44.5596 84.7959 45.0312 84.7959 45.6641V56ZM86.7383 46.4902V47.7383H81.667V46.4902H86.7383ZM89.9375 46.4902V56H88.3115V46.4902H89.9375ZM94.2354 48.5205V56H92.6094V46.4902H94.1475L94.2354 48.5205ZM93.8486 50.8848L93.1719 50.8584C93.1777 50.208 93.2744 49.6074 93.4619 49.0566C93.6494 48.5 93.9131 48.0166 94.2529 47.6064C94.5928 47.1963 94.9971 46.8799 95.4658 46.6572C95.9404 46.4287 96.4648 46.3145 97.0391 46.3145C97.5078 46.3145 97.9297 46.3789 98.3047 46.5078C98.6797 46.6309 98.999 46.8301 99.2627 47.1055C99.5322 47.3809 99.7373 47.7383 99.8779 48.1777C100.019 48.6113 100.089 49.1416 100.089 49.7686V56H98.4541V49.751C98.4541 49.2529 98.3809 48.8545 98.2344 48.5557C98.0879 48.251 97.874 48.0312 97.5928 47.8965C97.3115 47.7559 96.9658 47.6855 96.5557 47.6855C96.1514 47.6855 95.7822 47.7705 95.4482 47.9404C95.1201 48.1104 94.8359 48.3447 94.5957 48.6436C94.3613 48.9424 94.1768 49.2852 94.042 49.6719C93.9131 50.0527 93.8486 50.457 93.8486 50.8848ZM108.166 54.374V49.4785C108.166 49.1035 108.09 48.7783 107.938 48.5029C107.791 48.2217 107.568 48.0049 107.27 47.8525C106.971 47.7002 106.602 47.624 106.162 47.624C105.752 47.624 105.392 47.6943 105.081 47.835C104.776 47.9756 104.536 48.1602 104.36 48.3887C104.19 48.6172 104.105 48.8633 104.105 49.127H102.479C102.479 48.7871 102.567 48.4502 102.743 48.1162C102.919 47.7822 103.171 47.4805 103.499 47.2109C103.833 46.9355 104.231 46.7188 104.694 46.5605C105.163 46.3965 105.685 46.3145 106.259 46.3145C106.95 46.3145 107.56 46.4316 108.087 46.666C108.62 46.9004 109.036 47.2549 109.335 47.7295C109.64 48.1982 109.792 48.7871 109.792 49.4961V53.9258C109.792 54.2422 109.818 54.5791 109.871 54.9365C109.93 55.2939 110.015 55.6016 110.126 55.8594V56H108.43C108.348 55.8125 108.283 55.5635 108.236 55.2529C108.189 54.9365 108.166 54.6436 108.166 54.374ZM108.447 50.2344L108.465 51.377H106.821C106.358 51.377 105.945 51.415 105.582 51.4912C105.219 51.5615 104.914 51.6699 104.668 51.8164C104.422 51.9629 104.234 52.1475 104.105 52.3701C103.977 52.5869 103.912 52.8418 103.912 53.1348C103.912 53.4336 103.979 53.7061 104.114 53.9521C104.249 54.1982 104.451 54.3945 104.721 54.541C104.996 54.6816 105.333 54.752 105.731 54.752C106.229 54.752 106.669 54.6465 107.05 54.4355C107.431 54.2246 107.732 53.9668 107.955 53.6621C108.184 53.3574 108.307 53.0615 108.324 52.7744L109.019 53.5566C108.978 53.8027 108.866 54.0752 108.685 54.374C108.503 54.6729 108.26 54.96 107.955 55.2354C107.656 55.5049 107.299 55.7305 106.883 55.9121C106.473 56.0879 106.01 56.1758 105.494 56.1758C104.85 56.1758 104.284 56.0498 103.798 55.7979C103.317 55.5459 102.942 55.209 102.673 54.7871C102.409 54.3594 102.277 53.8818 102.277 53.3545C102.277 52.8447 102.377 52.3965 102.576 52.0098C102.775 51.6172 103.062 51.292 103.438 51.0342C103.812 50.7705 104.264 50.5713 104.791 50.4365C105.318 50.3018 105.907 50.2344 106.558 50.2344H108.447ZM113.976 48.5205V56H112.35V46.4902H113.888L113.976 48.5205ZM113.589 50.8848L112.912 50.8584C112.918 50.208 113.015 49.6074 113.202 49.0566C113.39 48.5 113.653 48.0166 113.993 47.6064C114.333 47.1963 114.737 46.8799 115.206 46.6572C115.681 46.4287 116.205 46.3145 116.779 46.3145C117.248 46.3145 117.67 46.3789 118.045 46.5078C118.42 46.6309 118.739 46.8301 119.003 47.1055C119.272 47.3809 119.478 47.7383 119.618 48.1777C119.759 48.6113 119.829 49.1416 119.829 49.7686V56H118.194V49.751C118.194 49.2529 118.121 48.8545 117.975 48.5557C117.828 48.251 117.614 48.0312 117.333 47.8965C117.052 47.7559 116.706 47.6855 116.296 47.6855C115.892 47.6855 115.522 47.7705 115.188 47.9404C114.86 48.1104 114.576 48.3447 114.336 48.6436C114.102 48.9424 113.917 49.2852 113.782 49.6719C113.653 50.0527 113.589 50.457 113.589 50.8848ZM126.104 54.8398C126.491 54.8398 126.849 54.7607 127.177 54.6025C127.505 54.4443 127.774 54.2275 127.985 53.9521C128.196 53.6709 128.316 53.3516 128.346 52.9941H129.893C129.863 53.5566 129.673 54.0811 129.321 54.5674C128.976 55.0479 128.521 55.4375 127.959 55.7363C127.396 56.0293 126.778 56.1758 126.104 56.1758C125.39 56.1758 124.766 56.0498 124.232 55.7979C123.705 55.5459 123.266 55.2002 122.914 54.7607C122.568 54.3213 122.308 53.8174 122.132 53.249C121.962 52.6748 121.877 52.0684 121.877 51.4297V51.0605C121.877 50.4219 121.962 49.8184 122.132 49.25C122.308 48.6758 122.568 48.1689 122.914 47.7295C123.266 47.29 123.705 46.9443 124.232 46.6924C124.766 46.4404 125.39 46.3145 126.104 46.3145C126.849 46.3145 127.499 46.4668 128.056 46.7715C128.612 47.0703 129.049 47.4805 129.365 48.002C129.688 48.5176 129.863 49.1035 129.893 49.7598H128.346C128.316 49.3672 128.205 49.0127 128.012 48.6963C127.824 48.3799 127.566 48.1279 127.238 47.9404C126.916 47.7471 126.538 47.6504 126.104 47.6504C125.606 47.6504 125.188 47.75 124.848 47.9492C124.514 48.1426 124.247 48.4062 124.048 48.7402C123.854 49.0684 123.714 49.4346 123.626 49.8389C123.544 50.2373 123.503 50.6445 123.503 51.0605V51.4297C123.503 51.8457 123.544 52.2559 123.626 52.6602C123.708 53.0645 123.846 53.4307 124.039 53.7588C124.238 54.0869 124.505 54.3506 124.839 54.5498C125.179 54.7432 125.601 54.8398 126.104 54.8398ZM133.487 46.4902V56H131.853V46.4902H133.487ZM131.729 43.9678C131.729 43.7041 131.809 43.4814 131.967 43.2998C132.131 43.1182 132.371 43.0273 132.688 43.0273C132.998 43.0273 133.235 43.1182 133.399 43.2998C133.569 43.4814 133.654 43.7041 133.654 43.9678C133.654 44.2197 133.569 44.4365 133.399 44.6182C133.235 44.7939 132.998 44.8818 132.688 44.8818C132.371 44.8818 132.131 44.7939 131.967 44.6182C131.809 44.4365 131.729 44.2197 131.729 43.9678ZM141.705 54.374V49.4785C141.705 49.1035 141.629 48.7783 141.477 48.5029C141.33 48.2217 141.107 48.0049 140.809 47.8525C140.51 47.7002 140.141 47.624 139.701 47.624C139.291 47.624 138.931 47.6943 138.62 47.835C138.315 47.9756 138.075 48.1602 137.899 48.3887C137.729 48.6172 137.645 48.8633 137.645 49.127H136.019C136.019 48.7871 136.106 48.4502 136.282 48.1162C136.458 47.7822 136.71 47.4805 137.038 47.2109C137.372 46.9355 137.771 46.7188 138.233 46.5605C138.702 46.3965 139.224 46.3145 139.798 46.3145C140.489 46.3145 141.099 46.4316 141.626 46.666C142.159 46.9004 142.575 47.2549 142.874 47.7295C143.179 48.1982 143.331 48.7871 143.331 49.4961V53.9258C143.331 54.2422 143.357 54.5791 143.41 54.9365C143.469 55.2939 143.554 55.6016 143.665 55.8594V56H141.969C141.887 55.8125 141.822 55.5635 141.775 55.2529C141.729 54.9365 141.705 54.6436 141.705 54.374ZM141.986 50.2344L142.004 51.377H140.36C139.897 51.377 139.484 51.415 139.121 51.4912C138.758 51.5615 138.453 51.6699 138.207 51.8164C137.961 51.9629 137.773 52.1475 137.645 52.3701C137.516 52.5869 137.451 52.8418 137.451 53.1348C137.451 53.4336 137.519 53.7061 137.653 53.9521C137.788 54.1982 137.99 54.3945 138.26 54.541C138.535 54.6816 138.872 54.752 139.271 54.752C139.769 54.752 140.208 54.6465 140.589 54.4355C140.97 54.2246 141.271 53.9668 141.494 53.6621C141.723 53.3574 141.846 53.0615 141.863 52.7744L142.558 53.5566C142.517 53.8027 142.405 54.0752 142.224 54.374C142.042 54.6729 141.799 54.96 141.494 55.2354C141.195 55.5049 140.838 55.7305 140.422 55.9121C140.012 56.0879 139.549 56.1758 139.033 56.1758C138.389 56.1758 137.823 56.0498 137.337 55.7979C136.856 55.5459 136.481 55.209 136.212 54.7871C135.948 54.3594 135.816 53.8818 135.816 53.3545C135.816 52.8447 135.916 52.3965 136.115 52.0098C136.314 51.6172 136.602 51.292 136.977 51.0342C137.352 50.7705 137.803 50.5713 138.33 50.4365C138.857 50.3018 139.446 50.2344 140.097 50.2344H141.986ZM147.655 42.5V56H146.021V42.5H147.655ZM67.3584 73.7656C67.3584 73.4668 67.3115 73.2031 67.2178 72.9746C67.1299 72.7402 66.9717 72.5293 66.7432 72.3418C66.5205 72.1543 66.21 71.9756 65.8115 71.8057C65.4189 71.6357 64.9209 71.4629 64.3174 71.2871C63.6846 71.0996 63.1133 70.8916 62.6035 70.6631C62.0938 70.4287 61.6572 70.1621 61.2939 69.8633C60.9307 69.5645 60.6523 69.2217 60.459 68.835C60.2656 68.4482 60.1689 68.0059 60.1689 67.5078C60.1689 67.0098 60.2715 66.5498 60.4766 66.1279C60.6816 65.7061 60.9746 65.3398 61.3555 65.0293C61.7422 64.7129 62.2021 64.4668 62.7354 64.291C63.2686 64.1152 63.8633 64.0273 64.5195 64.0273C65.4805 64.0273 66.2949 64.2119 66.9629 64.5811C67.6367 64.9443 68.1494 65.4219 68.501 66.0137C68.8525 66.5996 69.0283 67.2266 69.0283 67.8945H67.3408C67.3408 67.4141 67.2383 66.9893 67.0332 66.6201C66.8281 66.2451 66.5176 65.9521 66.1016 65.7412C65.6855 65.5244 65.1582 65.416 64.5195 65.416C63.916 65.416 63.418 65.5068 63.0254 65.6885C62.6328 65.8701 62.3398 66.1162 62.1465 66.4268C61.959 66.7373 61.8652 67.0918 61.8652 67.4902C61.8652 67.7598 61.9209 68.0059 62.0322 68.2285C62.1494 68.4453 62.3281 68.6475 62.5684 68.835C62.8145 69.0225 63.125 69.1953 63.5 69.3535C63.8809 69.5117 64.335 69.6641 64.8623 69.8105C65.5889 70.0156 66.2158 70.2441 66.7432 70.4961C67.2705 70.748 67.7041 71.0322 68.0439 71.3486C68.3896 71.6592 68.6445 72.0137 68.8086 72.4121C68.9785 72.8047 69.0635 73.25 69.0635 73.748C69.0635 74.2695 68.958 74.7412 68.7471 75.1631C68.5361 75.585 68.2344 75.9453 67.8418 76.2441C67.4492 76.543 66.9775 76.7744 66.4268 76.9385C65.8818 77.0967 65.2725 77.1758 64.5986 77.1758C64.0068 77.1758 63.4238 77.0938 62.8496 76.9297C62.2812 76.7656 61.7627 76.5195 61.2939 76.1914C60.8311 75.8633 60.459 75.459 60.1777 74.9785C59.9023 74.4922 59.7646 73.9297 59.7646 73.291H61.4521C61.4521 73.7305 61.5371 74.1084 61.707 74.4248C61.877 74.7354 62.1084 74.9932 62.4014 75.1982C62.7002 75.4033 63.0371 75.5557 63.4121 75.6553C63.793 75.749 64.1885 75.7959 64.5986 75.7959C65.1904 75.7959 65.6914 75.7139 66.1016 75.5498C66.5117 75.3857 66.8223 75.1514 67.0332 74.8467C67.25 74.542 67.3584 74.1816 67.3584 73.7656ZM70.5488 72.3506V72.1484C70.5488 71.4629 70.6484 70.8271 70.8477 70.2412C71.0469 69.6494 71.334 69.1367 71.709 68.7031C72.084 68.2637 72.5381 67.9238 73.0713 67.6836C73.6045 67.4375 74.2021 67.3145 74.8643 67.3145C75.5322 67.3145 76.1328 67.4375 76.666 67.6836C77.2051 67.9238 77.6621 68.2637 78.0371 68.7031C78.418 69.1367 78.708 69.6494 78.9072 70.2412C79.1064 70.8271 79.2061 71.4629 79.2061 72.1484V72.3506C79.2061 73.0361 79.1064 73.6719 78.9072 74.2578C78.708 74.8438 78.418 75.3564 78.0371 75.7959C77.6621 76.2295 77.208 76.5693 76.6748 76.8154C76.1475 77.0557 75.5498 77.1758 74.8818 77.1758C74.2139 77.1758 73.6133 77.0557 73.0801 76.8154C72.5469 76.5693 72.0898 76.2295 71.709 75.7959C71.334 75.3564 71.0469 74.8438 70.8477 74.2578C70.6484 73.6719 70.5488 73.0361 70.5488 72.3506ZM72.1748 72.1484V72.3506C72.1748 72.8252 72.2305 73.2734 72.3418 73.6953C72.4531 74.1113 72.6201 74.4805 72.8428 74.8027C73.0713 75.125 73.3555 75.3799 73.6953 75.5674C74.0352 75.749 74.4307 75.8398 74.8818 75.8398C75.3271 75.8398 75.7168 75.749 76.0508 75.5674C76.3906 75.3799 76.6719 75.125 76.8945 74.8027C77.1172 74.4805 77.2842 74.1113 77.3955 73.6953C77.5127 73.2734 77.5713 72.8252 77.5713 72.3506V72.1484C77.5713 71.6797 77.5127 71.2373 77.3955 70.8213C77.2842 70.3994 77.1143 70.0273 76.8857 69.7051C76.6631 69.377 76.3818 69.1191 76.042 68.9316C75.708 68.7441 75.3154 68.6504 74.8643 68.6504C74.4189 68.6504 74.0264 68.7441 73.6865 68.9316C73.3525 69.1191 73.0713 69.377 72.8428 69.7051C72.6201 70.0273 72.4531 70.3994 72.3418 70.8213C72.2305 71.2373 72.1748 71.6797 72.1748 72.1484ZM83.6709 77H82.0449V66.4883C82.0449 65.8027 82.168 65.2256 82.4141 64.7568C82.666 64.2822 83.0264 63.9248 83.4951 63.6846C83.9639 63.4385 84.5205 63.3154 85.165 63.3154C85.3525 63.3154 85.54 63.3271 85.7275 63.3506C85.9209 63.374 86.1084 63.4092 86.29 63.4561L86.2021 64.7832C86.0791 64.7539 85.9385 64.7334 85.7803 64.7217C85.6279 64.71 85.4756 64.7041 85.3232 64.7041C84.9775 64.7041 84.6787 64.7744 84.4268 64.915C84.1807 65.0498 83.9932 65.249 83.8643 65.5127C83.7354 65.7764 83.6709 66.1016 83.6709 66.4883V77ZM85.6924 67.4902V68.7383H80.542V67.4902H85.6924ZM91.4844 67.4902V68.7383H86.3428V67.4902H91.4844ZM88.083 65.1787H89.709V74.6445C89.709 74.9668 89.7588 75.21 89.8584 75.374C89.958 75.5381 90.0869 75.6465 90.2451 75.6992C90.4033 75.752 90.5732 75.7783 90.7549 75.7783C90.8896 75.7783 91.0303 75.7666 91.1768 75.7432C91.3291 75.7139 91.4434 75.6904 91.5195 75.6729L91.5283 77C91.3994 77.041 91.2295 77.0791 91.0186 77.1143C90.8135 77.1553 90.5645 77.1758 90.2715 77.1758C89.873 77.1758 89.5068 77.0967 89.1729 76.9385C88.8389 76.7803 88.5723 76.5166 88.373 76.1475C88.1797 75.7725 88.083 75.2686 88.083 74.6357V65.1787ZM95.7998 75.3125L98.2432 67.4902H99.3154L99.1045 69.0459L96.6172 77H95.5713L95.7998 75.3125ZM94.1562 67.4902L96.2393 75.4004L96.3887 77H95.29L92.5303 67.4902H94.1562ZM101.653 75.3389L103.64 67.4902H105.257L102.497 77H101.407L101.653 75.3389ZM99.5527 67.4902L101.943 75.1807L102.216 77H101.179L98.6211 69.0283L98.4102 67.4902H99.5527ZM112.534 75.374V70.4785C112.534 70.1035 112.458 69.7783 112.306 69.5029C112.159 69.2217 111.937 69.0049 111.638 68.8525C111.339 68.7002 110.97 68.624 110.53 68.624C110.12 68.624 109.76 68.6943 109.449 68.835C109.145 68.9756 108.904 69.1602 108.729 69.3887C108.559 69.6172 108.474 69.8633 108.474 70.127H106.848C106.848 69.7871 106.936 69.4502 107.111 69.1162C107.287 68.7822 107.539 68.4805 107.867 68.2109C108.201 67.9355 108.6 67.7188 109.062 67.5605C109.531 67.3965 110.053 67.3145 110.627 67.3145C111.318 67.3145 111.928 67.4316 112.455 67.666C112.988 67.9004 113.404 68.2549 113.703 68.7295C114.008 69.1982 114.16 69.7871 114.16 70.4961V74.9258C114.16 75.2422 114.187 75.5791 114.239 75.9365C114.298 76.2939 114.383 76.6016 114.494 76.8594V77H112.798C112.716 76.8125 112.651 76.5635 112.604 76.2529C112.558 75.9365 112.534 75.6436 112.534 75.374ZM112.815 71.2344L112.833 72.377H111.189C110.727 72.377 110.313 72.415 109.95 72.4912C109.587 72.5615 109.282 72.6699 109.036 72.8164C108.79 72.9629 108.603 73.1475 108.474 73.3701C108.345 73.5869 108.28 73.8418 108.28 74.1348C108.28 74.4336 108.348 74.7061 108.482 74.9521C108.617 75.1982 108.819 75.3945 109.089 75.541C109.364 75.6816 109.701 75.752 110.1 75.752C110.598 75.752 111.037 75.6465 111.418 75.4355C111.799 75.2246 112.101 74.9668 112.323 74.6621C112.552 74.3574 112.675 74.0615 112.692 73.7744L113.387 74.5566C113.346 74.8027 113.234 75.0752 113.053 75.374C112.871 75.6729 112.628 75.96 112.323 76.2354C112.024 76.5049 111.667 76.7305 111.251 76.9121C110.841 77.0879 110.378 77.1758 109.862 77.1758C109.218 77.1758 108.652 77.0498 108.166 76.7979C107.686 76.5459 107.311 76.209 107.041 75.7871C106.777 75.3594 106.646 74.8818 106.646 74.3545C106.646 73.8447 106.745 73.3965 106.944 73.0098C107.144 72.6172 107.431 72.292 107.806 72.0342C108.181 71.7705 108.632 71.5713 109.159 71.4365C109.687 71.3018 110.275 71.2344 110.926 71.2344H112.815ZM118.344 68.9844V77H116.718V67.4902H118.3L118.344 68.9844ZM121.314 67.4375L121.306 68.9492C121.171 68.9199 121.042 68.9023 120.919 68.8965C120.802 68.8848 120.667 68.8789 120.515 68.8789C120.14 68.8789 119.809 68.9375 119.521 69.0547C119.234 69.1719 118.991 69.3359 118.792 69.5469C118.593 69.7578 118.435 70.0098 118.317 70.3027C118.206 70.5898 118.133 70.9062 118.098 71.252L117.641 71.5156C117.641 70.9414 117.696 70.4023 117.808 69.8984C117.925 69.3945 118.104 68.9492 118.344 68.5625C118.584 68.1699 118.889 67.8652 119.258 67.6484C119.633 67.4258 120.078 67.3145 120.594 67.3145C120.711 67.3145 120.846 67.3291 120.998 67.3584C121.15 67.3818 121.256 67.4082 121.314 67.4375ZM126.588 77.1758C125.926 77.1758 125.325 77.0645 124.786 76.8418C124.253 76.6133 123.793 76.2939 123.406 75.8838C123.025 75.4736 122.732 74.9873 122.527 74.4248C122.322 73.8623 122.22 73.2471 122.22 72.5791V72.21C122.22 71.4365 122.334 70.748 122.562 70.1445C122.791 69.5352 123.102 69.0195 123.494 68.5977C123.887 68.1758 124.332 67.8564 124.83 67.6396C125.328 67.4229 125.844 67.3145 126.377 67.3145C127.057 67.3145 127.643 67.4316 128.135 67.666C128.633 67.9004 129.04 68.2285 129.356 68.6504C129.673 69.0664 129.907 69.5586 130.06 70.127C130.212 70.6895 130.288 71.3047 130.288 71.9727V72.7021H123.187V71.375H128.662V71.252C128.639 70.8301 128.551 70.4199 128.398 70.0215C128.252 69.623 128.018 69.2949 127.695 69.0371C127.373 68.7793 126.934 68.6504 126.377 68.6504C126.008 68.6504 125.668 68.7295 125.357 68.8877C125.047 69.04 124.78 69.2686 124.558 69.5732C124.335 69.8779 124.162 70.25 124.039 70.6895C123.916 71.1289 123.854 71.6357 123.854 72.21V72.5791C123.854 73.0303 123.916 73.4551 124.039 73.8535C124.168 74.2461 124.353 74.5918 124.593 74.8906C124.839 75.1895 125.135 75.4238 125.48 75.5938C125.832 75.7637 126.23 75.8486 126.676 75.8486C127.25 75.8486 127.736 75.7314 128.135 75.4971C128.533 75.2627 128.882 74.9492 129.181 74.5566L130.165 75.3389C129.96 75.6494 129.699 75.9453 129.383 76.2266C129.066 76.5078 128.677 76.7363 128.214 76.9121C127.757 77.0879 127.215 77.1758 126.588 77.1758Z" fill="black"/>
</svg>
