<?xml version="1.0" encoding="UTF-8"?><svg id="Layer_1" xmlns="http://www.w3.org/2000/svg" viewBox="0 0 150 32.75"><defs><style>.cls-1{fill:none;}.cls-2{fill:#183835;}</style></defs><rect class="cls-1" width="150" height="32.75"/><path class="cls-2" d="M9.75,6.75h2.81v13.96c0,3.54-2.18,5.64-5.3,5.64-2.6,0-4.78-1.69-5.3-4.21h2.89c.44,1.17,1.22,1.64,2.44,1.64,1.59,0,2.47-1.22,2.47-2.99V6.75Z"/><path class="cls-2" d="M22.23,26.36c-4.06,0-7.67-3.46-7.67-7.51,0-4.39,3.46-7.64,7.88-7.64,3.98,0,7.72,3.12,7.67,7.7-.05,3.85-3.28,7.46-7.88,7.46ZM22.31,13.67c-2.7,0-5.04,2.29-5.04,5.1s2.26,5.12,4.99,5.12,5.15-2.24,5.15-5.15-2.26-5.07-5.1-5.07Z"/><path class="cls-2" d="M42.36,25.99v-1.56h-.05c-.7,1.22-2.34,1.92-4.24,1.92-3.09,0-6.01-1.66-6.01-6.73v-8.03h2.7v7.83c0,3.02,1.12,4.47,3.59,4.47s3.77-1.74,3.77-4.52v-7.77h2.7v14.4h-2.47Z"/><path class="cls-2" d="M47.79,25.99v-14.4h2.52v1.3h.05c.65-.96,1.77-1.59,3.67-1.69v2.78c-2.34.08-3.54,1.51-3.54,3.93v8.09h-2.7Z"/><path class="cls-2" d="M66.2,25.99v-7.85c0-3.04-1.2-4.47-3.59-4.47s-3.8,1.74-3.8,4.45v7.88h-2.7v-14.4h2.52v1.53h.05c1.07-1.38,2.55-1.92,4.21-1.92,3.46,0,6.01,2.18,6.01,6.16v8.63h-2.7Z"/><path class="cls-2" d="M78.76,26.36c-4.06,0-7.67-3.46-7.67-7.51,0-4.39,3.46-7.64,7.88-7.64,3.98,0,7.72,3.12,7.67,7.7-.05,3.85-3.28,7.46-7.88,7.46ZM78.84,13.67c-2.71,0-5.05,2.29-5.05,5.1s2.26,5.12,4.99,5.12,5.15-2.24,5.15-5.15-2.26-5.07-5.1-5.07Z"/><path class="cls-2" d="M88.9,25.99V6.75h1.82v7.51h.05c1.22-1.74,3.25-2.86,5.54-2.86,4.16,0,7.64,3.17,7.64,7.44s-3.33,7.49-7.64,7.49c-2.21,0-4.26-.99-5.54-2.83h-.05v2.5h-1.82ZM96.28,13.05c-3.12,0-5.67,2.63-5.67,5.85s2.5,5.8,5.69,5.8c3.38,0,5.82-2.52,5.82-5.77s-2.47-5.88-5.85-5.88Z"/><path class="cls-2" d="M118.67,25.99v-2.5h-.05c-1.17,1.77-3.22,2.83-5.54,2.83-4.26,0-7.64-3.22-7.64-7.49s3.48-7.44,7.64-7.44c2.37,0,4.39,1.07,5.54,2.86h.05v-2.5h1.82v14.22h-1.82ZM118.77,18.9c0-3.17-2.5-5.85-5.72-5.85s-5.8,2.5-5.8,5.88,2.47,5.77,5.82,5.77c3.17,0,5.69-2.6,5.69-5.8Z"/><path class="cls-2" d="M128.73,15.28c-.1-1.38-.96-2.24-2.13-2.24s-2.16.91-2.16,2.13c0,1.04.73,1.77,2.47,2.34,3.46,1.14,4.13,2.52,4.13,4.55,0,2.6-1.74,4.26-4.47,4.26-2.44,0-4.37-1.74-4.37-4.45v-.1h1.82c.03,1.9,1.01,2.91,2.55,2.91,1.64,0,2.65-.91,2.65-2.55,0-1.38-.88-2.13-2.52-2.73-2.5-.91-4.08-1.61-4.08-4.06,0-2.29,1.72-3.95,4.06-3.95,2.13,0,3.88,1.61,3.88,3.87h-1.82Z"/><path class="cls-2" d="M134.01,19.55c.16,2.83,2.76,5.15,5.51,5.15,2.21,0,4.32-1.27,5.1-3.35h1.92c-1.09,3.07-3.95,4.99-6.99,4.99-4.03,0-7.41-3.28-7.41-7.44s3.41-7.49,7.38-7.49c4.26,0,7.46,3.67,7.46,7.59,0,.18-.03.36-.03.55h-12.95ZM145.11,17.91c-.52-2.86-2.78-4.86-5.59-4.86-2.65,0-5.02,1.92-5.51,4.86h11.1Z"/></svg>