<svg width="328" height="252" viewBox="0 0 328 252" fill="none" xmlns="http://www.w3.org/2000/svg">
<path fill-rule="evenodd" clip-rule="evenodd" d="M102.321 114.554C103.499 126.6 104.715 138.647 105.893 150.694C112.391 146.97 118.89 143.283 125.388 139.559V174.217C125.388 174.863 125.008 177.029 125.388 177.599C125.692 178.055 128.086 178.093 128.656 178.169C132.342 178.701 136.029 179.157 139.715 179.537C149.443 180.601 159.818 182.159 169.584 180.905C178.059 179.841 186.267 176.801 194.02 173.305C196.756 172.089 199.416 170.759 202.038 169.353C202.608 169.049 204.622 168.365 204.926 167.757C205.192 167.263 204.584 165.514 204.508 164.982C204.166 162.778 203.862 160.574 203.52 158.37L198.96 127.627L207.586 136.253C208.27 136.937 209.562 138.837 210.474 139.141C211.158 139.369 212.869 138.685 213.553 138.533C218.455 137.583 223.319 136.633 228.221 135.721C229.361 135.493 231.945 135.493 232.896 134.809C233.428 134.429 233.428 133.669 233.618 132.985C234.796 128.311 236.012 123.636 237.19 118.962C237.418 118.126 238.596 115.466 238.292 114.63C238.178 114.326 237.646 114.136 237.342 113.908C229.969 109.386 222.597 104.901 215.187 100.379C211.158 97.909 207.092 95.4389 203.064 92.9687C201.354 91.9427 199.302 90.0806 197.364 89.4725C196.186 89.1305 194.438 89.3965 193.222 89.3585L185.697 89.1305C185.317 89.1305 183.949 88.8265 183.607 89.0545C183.341 89.2445 183.455 89.5106 183.341 89.9666C183.169 91.1128 183.055 92.267 182.999 93.4247C182.923 94.3368 183.075 96.0089 182.657 96.8449C182.391 97.377 182.733 97.1489 182.391 97.415C181.973 97.719 180.605 97.605 180.111 97.681C177.641 97.985 175.209 98.251 172.738 98.555C169.812 98.897 166.886 99.5431 163.922 99.2391C159.476 98.783 154.688 98.821 150.317 97.871C149.177 97.643 148.759 96.9969 147.885 96.1229C146.175 94.4128 144.503 92.7027 142.755 90.9926C141.919 90.1566 142.261 90.3086 141.387 90.6126C140.285 90.9926 139.183 91.9427 138.195 92.5507C134.394 94.8688 130.594 97.1869 126.832 99.4671L103.689 113.566C103.265 113.937 102.807 114.268 102.321 114.554Z" fill="#DDF1E6"/>
<path fill-rule="evenodd" clip-rule="evenodd" d="M323.72 116.026C318.932 134.153 309.356 153.914 290.013 159.652C285.3 161.058 280.74 162.122 275.838 161.59C275.407 161.565 274.975 161.577 274.546 161.628C273.748 161.628 274.432 161.932 273.558 161.666C272.874 161.438 272.228 160.906 271.506 160.678C269.606 160.032 267.554 159.918 265.577 159.424C260.715 158.164 255.92 156.655 251.213 154.902C249.009 154.104 247.032 152.964 244.98 151.9C242.89 150.798 240.686 150.114 238.558 149.087C236.886 148.289 234.036 147.263 232.858 145.743C231.604 144.147 233.352 140.727 233.846 139.055C235.518 133.279 237.532 127.578 238.786 121.688C243.156 126.742 249.237 129.896 255.507 131.911C258.915 133.008 262.411 133.809 265.957 134.305C269.188 134.761 272.646 135.293 275.876 134.647C278.308 134.153 281.348 133.051 283.096 131.189C283.704 130.542 284.464 129.326 284.122 128.338C283.666 127.122 282.412 127.692 281.69 126.78C281.082 125.982 281.196 124.12 280.968 123.17C280.628 121.468 280.171 119.792 279.6 118.154C278.498 114.962 277.092 111.732 276.788 108.349C276.502 105.447 277.154 102.53 278.65 100.027C279.334 98.8108 281.082 95.5047 282.792 95.6567C284.654 95.8087 282.146 103.713 282.07 105.309C281.728 111.694 282.602 118.534 285.87 124.12C287.125 126.248 288.949 128.756 291.609 129.022C294.459 129.288 296.739 127.084 298.107 124.804C301.413 119.294 299.741 111.732 298.069 105.917C296.017 98.8108 290.659 93.9466 287.277 87.5623C292.331 88.0563 295.029 91.2865 297.613 95.3527C300.541 99.9781 302.625 105.086 303.769 110.439C304.339 113.062 303.959 115.722 303.959 118.382C303.959 119.256 303.959 122.524 305.403 122.41C306.962 122.258 307.456 118.61 307.684 117.47C308.216 114.886 308.748 112.34 309.204 109.717C310.002 105.157 310.344 100.445 311.294 95.9227C311.446 95.1627 311.788 93.0345 312.928 93.6046C313.802 94.0606 313.688 97.3288 313.688 98.1268C313.764 100.027 313.878 101.889 313.878 103.789C313.916 106.601 313.346 109.489 313.612 112.264C313.802 114.088 314.752 116.102 315.968 113.632C317.184 111.199 317.412 108.159 318.096 105.537C318.818 102.801 319.54 99.9889 321.022 97.5568C321.44 96.8727 321.896 95.8087 322.808 96.1127C323.492 96.3407 323.986 97.9368 324.176 98.4688C325.126 100.977 324.936 103.789 324.898 106.449C324.929 109.679 324.532 112.899 323.72 116.026ZM230.692 120.738C230.165 120.637 229.631 120.574 229.096 120.548C228.792 120.51 229.134 119.94 228.373 120.092C228.439 120.267 228.545 120.425 228.684 120.55C228.823 120.676 228.99 120.766 229.172 120.814C228.031 121.194 227.195 120.244 226.397 120.13C225.637 120.016 225.599 120.13 224.877 120.928C224.079 119.94 224.231 120.548 223.585 120.548C223.357 120.548 223.319 120.928 222.939 120.852C222.597 120.814 222.559 120.282 222.369 120.244C221.267 119.902 220.165 121.574 218.911 120.13C218.607 121.65 215.149 119.75 213.857 120.016C212.451 120.282 213.059 120.776 211.957 119.94C210.893 119.142 211.197 119.674 209.943 120.32C209.981 120.32 209.258 120.814 209.297 120.814C208.422 120.7 208.498 119.826 207.396 119.864C206.256 119.902 205.762 120.814 204.698 119.712C204.47 120.548 204.432 120.168 203.862 120.396C203.721 120.436 203.572 120.435 203.431 120.395C203.29 120.355 203.163 120.276 203.064 120.168C203.036 120.274 202.979 120.37 202.898 120.444C202.817 120.518 202.716 120.568 202.608 120.586C202 120.624 200.898 120.738 200.366 120.434C199.568 120.016 200.214 119.826 199.644 119.37C199.378 120.7 198.846 120.396 197.706 120.548C196.832 120.624 196.642 120.358 195.806 120.244C194.97 120.13 193.906 120.434 193.108 120.586C192.766 120.624 192.31 120.89 192.006 120.776C191.702 120.7 191.55 120.472 191.398 120.396C191.17 120.32 191.208 120.13 190.828 120.016C190.562 119.94 190.106 120.206 189.839 120.244C187.939 120.548 186.153 120.548 184.367 119.826C185.241 121.384 182.315 120.548 181.783 119.902C181.137 120.928 180.339 120.206 179.009 120.282C177.717 120.358 175.817 120.738 175.285 119.142C175.014 119.679 174.64 120.157 174.183 120.548C173.347 120.966 173.233 120.358 172.473 120.092C171.409 119.75 171.637 120.396 170.991 120.548C169.888 120.776 169.28 119.978 168.292 119.56C168.254 120.206 168.216 120.586 167.684 121.004C167.19 119.218 165.442 121.156 165.746 118.762C165.062 119.18 164.112 119.522 163.922 120.434C165.062 120.13 164.036 120.852 163.998 120.89C163.846 120.966 163.352 120.282 163.238 120.168C163.194 120.496 163.168 120.825 163.162 121.156C162.739 120.904 162.333 120.625 161.946 120.32C161.604 120.13 162.098 119.75 161.528 119.75C161.224 119.75 160.92 120.358 160.616 120.434C160.16 120.51 160.388 119.864 160.16 119.864C159.856 119.902 159.362 120.32 159.134 120.32C158.412 120.282 158.906 119.94 158.336 119.788C157.31 119.522 157.386 120.168 156.664 120.396C154.992 120.928 155.182 118.42 153.472 120.092C153.054 120.51 152.826 121.118 152.256 121.08C151.115 121.004 151.496 119.636 151.762 118.99C151.99 119.104 147.581 121.384 147.619 121.308C147.657 120.776 148.341 120.358 147.733 119.864C147.239 120.966 146.707 120.966 145.529 121.194C144.959 121.308 144.845 121.422 144.237 121.194C143.857 121.042 143.591 120.434 143.211 120.396C142.969 120.613 142.716 120.816 142.451 121.004C141.805 121.308 141.425 120.966 140.779 121.08C140.247 121.194 140.057 121.65 139.525 121.498C138.803 121.346 139.221 120.51 138.271 120.738C137.929 120.814 137.739 121.46 137.207 121.574C136.409 121.764 135.383 121.384 134.547 121.612C133.96 121.751 133.362 121.84 132.761 121.878C132.267 121.916 132.495 121.536 131.582 121.954L131.202 121.004C130.746 121.422 130.328 121.802 129.872 122.22C129.782 121.859 129.731 121.49 129.72 121.118C129.074 121.764 128.238 121.878 127.326 121.954C126.443 122.051 125.568 122.203 124.704 122.41C124.4 122.448 123.64 122.562 123.412 122.448C123.45 122.448 122.956 122.258 123.108 122.296C123.032 122.182 122.994 122.03 122.918 121.916C122.842 121.536 122.576 121.536 122.12 121.878C121.892 121.84 121.436 121.536 121.208 121.612C120.6 121.802 120.676 122.296 120.068 122.22C119.688 122.182 119.46 121.612 119.08 121.574C118.472 121.498 117.902 122.22 117.37 122.372C119.08 121.916 115.166 122.258 116.382 122.296C115.584 122.258 114.748 122.22 114.026 122.6C113.608 122.334 114.102 121.764 113.684 121.536C113.304 121.308 113.266 121.878 113.228 121.878C113.456 121.802 113.342 122.296 113.114 122.372C112.391 122.638 111.783 121.954 111.745 121.308C111.137 122.258 110.947 121.878 110.035 121.916C109.123 121.992 108.363 122.448 107.451 122.448C105.665 122.448 104.449 121.802 103.841 120.206C105.741 120.434 107.679 119.218 109.541 119.484C110.149 119.598 110.529 120.054 111.061 119.94C111.707 119.826 112.201 119.104 113.038 119.028C114.9 118.838 116.762 119.028 118.662 118.724C120.934 118.35 123.24 118.223 125.54 118.344C127.288 118.458 128.732 117.812 130.518 117.66C132.837 117.508 135.155 117.47 137.473 117.356C139.829 117.242 142.413 116.862 144.769 116.976C145.464 117.039 146.162 117.064 146.859 117.052C147.163 117.052 147.467 116.824 147.771 116.862C148.189 116.9 148.379 117.318 148.835 117.318C149.595 117.28 150.393 116.672 151.267 116.672C152.712 116.634 154.194 116.634 155.638 116.558C156.93 116.482 158.298 116.178 159.59 116.216C160.502 116.216 160.73 117.014 161.262 117.09C162.212 117.242 167 114.506 167.418 116.938C169.926 115.228 173.271 116.672 176.045 116.368C179.617 115.95 183.265 116.33 186.837 116.178C190.527 116.045 194.221 116.159 197.896 116.52C199.384 116.697 200.883 116.76 202.38 116.71C203.064 116.672 203.824 116.482 204.508 116.672C204.66 116.71 205.914 117.584 205.762 117.622C206.446 117.014 205.99 116.9 207.168 116.9C208.08 116.862 208.954 117.09 209.905 117.128C211.577 117.242 213.211 117.014 214.883 117.052C216.251 117.09 217.619 117.28 218.987 117.318C220.469 117.318 222.255 117.356 223.319 118.572L222.977 117.432C224.649 117.546 226.283 118.154 227.993 117.888C227.575 118.306 227.119 118.648 226.967 119.218C227.879 119.104 228.487 118.458 229.438 118.458C230.236 118.458 230.426 118.838 231.262 118.344C231.376 118.99 231.452 119.636 231.566 120.244C232.744 119.978 231.984 119.104 232.06 118.306C233.01 118.61 233.808 118.268 233.466 119.636C233.01 120.548 231.68 121.042 230.692 120.738ZM229.02 132.557C228.602 133.697 225.067 133.051 224.231 132.937C223.129 132.785 221.913 132.519 220.925 132.405C220.805 132.247 220.665 132.106 220.507 131.987C220.397 132.172 220.22 132.308 220.013 132.367C219.557 132.481 219.557 132.937 218.949 132.823C218.911 133.507 219.405 133.127 219.785 133.393C218.835 134.039 219.291 133.279 218.759 133.317C218.706 133.227 218.626 133.156 218.531 133.115C218.435 133.074 218.328 133.065 218.227 133.089C217.926 133.16 217.642 133.289 217.391 133.469C217.163 133.735 216.973 133.735 216.783 133.507C216.63 133.348 216.43 133.241 216.213 133.203C215.301 133.355 215.035 133.773 213.971 133.697C212.489 133.583 210.893 134.001 209.411 133.773C208.498 133.659 206.978 132.215 206.56 133.621C205.914 132.595 204.926 131.873 204.318 130.847C207.13 130.694 209.905 130.504 212.717 130.39C215.187 130.314 217.847 130.58 220.127 130.466C222.255 130.352 224.535 130.124 226.739 129.934C229.096 129.706 229.856 130.2 229.02 132.557ZM156.056 132.709C157.082 132.975 158.032 132.367 159.02 132.557C159.362 132.633 160.008 133.203 160.16 133.241C160.426 133.279 161.224 132.671 161.566 132.595C163.858 132.145 166.211 132.094 168.52 132.443C169.66 132.595 169.85 132.063 170.839 131.835C171.865 131.569 173.347 131.759 174.449 131.683C177.033 131.493 179.617 131.645 182.163 131.455C184.785 131.265 187.407 131.151 190.029 131.037C191.816 130.961 196.11 129.934 197.592 131.265C198.808 132.367 197.25 134.267 196.034 134.685C195.122 135.027 194.666 134.343 194.02 134.381C193.26 134.457 193.526 135.369 192.842 134.533C192.424 135.369 189.725 135.027 188.965 135.065C187.293 135.179 185.849 135.521 184.709 133.963C184.785 134.419 184.861 134.875 184.937 135.331C183.417 134.533 181.783 134.799 180.491 135.065C179.845 135.217 177.831 136.167 177.147 135.749C176.653 135.445 177.527 134.989 176.691 134.723C176.273 134.609 175.513 135.293 174.981 135.255C173.537 135.141 173.955 134.191 172.511 135.407C172.282 135.183 172.111 134.907 172.011 134.603C171.912 134.298 171.888 133.974 171.941 133.659C170.915 134.533 170.991 136.015 169.128 135.749C168.444 135.635 168.292 134.951 167.95 134.799C167.19 134.533 167.114 135.027 166.43 135.407C166.176 135.591 165.894 135.732 165.594 135.825C164.986 135.901 164.91 135.597 164.796 135.635C164.378 135.673 163.884 135.901 163.39 135.749C162.972 135.635 162.82 134.875 162.06 135.027C161.338 135.179 161.338 135.673 161.452 136.433C160.73 136.357 160.312 135.977 159.78 135.521C159.248 136.775 158.108 135.749 157.462 136.813C156.626 135.825 156.132 136.091 155.106 135.141C155.144 135.521 155.22 135.939 155.258 136.319C154.46 136.167 154.118 135.597 153.434 136.357C152.788 135.141 150.773 136.889 149.747 135.711C149.291 137.193 146.289 136.851 144.997 136.889C143.857 136.927 143.021 136.813 141.919 137.079C140.864 137.351 139.778 137.478 138.689 137.459C138.024 137.341 137.348 137.302 136.675 137.345C135.611 137.459 134.661 138.029 133.559 137.763C131.886 137.383 130.86 135.179 132.723 134.191C134.015 133.545 136.295 133.773 137.701 133.659C140.019 133.469 142.641 133.013 144.997 133.241C146.821 133.393 148.493 132.975 150.317 132.785C151.724 132.633 154.004 132.405 154.916 133.773C155.334 133.355 155.296 132.519 156.056 132.709ZM130.518 151.672C130.252 150.418 140.931 149.733 141.995 149.657C144.199 149.467 146.441 149.353 148.683 149.315C150.507 149.277 152.218 149.619 154.042 149.353C155.752 149.087 157.804 148.555 159.286 149.771C159.514 148.099 165.936 148.935 167.152 148.935C172.473 148.973 177.565 148.973 182.695 148.631C185.621 148.441 188.737 148.175 191.702 148.327C193.032 148.403 194.096 148.745 195.426 148.441C196.3 148.251 197.212 147.833 198.048 148.403C198.998 149.087 199.416 151.444 198.77 152.394C198.276 153.116 197.858 153.04 197.098 152.888C195.92 152.698 195.046 152.432 193.83 152.926C193.584 152.951 193.342 153.002 193.108 153.078C191.74 153.192 189.877 154.142 188.699 153.04C189.155 153.116 189.877 152.28 189.269 152.204C188.813 152.166 188.547 152.622 188.205 152.774C187.027 153.306 186.381 153.154 185.697 152.014C184.253 153.268 184.101 152.926 183.455 151.368C182.961 151.748 182.847 152.622 182.467 152.926C182.429 152.964 182.657 153.496 182.353 153.496C182.087 153.458 182.011 153.04 181.821 153.04C181.707 153.002 181.631 152.66 181.517 152.622C181.403 152.584 181.251 152.85 181.099 152.812C180.719 152.812 179.579 153.648 179.997 152.47C179.389 153.23 179.123 152.736 178.933 152.052C178.249 152.584 177.565 153.116 176.843 153.61C176.539 152.698 175.969 152.964 175.285 153.268C175.513 152.66 175.361 152.052 174.829 152.508C174.525 152.774 174.335 153.534 173.993 153.876C172.739 152.584 172.283 152.964 170.534 153.116C169.85 153.192 169.052 153.306 168.444 152.888C167.912 152.546 167.608 151.254 166.734 152.28C166.924 152.052 166.62 153.838 166.582 154.104C166.198 153.834 165.864 153.5 165.594 153.116C165.062 154.142 163.732 153.23 162.63 153.42C160.882 153.762 159.096 154.294 157.538 153.002C157.424 153.42 156.17 153.952 156.17 153.952C156.246 153.192 156.702 153.458 155.752 153.344C155.562 153.306 155.372 153.648 155.22 153.686C154.613 153.743 154.002 153.743 153.396 153.686C151.001 153.61 148.835 154.142 146.479 154.332C145.681 154.408 144.731 154.522 144.009 154.218C143.249 153.914 143.249 153.572 142.489 153.762C142.717 153.686 141.995 154.484 142.033 154.446C141.919 154.522 141.501 154.142 141.349 154.18C141.316 154.349 141.265 154.515 141.197 154.674C141.007 154.636 140.817 154.636 140.627 154.598C140.133 154.674 139.639 154.142 139.183 154.142C139.259 154.142 137.891 154.674 137.929 154.712C136.941 154.218 137.245 154.37 135.991 154.674C134.813 154.94 133.673 154.902 132.495 155.054C128.884 155.548 130.936 153.8 130.518 151.672ZM127.478 169.038C126.832 168.126 128.58 167.784 129.112 167.708C130.024 167.556 131.24 167.822 131.848 167.708C132.761 167.48 133.673 166.948 134.699 166.834C136.029 166.644 137.321 166.644 138.651 166.53C139.115 166.444 139.585 166.393 140.057 166.378C140.703 166.416 140.969 166.758 141.463 166.758C142.337 166.758 143.439 166.226 144.313 166.112C145.453 165.998 146.631 165.922 147.771 165.846C150.203 165.732 152.598 165.77 155.068 165.77C156.17 165.77 159.134 164.63 159.704 165.922C160.464 164.934 162.44 165.086 163.542 165.048C165.48 165.01 167.38 164.82 169.318 164.706C170.991 164.63 172.815 164.972 174.449 164.744C175.361 164.592 175.627 164.326 176.653 164.44C177.413 164.554 178.553 164.136 179.199 164.326C179.161 164.326 179.997 164.858 179.731 164.858C180.035 164.858 179.997 165.048 180.339 164.934C180.757 164.82 180.567 164.288 181.441 164.098C182.809 163.794 184.595 164.136 186.001 164.06C187.369 163.984 188.737 163.946 190.106 163.946C190.752 163.946 191.512 163.794 192.12 163.908C192.424 163.984 193.07 164.364 193.298 164.326C194.02 164.212 194.4 163.718 195.35 163.756C196.414 163.807 197.481 163.781 198.542 163.68C199.606 163.604 199.758 163.452 200.29 164.326C200.822 165.2 200.974 166.34 199.986 166.948C200.594 166.91 201.392 167.746 200.632 168.202C200.176 168.506 199.264 167.86 198.732 167.898C198.048 167.974 197.516 168.316 196.794 168.316C196.034 168.354 195.236 168.544 194.476 168.544C193.678 168.544 193.108 168.202 192.348 168.354C191.702 168.468 191.626 169.038 190.828 168.544C190.448 168.316 190.372 167.442 189.839 167.442C189.117 167.442 189.421 168.354 189.003 168.81C188.889 167.48 187.863 169.685 187.445 168.05C187.065 168.582 185.659 169.343 185.013 168.924C184.405 168.544 184.595 167.632 184.329 166.986C183.911 168.126 182.771 169.342 182.847 167.252C182.277 167.936 180.795 167.822 181.175 169.038C180.719 169.038 180.605 168.392 180.225 168.316C179.883 168.278 179.617 168.544 179.579 168.506C179.769 168.506 179.047 168.772 179.047 168.772C179.541 168.658 177.641 168.506 177.945 168.506C177.489 168.506 176.957 168.848 176.463 168.848C176.007 168.848 175.513 168.658 175.057 168.62C173.841 168.468 174.107 168.734 173.347 169.114C173.081 169.266 173.005 169.495 172.587 169.457C172.283 169.419 172.169 169.038 172.169 169.038C171.751 169 172.055 168.848 171.409 168.924C171.333 169.038 171.257 169.19 171.181 169.305C171.083 169.448 170.936 169.551 170.768 169.593C170.6 169.635 170.422 169.614 170.268 169.533C169.318 169.723 166.202 170.597 166.506 169C166.012 169.228 165.556 169.457 165.062 169.685C164.872 168.392 162.25 170.103 161.68 170.217C160.92 170.331 160.882 170.027 160.16 169.875C160.046 169.837 159.78 170.255 159.476 170.217C158.716 170.065 158.564 169.989 158.45 169.152C157.88 170.179 157.424 169.723 156.436 169.875C156.208 169.913 156.056 170.331 155.752 170.255C155.524 170.217 155.524 169.799 155.372 169.723C155.22 169.685 155.258 169.343 155.03 169.305C154.802 169.266 153.966 169.913 153.738 170.027C153.206 170.255 152.332 170.635 151.838 170.521C151.191 170.369 151.496 169.913 150.583 169.951C149.139 170.027 148.569 171.243 147.695 169.342C147.277 170.103 147.353 170.331 146.707 170.559C146.251 170.749 145.035 170.559 144.389 170.521C141.729 170.407 139.107 171.319 136.447 171.091C135.269 170.977 134.319 170.749 133.141 170.939C131.924 171.129 130.708 171.433 129.454 171.547C128.808 171.623 127.478 171.775 127.174 170.977C127.022 170.331 128.048 169.837 127.478 169.038ZM132.685 198.414C129.226 200.732 126.338 203.886 123.184 206.584C119.992 209.283 117.446 212.247 114.596 215.249C111.935 217.985 109.503 220.607 106.311 222.697C104.297 224.027 102.473 225.623 100.383 226.877C98.8248 227.79 96.4687 229.044 97.2287 226.193C98.0267 223.267 99.4328 220.341 100.687 217.605C102.473 213.729 104.259 209.891 106.197 206.128C106.919 204.722 107.337 203.278 108.477 202.138C109.731 200.884 110.605 199.288 111.973 198.11C117.712 193.17 126.376 196.97 132.685 198.414ZM143.553 200.086C141.995 200.922 140.209 201.112 138.575 201.644C137.169 202.1 135.839 202.936 134.319 203.012C135.725 201.986 136.903 200.542 138.461 199.744C140.209 198.87 141.805 199.516 143.553 200.086ZM212.565 206.964C206.788 205.026 201.392 202.138 195.768 199.82C194.78 199.402 187.179 196.932 187.331 195.716C192.652 194.728 198.162 193.056 203.482 194.88C208.346 196.552 212.299 200.542 216.061 203.848C217.049 204.722 223.091 208.675 222.559 209.929C222.179 210.803 219.253 210.575 218.569 210.385C217.695 210.157 217.163 209.625 216.479 209.017C215.307 208.104 213.981 207.409 212.565 206.964ZM201.886 174.359C202.76 173.561 203.292 172.307 204.128 171.585C205.192 170.635 206.94 171.091 208.118 171.585C211.653 173.067 214.693 175.575 218.189 177.133C222.065 178.843 225.447 181.161 228.982 183.555C232.174 185.721 235.67 187.545 238.938 189.598C242.282 191.726 246.006 193.094 249.389 195.146C252.847 197.236 256.267 199.288 259.573 201.606C265.463 205.672 271.62 209.891 275.99 215.667C278.287 218.718 280.297 221.975 281.994 225.395C283.476 228.436 285.11 232.654 283.172 235.846C281.31 238.886 278.118 241.28 275.458 243.56C274.432 244.434 273.482 245.46 272.152 245.84C270.556 246.296 268.656 246.182 267.021 246.296C258.205 247.019 249.959 246.334 241.294 244.776C232.896 243.256 224.497 242.42 216.023 241.356C211.273 240.748 206.484 240.064 201.772 239.076C199.758 238.658 197.706 238.164 195.768 237.594C194.058 237.1 192.614 235.96 190.828 235.542C183.341 233.68 174.753 232.958 167.342 229.804C173.917 227.067 180.871 225.433 187.635 223.153C194.704 220.759 201.62 218.745 209.106 218.099C212.945 217.757 216.403 216.769 220.089 215.743C223.623 214.755 227.271 214.451 230.92 214.033C232.516 213.843 237.114 214.147 237.646 212.019C238.444 208.903 233.922 208.523 232.022 208.789C229.286 209.169 227.043 209.853 224.953 207.61C222.825 205.33 220.735 202.974 218.569 200.732C214.541 196.552 210.399 191.726 204.698 189.826C197.744 187.545 189.725 189.712 182.771 191.004C175.475 192.372 168.14 193.702 160.958 195.678C157.994 196.514 154.156 198.338 151.077 198.034C148.037 197.73 144.579 197.236 141.653 196.362C140.323 195.982 139.221 195.222 138.043 194.538C136.485 193.664 134.813 193.094 133.179 192.372C129.872 190.966 126.642 189.674 123.032 189.142C120.03 188.685 116.8 188.419 113.874 189.446C111.023 190.472 108.477 192.6 106.463 194.842C104.297 197.274 102.511 200.048 100.725 202.784C99.8888 204.114 98.8248 205.254 97.9507 206.546C97.1907 207.61 96.7727 208.827 95.9746 209.891C94.2265 212.247 93.0105 215.249 91.9464 217.985C90.7684 221.025 89.4383 224.635 89.7423 227.904C89.8563 229.158 89.9703 230.792 90.4263 231.97C91.0344 233.452 91.9084 233.414 93.1625 233.946C95.3286 234.896 95.9366 237.518 98.7488 237.024C101.371 236.53 103.651 234.364 105.551 232.654C108.059 230.412 110.453 228.056 112.81 225.661C115.318 223.23 117.595 220.571 119.612 217.719C120.372 216.579 120.98 215.325 121.892 214.299C123.032 213.007 124.362 212.855 125.92 212.323C139.639 207.8 153.434 203.43 167.57 200.428C170.953 199.706 174.373 198.794 177.717 197.844C181.251 196.818 183.075 197.92 186.001 199.82C192.082 203.848 199.302 206.698 206.066 209.321C208.194 210.157 211.615 210.195 213.287 211.829C203.406 213.349 193.982 216.237 184.443 219.125C179.731 220.531 174.981 221.785 170.268 223.153C165.556 224.521 160.996 226.269 156.36 227.828C151.724 229.348 146.821 229.994 142.147 231.4C137.402 232.784 132.581 233.888 127.706 234.706C122.766 235.58 117.826 236.606 112.848 237.404C110.567 237.784 108.287 238.126 106.045 238.658C103.841 239.152 101.713 240.33 99.5088 240.596C89.6283 241.812 79.9378 244.51 70.0953 246.03C62.7609 247.171 49.9543 248.767 45.204 241.394C40.4158 233.984 46.3061 225.319 51.5503 220.037C54.8355 216.762 58.4381 213.821 62.3049 211.259C66.4091 208.485 70.3613 205.52 74.5035 202.746C83.814 196.514 93.9225 191.422 103.917 186.405C108.705 184.011 113.342 181.427 118.016 178.767C120.334 177.475 121.626 179.565 123.45 181.009C124.894 182.149 127.554 184.923 129.568 183.631C129.644 184.087 129.72 184.543 129.796 185.037C130.404 184.771 130.974 184.505 131.582 184.239C131.962 185.265 131.924 185.911 133.027 186.481C133.711 186.823 135.155 187.203 135.801 186.633C135.915 187.051 136.067 187.469 136.181 187.849C136.751 187.811 136.865 186.177 136.979 185.797C137.967 187.203 139.297 188.419 141.007 188.8C141.007 188.724 140.741 187.545 140.741 187.545C141.273 187.203 141.957 188.647 142.261 188.952C143.211 189.94 143.781 189.788 144.845 188.99C144.921 189.066 145.263 190.016 145.339 189.978C145.567 189.902 145.985 189.066 146.061 189.028C145.985 190.092 148.075 190.32 148.835 190.092C148.683 189.788 148.493 189.446 148.341 189.142C150.925 188.8 151.914 191.536 154.384 191.384C156.208 191.27 154.726 190.89 155.79 190.092C156.702 189.408 156.854 190.89 156.93 190.852C157.103 190.674 157.244 190.469 157.348 190.244C157.69 191.536 160.35 192.676 160.046 190.548C161.072 190.966 161.832 191.65 162.972 191.802C164.378 191.992 165.86 191.688 167.266 191.574C170.268 191.308 173.119 190.7 175.855 189.332C177.451 188.495 179.199 187.773 180.719 186.785C181.973 185.949 184.405 183.441 186.077 184.543C185.659 183.251 187.673 184.467 187.749 182.795C188.091 183.023 188.395 183.289 188.737 183.517C188.927 183.099 188.889 182.415 189.155 182.035C189.497 181.503 189.687 181.807 189.992 181.541C190.334 181.199 190.638 180.363 191.056 180.097C191.474 179.831 191.968 180.135 192.424 179.907C193.108 179.565 196.11 176.259 195.616 179.109C196.908 178.653 195.92 178.273 196.072 177.399C196.414 175.689 197.174 176.905 197.972 177.057C199.264 177.285 199.226 176.259 199.948 175.461C200.594 174.739 201.848 174.435 201.392 173.219C201.734 173.371 201.81 173.865 201.886 174.359ZM124.514 137.611C123.488 138.751 122.728 138.257 121.626 138.105C121.512 137.687 121.284 137.649 121.018 137.953C120.686 138.135 120.327 138.264 119.954 138.333C119.042 138.561 118.092 138.447 117.18 138.789C117.218 138.485 117.522 137.953 117.332 137.649C116.382 138.295 115.812 138.713 114.634 138.751C113.684 138.751 112.049 138.029 111.251 138.903C111.213 138.561 111.213 138.219 111.175 137.915C110.8 138.102 110.465 138.361 110.187 138.675C110.201 138.209 110.053 137.753 109.769 137.383C109.161 138.675 108.477 138.713 107.261 138.219C107.413 138.295 106.045 137.459 106.083 137.687C105.665 135.863 112.543 136.015 113.266 135.939C115.09 135.749 116.876 135.635 118.7 135.483C120.41 135.331 121.702 135.065 122.88 136.509C122.31 134.381 127.326 134.495 124.514 137.611ZM45.432 105.499C45.622 108.615 46.3061 111.96 45.09 114.962C44.102 117.394 42.1638 120.13 40.0737 121.688C35.7795 124.918 32.1313 120.966 31.5233 116.596C30.9153 112.074 32.1313 106.525 36.0455 103.713C38.3637 102.041 40.6438 102.155 43.3419 102.725C43.9879 102.839 45.014 102.801 45.356 103.447C45.394 103.599 45.318 105.499 45.432 105.499ZM102.587 147.187C101.827 147.567 101.067 147.795 100.421 148.289C100.193 148.479 100.117 148.859 99.8888 149.011C99.4328 149.277 98.8248 149.087 98.3688 149.315C97.6087 149.695 97.0767 150.228 96.1646 150.57C94.874 151.113 93.6177 151.735 92.4024 152.432C90.2643 153.523 88.0698 154.499 85.8281 155.358C84.7261 155.814 81.6479 156.688 81.7619 158.322C81.4959 158.398 81.2679 157.828 80.7358 157.904C80.0138 157.98 79.0638 158.778 78.3417 159.006C76.9736 159.386 75.8716 159.424 75.8716 161.172C75.4156 160.868 75.3016 160.146 74.7315 160.032C74.0855 159.918 73.7815 160.64 73.2495 160.868C72.6414 161.134 71.8434 160.868 71.2353 161.172C70.957 161.455 70.6515 161.709 70.3233 161.932C69.9943 161.977 69.6599 161.964 69.3353 161.894C68.0432 162.16 66.8271 162.654 65.4971 162.92C64.205 163.186 63.3309 163.262 63.863 164.782C62.4949 165.048 62.1529 163.604 60.6328 164.136C58.7911 164.758 56.9128 165.266 55.0085 165.656C54.0205 165.846 52.9564 166.302 51.9303 166.416C51.2083 166.492 50.5243 166.226 49.8022 166.302C48.9282 166.416 48.2442 166.796 47.3701 166.796C46.5165 166.764 45.6659 166.675 44.824 166.53C44.9371 166.864 45.0903 167.183 45.28 167.48C44.71 167.366 44.444 166.682 43.9499 166.568C43.4559 166.454 42.9999 166.986 42.5439 166.872C42.3539 166.834 42.4679 166.264 42.1638 166.15C41.8598 166.036 41.7458 166.15 41.4418 166.112C41.3278 166.112 40.1117 166.036 39.9217 166.15C39.5797 166.34 39.9217 166.682 39.8457 166.72C38.7057 167.556 38.6677 167.1 38.1736 166.226C37.4136 164.934 36.5016 165.732 35.1335 165.504C33.6134 165.238 32.3973 165.922 30.9153 165.808C29.2812 165.694 27.4191 164.478 25.975 163.794C22.8969 162.274 19.8947 160.83 17.3106 158.512C12.2563 153.99 8.11409 148.441 5.68196 142.095C3.05982 135.255 2.5658 128.148 2.79381 120.89C2.88106 116.535 3.27472 112.193 3.97187 107.893C4.4279 104.929 4.5419 99.6849 7.88607 98.3168C8.4561 105.233 6.63201 112.302 7.81007 119.218C8.15209 121.308 8.98813 124.044 10.5842 125.602C12.9403 127.882 13.4724 124.576 13.7004 122.79C14.0804 119.408 14.8404 116.064 15.3345 112.72C15.8665 109.375 16.2085 105.955 16.9305 102.649C17.1966 101.433 19.3247 92.5785 20.8827 92.9965C20.5787 99.4569 19.7427 105.803 19.7047 112.264C19.7047 114.848 19.4767 117.584 19.8187 120.168C20.0087 121.498 21.2248 125.374 23.3149 125.07C25.253 124.766 23.1249 122.03 22.9349 120.966C22.4408 118.154 23.0489 114.696 23.5049 111.884C24.3409 106.639 26.203 101.243 29.2812 96.8347C32.0173 92.8825 36.2355 89.1583 41.3278 89.8424C43.4939 90.1464 45.204 90.6784 46.3061 92.6545C47.1801 94.2126 50.5243 95.9987 48.5862 97.9368C46.8001 99.7229 43.9119 98.2788 41.9358 97.8608C40.7223 97.6214 39.4726 97.6327 38.2635 97.8941C37.0545 98.1555 35.9117 98.6615 34.9055 99.3809C31.4473 101.813 29.4332 106.183 28.7872 110.249C27.9131 115.76 30.2312 130.162 38.8197 126.932C44.52 124.804 48.8142 117.052 48.3202 111.161C48.1302 108.805 47.2181 104.321 50.4863 103.675C54.6665 102.839 55.2745 107.475 54.8565 110.477C54.2485 114.848 51.9303 118.914 49.2702 122.372C46.9521 125.374 44.292 127.274 41.5178 129.744C40.6818 130.466 38.5917 132.139 38.9717 133.507C39.3517 134.989 42.6579 135.445 43.9499 135.673C50.4483 136.889 57.8207 135.787 64.319 134.913C77.6957 133.165 90.8824 128.832 101.827 120.928C102.283 125.83 102.815 130.733 103.043 135.635C103.157 138.029 103.157 140.461 103.423 142.817C103.651 144.337 104.259 146.351 102.587 147.187ZM65.5351 164.288C65.003 164.554 65.5731 162.92 65.421 163.452C66.2191 163.718 66.2571 164.022 65.5351 164.288ZM120.98 104.929C121.816 104.017 124.096 101.813 124.818 103.903C125.084 103.029 125.122 101.699 126.148 102.915C126.566 101.433 131.126 101.585 132.229 101.509C135.839 101.319 139.487 101.205 143.059 100.825C150.469 100.103 157.994 100.483 165.404 100.445C167.015 100.382 168.627 100.432 170.23 100.597C171.789 100.825 173.385 101.471 174.943 101.205C176.349 101.015 177.261 100.597 178.705 100.787C180.407 100.997 182.12 101.111 183.835 101.129C191.512 101.091 199.188 101.395 206.864 101.433C208.346 101.433 210.171 101.129 211.539 101.775C212.071 102.003 212.641 102.801 213.021 102.877C213.477 102.991 213.211 102.269 213.819 102.573C214.617 102.991 214.009 104.321 213.477 104.549C213.781 104.435 212.907 104.283 212.983 104.283C212.565 104.321 212.185 104.625 211.729 104.625C211.045 104.587 210.437 104.169 209.867 103.789C209.867 103.941 210.171 104.967 209.829 105.005C209.525 105.043 209.22 104.055 209.22 103.789C207.51 105.309 205.686 104.473 203.558 104.663C202.038 104.815 198.884 105.803 197.858 104.245C197.822 104.576 197.675 104.884 197.44 105.119C197.136 105.575 196.87 105.537 196.642 105.005C196.566 105.005 195.844 105.157 195.806 105.157C195.274 105.119 194.628 104.929 194.096 104.891C193.298 104.815 193.45 105.423 192.766 105.423C192.424 105.423 191.512 104.929 190.904 104.891C189.839 104.853 188.737 105.271 187.673 105.157C186.951 105.081 186.305 104.473 185.583 104.435C184.709 104.397 184.405 105.081 183.721 104.131C183.569 104.093 183.493 104.663 183.417 104.663C183.417 104.663 182.733 104.777 182.657 104.777C182.385 104.895 182.106 104.997 181.821 105.081C181.479 105.081 181.251 104.815 180.871 104.815C180.225 104.815 178.249 105.347 178.287 104.207C176.045 105.043 174.107 104.701 171.827 104.929C170.908 104.987 169.986 104.91 169.09 104.701C167.836 104.473 167 104.777 165.746 104.815C164.53 104.891 164.15 104.359 163.124 103.903C162.706 103.713 162.44 103.485 161.946 103.599C161.68 103.675 161.87 104.131 161.794 104.169C161.376 104.321 161.072 104.169 160.464 104.207C159.362 104.283 158.944 105.195 157.804 104.321C158.184 104.283 158.564 104.245 158.944 104.169C157.88 103.713 156.436 103.485 156.702 105.157C155.79 105.043 156.588 104.397 156.132 104.169C155.676 103.941 155.182 104.321 154.612 104.511C153.092 105.005 151.838 104.739 150.279 104.663C148.493 104.549 144.313 106.031 143.059 104.131C143.021 104.511 142.603 105.651 142.033 105.575C141.843 105.575 142.375 104.397 142.413 104.245C142.109 104.853 140.779 105.005 140.133 105.309C140.209 104.967 140.285 104.625 140.361 104.321C139.753 104.967 139.449 104.587 138.727 104.777C138.423 104.891 137.967 105.537 137.701 105.575C137.566 105.397 137.385 105.26 137.177 105.179C136.969 105.099 136.742 105.078 136.523 105.119C136.211 105.05 135.889 105.037 135.573 105.081C134.319 105.157 133.179 105.879 131.924 105.385C130.822 104.967 130.404 103.903 129.758 105.613C129.606 105.309 129.416 105.005 129.264 104.701C129.036 105.043 128.846 105.347 128.618 105.689C127.782 105.157 127.744 104.853 126.794 105.043C126.684 105.084 126.566 105.102 126.448 105.095C126.331 105.089 126.216 105.058 126.11 105.005C126.072 105.157 125.996 105.347 125.958 105.499C125.92 105.917 125.806 106.069 125.578 105.917C125.4 105.839 125.234 105.736 125.084 105.613C124.476 105.651 123.678 105.841 122.994 105.727C122.728 105.651 121.094 104.815 120.98 104.929ZM140.133 93.7186L140.361 94.0606C139.335 94.5926 139.107 94.2886 138.993 93.2246C139.487 93.2246 139.563 94.0986 140.133 93.7186ZM140.741 93.1105C141.235 93.3386 141.805 93.7566 142.261 93.1865C142.565 94.0606 140.247 95.3147 140.741 93.1105ZM143.895 93.4906C144.921 94.1746 142.451 93.6426 142.451 93.6426C142.633 93.4477 142.879 93.3251 143.145 93.2972C143.41 93.2693 143.676 93.3379 143.895 93.4906ZM152.75 89.6144C153.092 91.4005 154.08 91.3245 155.638 90.5264C157.918 89.3103 158.298 87.3343 158.488 84.9781C158.64 82.736 158.906 81.862 161.262 82.318C162.896 82.66 164.264 82.356 165.898 82.318C167.646 82.28 168.254 82.546 168.406 84.3321C168.558 86.1182 168.862 87.4863 170.192 88.8923C171.523 90.2984 173.309 91.1344 175.019 91.8945C175.893 92.3125 176.729 92.7305 177.717 92.8065C178.097 92.8445 180.073 92.5785 180.111 93.2246C180.149 93.6806 177.413 95.0106 177.109 95.2007C175.853 95.9142 174.529 96.4999 173.157 96.9487C169.964 97.8988 166.582 97.9748 163.238 97.8988C157.88 97.8228 150.507 95.5427 147.315 90.7924C149.101 90.4124 150.925 90.0324 152.75 89.6144ZM152.256 74.2616C151.42 73.5395 150.849 72.4755 150.165 71.6394C149.909 71.3191 149.584 71.0596 149.215 70.8794C148.873 70.6514 148.645 70.9554 148.379 70.4614C147.619 69.0933 149.975 67.1932 147.467 66.6612C146.631 66.4712 144.579 67.1552 144.351 65.9391C144.009 64.2291 147.277 64.115 148.037 63.241C149.557 61.4929 148.531 58.5668 149.481 56.5907C150.355 54.6906 152.636 54.3485 154.46 53.7785C156.968 52.9805 159.514 52.5244 162.06 51.8784C163.846 51.4224 166.81 49.6363 168.444 51.2324C165.898 51.8024 167.38 52.6765 169.09 53.1705C171.04 53.696 173.04 54.0145 175.057 54.1205C177.109 54.3302 179.181 54.2535 181.213 53.8925C183.075 53.5125 185.165 51.8784 187.141 52.2964C186.039 54.1965 182.809 55.2226 180.833 55.7166C179.845 55.9826 179.199 55.9066 179.313 57.1607C179.427 58.3767 180.491 59.5928 180.757 60.8469C181.027 62.4647 180.829 64.126 180.187 65.6351C179.617 67.1932 179.465 67.3832 179.959 68.8653C180.757 71.1834 179.047 73.7295 177.451 75.4016C170.991 82.204 158.716 79.6578 152.256 74.2616ZM170.572 50.8524C170.306 51.0424 168.786 51.4604 168.824 50.8524C168.938 50.0543 170.306 50.3583 170.572 50.8524ZM174.069 34.6255C173.727 34.3595 172.701 34.4735 173.423 33.4475C173.689 33.9035 173.879 34.2455 174.069 34.6255ZM149.899 28.2032C150.405 27.0528 150.8 25.8566 151.077 24.631C151.191 23.833 150.963 22.9589 152.028 22.8449C150.621 22.2369 150.621 19.8428 150.545 18.5887C150.431 16.8786 149.899 14.5985 150.659 13.0024C151.42 11.3683 152.484 11.4063 152.788 13.3444C152.902 14.1045 152.446 14.3705 152.37 14.9025C152.18 15.9666 152.56 15.7385 153.206 14.9405C153.472 15.7385 153.586 16.9926 154.726 16.9166C154.65 16.6886 154.232 16.1946 154.346 15.9286C154.574 15.5105 155.676 16.1566 155.79 16.2326C156.778 16.9166 157.006 17.5626 156.284 18.4367C157.272 18.5507 156.436 19.4247 157.082 19.6147C158.07 19.9568 157.386 18.3227 157.31 18.0567C157.793 18.2405 158.206 18.5732 158.488 19.0067C158.713 19.322 158.916 19.6521 159.096 19.9948C159.286 20.6408 159.704 20.7928 160.35 20.4888C161.604 20.8688 163.352 20.8308 164.492 21.5148C165.024 21.8189 165.176 22.5029 165.632 22.7689C166.126 23.0729 166.772 22.9209 167.304 23.1109C167.114 23.5289 167.266 23.795 167.76 23.795C168.151 23.8291 168.535 23.9187 168.9 24.061C169.17 23.86 169.463 23.694 169.774 23.5669C169.811 23.6498 169.865 23.7236 169.933 23.7833C170.001 23.843 170.082 23.887 170.169 23.9124C170.255 23.9377 170.347 23.9437 170.436 23.93C170.526 23.9163 170.611 23.8832 170.687 23.833C171.631 24.0005 172.497 24.4667 173.157 25.163C173.803 25.7711 173.271 25.8091 173.993 25.7331C174.297 25.6951 174.791 25.201 175.475 25.315C175.853 25.3887 176.223 25.5033 176.577 25.6571C176.732 25.8195 176.94 25.9205 177.164 25.9415C177.387 25.9624 177.61 25.9019 177.793 25.7711C178.477 26.1131 178.553 26.7211 179.427 26.7971C180.377 26.8731 180.073 25.6951 180.719 27.3671C181.593 25.6191 181.935 28.4312 182.809 28.6592C183.759 28.8872 183.835 28.1272 184.633 28.9632C184.861 29.2292 184.861 29.6093 185.127 29.8753C185.583 30.2933 186.153 30.2173 186.571 30.8253C186.343 30.4833 186.609 32.0034 186.609 31.9274C186.685 32.5734 186.077 33.3335 187.293 33.2574C187.293 33.3335 186.685 34.1695 186.609 34.0555C186.571 33.9415 186.571 33.8655 186.533 33.7515C186.419 33.7895 186.343 34.6255 186.381 34.7395C186.495 34.7395 186.533 34.6635 186.495 34.5115C186.305 35.1195 186.609 35.5376 186.229 36.1076C186.001 36.4876 185.317 36.7536 184.975 36.9816C184.139 37.5517 183.303 38.0837 182.467 38.6917C180.529 40.0598 178.363 41.7319 175.931 42.0359C177.147 40.8198 184.215 36.2976 180.681 34.9675C179.85 34.7139 178.998 34.5359 178.135 34.4355C177.299 34.3595 176.387 34.8535 175.475 34.5495C174.335 34.1695 174.753 33.1054 174.069 32.7254C172.587 31.9274 172.929 33.8275 172.473 34.3215C171.979 33.8275 172.093 33.5615 171.333 33.5235C170.534 33.4855 170.382 34.2075 169.47 33.7515C168.216 33.1434 168.862 31.8894 167.114 31.8894C167.152 31.6234 167.418 30.8633 167.076 30.6353C166.62 31.2433 166.962 31.8894 166.544 32.4594C166.276 32.7663 165.916 32.9793 165.518 33.0674C164.72 33.2955 164.606 33.7135 164.758 32.4974C164.188 33.5615 162.364 33.1054 161.3 33.0294C159.519 32.8657 157.76 32.5089 156.056 31.9654C154.536 31.4334 153.7 30.5593 152.446 29.7613C151.952 29.4573 151.724 29.5713 151.039 29.3813C150.241 29.3813 149.557 29.0012 149.899 28.2032ZM153.548 9.54422C153.814 9.39222 154.004 11.7483 153.662 12.1664C153.092 11.2543 152.066 9.92424 153.548 9.54422ZM154.384 8.59417C155.22 7.83414 154.65 9.81024 154.498 10.1143C154.194 9.92424 153.89 9.69623 153.548 9.50622C153.928 9.31621 154.042 8.89819 154.384 8.59417ZM186.115 5.44001C193.906 7.0741 201.582 10.1143 207.814 15.1305C213.477 19.6907 217.505 26.1891 219.747 33.0674C222.065 40.2118 221.305 48.1542 215.757 53.6645C212.831 56.5527 208.992 58.3007 205.306 59.9728C203.558 60.7709 201.734 61.4549 199.948 62.253C198.694 62.823 197.136 63.735 195.692 63.583C196.414 62.823 197.516 62.785 198.39 62.329C199.454 61.7589 200.366 60.6569 201.278 59.8588C202.19 59.0608 204.242 56.5907 205.686 57.1987C205.496 55.8686 206.978 55.2606 207.662 54.4245C208.384 53.5125 208.422 52.4484 209.753 52.1444C208.346 51.0424 208.764 48.9523 209.068 47.4702C209.424 45.5991 209.665 43.7082 209.791 41.8079C210.057 38.2737 210.285 33.7895 208.346 30.6733C207.7 29.6473 206.902 28.7352 206.332 27.7092C205.648 26.4551 205.8 25.353 205.8 23.947C204.546 24.783 204.28 23.0729 203.786 22.2369C203.406 21.6288 202.874 21.2488 202.76 20.4888C202.684 19.9188 203.292 19.8048 202.95 19.2347C202.532 19.5387 202.38 20.0328 202.152 20.4888C201.772 20.3368 202.228 19.8048 202 19.6147C202 19.6147 201.24 19.2727 201.278 19.3487C200.784 18.7407 200.632 17.7526 200.404 17.0306C199.53 17.4866 199.682 17.4106 198.732 16.6886C198.324 16.4366 197.954 16.1297 197.63 15.7765C197.25 14.8645 197.896 15.3965 197.744 14.8265C197.212 13.1924 194.248 13.4964 193.982 11.0643C192.538 11.9763 191.968 10.6843 191.132 9.73423C190.258 8.78418 188.775 8.40416 188.851 6.92209L187.483 7.37811C187.711 5.97204 185.659 6.08604 184.899 5.36401C185.306 5.35279 185.713 5.37823 186.115 5.44001ZM187.293 91.7425C188.015 91.0964 187.787 91.9705 188.243 91.8565C188.623 91.7805 188.699 91.4765 189.079 91.3625C190.638 90.9824 192.994 91.4765 194.628 91.3625C196.528 91.2865 199.796 91.6665 200.708 93.9086C201.24 95.2387 200.404 94.7826 199.492 94.7066C198.807 94.694 198.122 94.7194 197.44 94.7826C197.099 94.8206 196.755 94.8206 196.414 94.7826C196.259 94.674 196.151 94.5113 196.11 94.3266C195.122 94.1746 194.096 94.7446 192.994 94.7826C191.55 94.8206 190.258 94.5546 189.155 93.5666C188.699 94.2126 188.433 94.5546 187.635 94.6306C187.597 94.6306 186.837 94.3266 186.723 94.2886C186.571 94.2506 186.153 94.5926 185.849 94.4786C186.419 93.5666 186.495 92.4645 187.293 91.7425ZM286.517 99.4949C286.783 98.6208 286.973 97.7088 287.239 96.7967C290.811 100.863 293.965 106.335 295.371 111.58C296.283 115 297.727 121.156 293.357 122.904C289.785 124.348 287.809 119.218 286.897 116.672C284.882 111.123 284.882 105.157 286.517 99.4949ZM126.072 35.5376C126.11 35.5376 123.754 36.9056 124.514 35.8036C124.818 35.3476 126.034 35.0435 126.528 35.0435L126.072 35.5376ZM123.83 36.1456C123.564 36.3736 123.298 36.6016 122.994 36.8296L122.196 35.5756C122.69 35.3096 124.932 35.1575 123.83 36.1456ZM122.158 78.9358C121.664 78.5938 121.284 78.7838 121.132 79.3538C121.132 78.7838 121.436 77.4917 121.854 77.3397C122.158 77.2257 120.904 75.7436 121.246 75.3636C122.158 75.8577 121.588 76.3517 121.854 77.0357C121.968 77.3397 122.31 77.6057 122.424 77.8338C122.538 78.2138 123.07 79.5818 122.158 78.9358ZM119.726 75.5916C119.232 75.7056 120.106 76.5417 120.106 76.9217C120.106 77.1877 119.764 77.4157 119.612 77.7958C119.308 78.6318 119.84 79.2018 118.966 79.8099C118.966 77.9858 117.75 73.1595 120.106 72.2855C118.966 71.3734 119.916 70.3474 120.79 71.4114C121.664 72.4755 121.132 75.2496 119.726 75.5916ZM118.51 68.4093C118.054 66.7752 116.648 66.2052 115.09 66.3192C115.166 65.4831 115.774 64.2671 116.23 65.7871C116.42 65.3311 116.534 64.7611 116.99 64.4571C117.712 66.7372 121.322 67.9912 119.08 70.4234C118.852 69.7773 118.7 69.0933 118.51 68.4093ZM114.292 66.4332C105.931 67.0412 94.2265 68.7893 87.5382 62.367C83.168 58.1867 83.434 51.6884 86.9302 47.0522C88.9443 44.392 91.6804 42.5299 94.4165 40.7818C95.3835 40.1396 96.4313 39.6284 97.5327 39.2618C97.7178 39.2403 97.9047 39.2804 98.0647 39.3758C98.095 39.2433 98.1553 39.1196 98.2409 39.0142C98.3266 38.9088 98.4354 38.8245 98.5588 38.7677C99.0148 38.5397 99.6608 38.4257 99.9268 37.9317C99.6729 38.8787 99.495 39.8445 99.3948 40.8198L98.7108 40.0218C98.5208 41.8079 96.6587 40.7058 95.5566 40.9338C96.2786 41.9219 96.8107 42.3019 96.8487 43.632C96.3167 42.6439 95.1766 41.9599 94.1125 41.6559C94.6826 43.328 95.1006 44.354 94.5306 46.2161C93.8465 45.8361 93.8085 44.8861 92.9345 44.658C92.7065 45.7601 92.6685 46.9762 92.4024 48.0402C90.2363 47.0522 90.4643 49.7123 91.3384 51.0044C91.7944 51.6884 92.0224 52.5244 92.4404 53.1705C93.4665 54.8046 92.6685 52.3724 93.8085 52.4864C93.5425 54.2345 93.4665 54.3865 94.7206 55.6406C95.9746 56.8947 96.5827 58.6048 97.9127 59.7448C98.2928 59.2508 97.6847 58.7568 97.6467 58.2627C98.8628 58.4528 99.4708 59.7068 100.649 58.6048C101.181 59.5928 101.713 60.7329 102.967 60.9229C102.169 59.3648 104.525 60.4289 105.133 60.6569C105.589 60.8089 106.425 60.9609 106.615 61.0369C107.641 61.4169 106.919 60.7329 107.527 61.9489C108.439 61.6829 108.781 60.9229 109.845 61.5689C110.719 62.0629 110.719 62.975 110.909 63.849C111.099 63.279 111.327 62.671 111.555 62.1009C111.783 62.2149 112.772 63.279 112.658 63.279C115.052 63.165 114.976 64.6091 114.292 66.4332ZM102.587 37.1336C103.043 36.7916 103.613 37.2477 104.145 37.1336C104.867 36.9816 105.285 36.3736 106.083 36.2976C105.855 37.0196 105.437 36.9436 105.095 37.5137C104.981 37.7037 105.019 38.1597 104.943 38.2737C104.031 39.1858 103.727 38.4257 102.815 37.7417C102.891 38.5777 103.043 38.8437 102.283 39.0718C101.561 39.2618 100.383 38.5397 100.003 37.9317C100.269 37.3237 102.017 37.5137 102.587 37.1336ZM108.325 35.8036C109.123 35.8796 108.173 38.1597 107.033 35.9556C107.458 35.8653 107.891 35.8144 108.325 35.8036ZM112.315 35.3856C113.532 35.1195 117.636 33.9795 118.092 35.8796C118.168 35.8416 118.472 34.7395 118.624 34.8915C119.194 35.4236 119.27 36.1076 119.194 36.8676C118.51 35.4236 118.738 36.6776 118.282 36.6016C118.168 36.5636 117.978 36.7916 117.674 36.7156C117.256 36.6016 116.99 35.7276 116.724 35.4616C116.306 36.0696 115.774 36.8296 114.938 36.7916C114.33 36.7536 113.38 35.1955 114.14 36.9056C113.684 36.7536 113.152 36.4116 112.658 36.4876C112.087 36.5636 111.783 37.1337 111.251 37.2097C110.073 37.3997 109.883 36.2596 109.123 35.6516C110.187 35.5376 111.289 35.5756 112.315 35.3856ZM119.764 35.3476C119.84 34.9675 120.942 34.8155 121.208 34.9295C121.892 35.2336 121.626 35.6516 121.512 36.2976C121.018 36.0696 120.524 35.8416 120.03 35.5756C120.752 36.7916 119.422 36.9436 119.764 35.3476ZM327.977 105.195C327.901 102.345 327.825 99.4189 327.065 96.6447C326.571 94.7066 325.316 91.2105 322.96 90.8684C319.426 90.3744 317.45 97.3668 316.462 99.7989C316.272 96.9487 316.424 93.9466 315.36 91.2485C314.486 89.0823 312.32 87.0302 310.458 89.4624C308.786 91.6285 308.482 94.8206 308.026 97.4048C307.456 100.749 307.114 104.169 306.696 107.551C305.061 104.397 304.795 100.825 303.503 97.5568C302.287 94.4786 300.387 91.5525 298.563 88.8163C297.081 86.5742 295.257 84.4841 292.901 83.116C290.849 81.938 287.277 80.6459 285.338 82.622C283.704 84.2561 283.97 86.4602 284.046 88.5503C284.084 89.4624 284.236 90.1084 283.4 90.5644C282.982 90.7924 282.374 90.6784 281.918 90.7924C281.236 90.9909 280.603 91.3272 280.056 91.7805C275.838 94.8966 273.9 100.521 273.33 105.537C272.57 111.884 275.04 117.356 277.168 123.17C277.51 124.082 278.574 126.058 278.422 127.084C278.27 128.224 276.826 128.262 275.876 128.262C272.932 128.294 269.988 128.154 267.059 127.844C260.181 127.198 253.341 123.892 247.184 120.928C246.044 120.396 244.486 120.092 243.574 119.218C242.7 118.42 242.472 117.128 241.75 116.216C239.926 113.974 238.748 112.074 236.088 110.705C233.352 109.337 230.578 108.045 227.879 106.525C224.573 104.663 221.533 102.269 218.379 100.179C212.489 96.3027 206.674 92.0085 200.442 88.7023C197.554 87.1822 194.324 86.9162 191.284 85.6622C188.357 84.4461 184.747 84.4461 181.707 85.2061C180.225 85.5862 179.199 86.4602 177.831 87.0682C176.235 87.7523 174.905 86.9922 173.499 86.1942C171.333 84.9401 169.204 82.926 172.283 81.558C173.309 81.1019 174.639 80.9119 175.551 80.2279C176.539 79.4678 177.299 78.0618 178.097 77.0737C179.845 74.9456 180.909 72.4755 183.455 71.1454C186.305 69.6633 189.649 69.2833 192.69 68.3333C195.958 67.3072 199.188 66.0531 202.38 64.8371C208.194 62.671 214.199 60.3148 218.379 55.4886C221.989 51.3464 223.547 45.9881 223.395 40.5538C223.091 29.4573 217.163 18.1707 208.612 11.2163C198.124 2.70387 184.823 -0.146278 171.599 0.00573C165.404 0.0817339 157.994 0.879775 152.788 4.64197C148.303 7.91014 147.581 13.6104 148.227 18.7407C148.493 20.8308 149.405 23.5669 147.961 25.429C147.125 26.4551 145.643 26.7211 144.541 27.3671C143.135 28.1652 141.919 28.9632 140.323 29.3813C133.597 31.2053 126.566 30.5593 119.688 30.4453C108.249 30.2933 96.5447 33.3715 88.0322 41.4279C81.1539 47.9262 79.1018 60.2008 87.4622 66.5092C94.2265 71.6394 104.867 71.0694 112.886 70.1574C115.356 69.8913 117.066 69.4733 117.066 72.5135C117.066 75.8197 116.534 79.2778 117.37 82.546C118.7 87.6763 123.64 87.7903 127.972 86.6882C130.258 86.074 132.494 85.2863 134.661 84.3321C137.853 83.002 140.779 81.0259 143.971 79.6579C146.099 78.7458 147.733 81.672 149.633 79.6579C149.975 79.2778 150.051 78.7078 150.583 78.5178C151.42 78.2138 152.788 79.2778 153.548 79.6198C154.65 80.1139 155.752 80.4939 156.17 81.71C156.588 82.85 156.398 84.6361 156.018 85.7382C155.182 88.1703 152.902 87.6763 150.811 87.5243C147.163 87.2582 143.553 86.6502 139.943 86.3842C136.675 86.1562 133.635 87.1442 130.822 88.7403C124.932 92.1225 120.068 97.4808 114.976 101.889C112.353 104.169 109.807 106.601 106.919 108.615C105.665 109.489 104.335 110.249 103.233 111.352C102.169 112.416 102.055 113.366 101.675 114.772C101.029 117.28 97.7607 118.534 95.7466 119.826C92.8753 121.626 89.8011 123.08 86.5881 124.158C79.8101 126.538 72.8439 128.343 65.7631 129.554C62.2669 130.162 58.8087 130.58 55.2745 130.923C52.2344 131.227 49.0042 132.139 45.964 131.379C46.8381 129.972 48.3962 129.098 49.6122 127.996C51.158 126.558 52.5234 124.938 53.6784 123.17C55.9586 119.788 57.5926 116.178 57.9347 112.074C58.2767 108.387 57.8967 103.979 55.6545 100.863C54.8945 99.7989 53.3744 99.4949 52.6904 98.5068C52.0064 97.5568 52.2724 95.8847 51.8924 94.7446C50.9423 91.8945 48.0922 88.3603 45.622 86.6882C42.9239 84.9021 38.9717 84.2181 35.8555 85.1681C30.0792 86.9162 26.507 93.0725 23.8849 98.0888C22.4408 95.0486 24.873 90.5264 22.0228 88.0563C19.6287 85.9662 17.7666 90.0324 16.9685 91.7805C13.2444 99.9509 12.3703 108.615 10.8122 117.356C10.1662 116.71 10.5082 115.114 10.5462 114.354C10.6602 112.948 10.6602 111.58 10.6602 110.173C10.6602 106.639 11.3443 103.067 11.0402 99.5329C10.8502 97.4808 10.2042 93.1865 7.24004 93.8326C4.73191 94.4026 3.13583 97.9748 2.33779 100.141C1.19773 103.257 0.931715 106.373 1.00772 109.679C1.08372 113.328 0.399687 116.938 0.209677 120.586C-0.13234 127.654 0.209677 134.685 2.22378 141.525C4.87491 150.144 10.0587 157.765 17.1008 163.398C24.1428 169.03 32.7171 172.412 41.7078 173.105C45.204 173.333 48.5482 172.915 52.0064 172.573C55.4265 172.231 58.8467 172.041 62.2289 171.623C69.7913 170.711 77.1637 168.316 84.042 165.086C87.6522 163.376 91.0724 161.324 94.6066 159.5C96.0506 158.778 97.0007 157.866 98.2168 156.84C99.4328 155.852 99.7748 155.776 101.143 155.776C100.725 154.712 101.903 154.37 102.435 153.686C102.391 154.013 102.365 154.343 102.359 154.674C102.777 153.8 103.119 153.8 103.461 154.712C103.803 153.724 104.069 152.698 104.449 151.748C106.007 152.546 105.893 154.446 107.983 153.04C109.693 151.9 111.289 150.57 113.076 149.467C117.104 146.921 120.562 143.653 124.59 141.145C124.59 143.577 124.78 146.047 124.438 148.479C124.134 150.798 123.26 152.926 122.576 155.168C121.322 159.234 121.208 163.604 119.84 167.632C119.27 169.304 117.75 170.711 117.332 172.345C116.876 174.017 117.902 175.347 116.192 176.411C114.976 177.171 113.494 177.513 112.163 177.969C110.111 178.691 108.211 179.679 106.235 180.515C96.9627 184.505 87.8802 188.533 79.2918 193.892C71.1213 198.984 62.8369 204.228 55.3505 210.233C48.8522 215.477 42.2779 222.241 40.6818 230.754C39.1617 239.038 43.2279 247.931 51.4743 250.629C55.7685 252.035 60.5948 251.883 65.041 251.921C69.8293 251.997 74.9215 250.819 79.6338 249.983C84.612 249.109 89.5143 247.703 94.4926 246.943C99.2808 246.182 103.689 244.51 108.363 243.446C113.38 242.344 118.51 241.736 123.564 240.748C125.844 240.292 128.048 239.646 130.328 239.228C132.837 238.772 135.345 238.62 137.815 238.012C142.603 236.834 147.201 234.972 151.99 233.87C154.156 233.376 156.284 232.73 158.45 232.274C160.426 231.856 161.984 230.716 163.998 231.666C165.594 232.426 166.886 233.68 168.406 234.554C170.382 235.694 172.473 236.72 174.525 237.708C178.667 239.684 182.961 241.09 187.293 242.572C191.854 244.13 196.3 245.916 201.05 246.98C205.876 248.045 210.817 248.349 215.681 249.185C225.587 250.868 235.616 251.72 245.664 251.731C250.795 251.769 255.887 251.161 261.017 251.237C265.539 251.313 269.454 252.301 273.596 249.907C280.208 246.068 287.847 240.292 287.695 231.894C287.543 224.293 282.982 217.035 278.688 211.031C273.482 203.734 266.071 198.604 258.813 193.588C251.061 188.229 242.396 184.543 234.226 179.869C230.084 177.475 226.245 174.891 221.723 173.219C219.557 172.421 217.467 171.471 215.339 170.597C213.629 169.913 211.159 169.495 209.677 168.354C208.764 167.632 208.688 166.53 208.422 165.428C207.843 163.064 207.107 160.74 206.218 158.474C204.68 154.03 203.573 149.449 202.912 144.793C202.266 140.347 200.822 135.711 201.582 131.189C206.446 135.901 211.463 140.461 216.479 145.021C218.341 146.731 220.203 148.517 222.065 150.228C223.471 151.52 225.257 153.42 227.195 153.8C229.704 154.294 228.792 151.52 230.502 151.064C231.566 150.798 234.72 153.496 235.556 154.028C240.838 157.372 246.69 159.5 252.505 161.78C258.585 164.174 264.855 166.302 271.43 166.91C277.52 167.427 283.654 166.808 289.519 165.086C301.147 161.78 309.736 153.99 316.006 143.881C323.188 132.443 328.395 118.952 327.977 105.195Z" fill="#46605D"/>
<path fill-rule="evenodd" clip-rule="evenodd" d="M150.014 80.0759L149.976 80.1142C150.014 80.1142 150.014 80.1142 150.014 80.0759Z" fill="#46605D"/>
<path fill-rule="evenodd" clip-rule="evenodd" d="M150.584 80.2279C150.535 79.8643 150.446 79.5073 150.318 79.1638C149.937 79.7718 149.595 80.0379 150.09 80.6839C150.245 80.5225 150.41 80.3703 150.584 80.2279Z" fill="#46605D"/>
<path fill-rule="evenodd" clip-rule="evenodd" d="M177.451 167.595C177.869 167.139 177.147 166.948 176.843 166.948C176.881 167.443 176.615 168.621 177.299 168.849C177.209 168.645 177.176 168.421 177.203 168.201C177.23 167.98 177.315 167.771 177.451 167.595Z" fill="#46605D"/>
<path fill-rule="evenodd" clip-rule="evenodd" d="M166.05 71.5635C165.328 73.0076 166.962 73.4256 167.912 72.7416C168.634 72.2096 169.052 70.8795 169.166 70.0434C169.547 67.3073 167.608 64.6852 166.658 62.215C166.392 61.569 166.088 59.4029 165.29 59.3649C164.378 59.2889 164.302 61.303 164.302 61.797C164.328 63.3685 164.623 64.924 165.176 66.3953C165.632 67.9913 166.924 69.8914 166.05 71.5635Z" fill="#46605D"/>
<path fill-rule="evenodd" clip-rule="evenodd" d="M169.585 65.825C172.435 68.3712 174.715 64.1529 174.525 61.6448C174.487 61.0368 174.069 58.7567 172.891 59.5927C172.283 60.0107 172.815 61.3788 172.511 61.9488C171.143 64.837 169.851 60.3527 168.901 60.0107C167.799 59.5927 167.685 61.0368 167.685 61.8348C167.694 62.5977 167.869 63.3495 168.197 64.0383C168.525 64.7271 168.998 65.3367 169.585 65.825Z" fill="#46605D"/>
<path fill-rule="evenodd" clip-rule="evenodd" d="M159.248 66.2052C159.932 65.1411 160.73 63.735 160.844 62.481C160.996 60.5049 159.856 60.6949 158.906 62.0629C158.222 63.051 157.728 64.6851 156.284 64.2671C154.46 63.773 155.03 61.3029 154.004 60.1628C151.381 63.583 156.246 70.9174 159.248 66.2052Z" fill="#46605D"/>
<path fill-rule="evenodd" clip-rule="evenodd" d="M163.086 76.7698C164.15 76.9978 166.925 76.9218 165.974 75.2877C164.758 73.2356 160.73 76.2757 163.086 76.7698Z" fill="#46605D"/>
<path fill-rule="evenodd" clip-rule="evenodd" d="M200.29 15.7006C200.48 15.1306 200.214 15.0166 199.758 14.5605C199.34 14.9406 199.872 15.3966 200.29 15.7006Z" fill="#46605D"/>
<path fill-rule="evenodd" clip-rule="evenodd" d="M220.127 120.548C220.811 120.662 221.039 120.282 220.811 119.446C219.671 119.37 219.443 119.75 220.127 120.548Z" fill="#46605D"/>
<path fill-rule="evenodd" clip-rule="evenodd" d="M181.859 31.0914C182.619 31.4334 182.353 32.1555 182.315 32.8015C182.695 32.3835 183.531 31.5855 183.189 30.9394C182.695 29.9894 181.365 30.8634 181.859 31.0914Z" fill="#46605D"/>
<path fill-rule="evenodd" clip-rule="evenodd" d="M155.524 19.0449L155.182 18.3608C154.688 18.7409 153.966 19.7669 154.726 20.2609C155.026 19.8795 155.293 19.4726 155.524 19.0449Z" fill="#46605D"/>
<path fill-rule="evenodd" clip-rule="evenodd" d="M164.796 25.8091C165.746 26.5692 165.29 24.251 165.252 24.061C165.138 24.327 164.302 25.4291 164.796 25.8091Z" fill="#46605D"/>
<path fill-rule="evenodd" clip-rule="evenodd" d="M164.264 24.6311L164.036 24.061C163.656 24.4031 163.162 25.1631 163.808 25.5811C163.998 25.284 164.151 24.965 164.264 24.6311Z" fill="#46605D"/>
<path fill-rule="evenodd" clip-rule="evenodd" d="M170.382 32.5734L170.61 32.8014C170.914 32.1554 170.572 31.6994 169.964 31.6614C170.008 32.0009 170.153 32.3191 170.382 32.5734Z" fill="#46605D"/>
<path fill-rule="evenodd" clip-rule="evenodd" d="M144.617 104.549C144.984 104.288 145.327 103.996 145.643 103.675C144.503 102.991 145.187 104.473 143.819 103.561C143.553 103.941 144.009 104.853 144.617 104.549Z" fill="#46605D"/>
<path fill-rule="evenodd" clip-rule="evenodd" d="M192.044 167.329C192.462 166.683 192.538 166.683 191.968 166.188C191.474 166.987 191.512 166.797 192.044 167.329Z" fill="#46605D"/>
<path fill-rule="evenodd" clip-rule="evenodd" d="M102.321 62.4431C102.549 62.6711 102.777 62.9371 103.005 63.1651C103.119 62.8611 103.727 61.949 103.309 61.645C103.006 61.9427 102.675 62.21 102.321 62.4431Z" fill="#46605D"/>
<path fill-rule="evenodd" clip-rule="evenodd" d="M110.643 64.8752C110.263 64.7992 109.389 64.5332 109.161 64.8752C109.693 65.3312 110.947 64.9132 110.643 64.8752Z" fill="#46605D"/>
</svg>
