<svg width="263" height="306" viewBox="0 0 263 306" fill="none" xmlns="http://www.w3.org/2000/svg">
<path fill-rule="evenodd" clip-rule="evenodd" d="M47.4966 204.241C56.7884 199.319 66.0378 194.44 75.3296 189.56C84.1123 209.162 106.218 221.763 127.474 217.139C132.65 215.993 137.784 213.448 140.245 208.526C142.112 204.792 142.197 200.464 141.348 196.434C140.627 193.082 139.312 189.518 137.148 186.802C134.432 183.408 130.232 180.778 126.838 178.105C121.577 173.947 116.273 169.874 110.927 165.8C110.248 165.249 108.297 164.315 107.915 163.509C107.575 162.83 107.915 161.176 107.915 160.412V156.89C115.637 159.691 124.25 161.261 132.438 160.836C146.1 160.115 157.089 150.229 166.805 141.446C168.545 139.877 170.242 138.264 171.939 136.652C172.279 136.355 173.085 135.167 173.509 135.082C174.103 134.955 175.673 135.931 176.224 136.185C178.134 136.949 180.001 137.713 181.91 138.476C186.535 140.343 191.159 141.828 195.36 144.586C213.052 156.169 231.891 170.298 239.91 190.579C244.492 202.119 247.207 214.423 248.862 226.685C249.074 228.34 249.668 230.461 249.371 232.116C248.819 235.171 247.08 238.438 246.062 241.323C244.746 245.014 243.389 248.748 242.073 252.439C241.946 252.864 241.734 253.882 241.394 254.136C240.673 254.688 238.297 254.476 237.449 254.603C232.527 255.155 227.605 255.706 222.684 255.961C218.229 256.215 214.113 255.07 209.87 253.797C207.494 253.076 205.161 252.312 202.869 251.548C202.36 251.379 199.772 250.869 199.475 250.36C199.348 250.148 199.772 249.045 199.857 248.79C200.239 247.178 200.578 245.566 200.918 243.911C203.294 232.455 205.033 220.406 204.057 208.653C202.997 196.434 196.208 186.76 187.68 178.402C184.532 175.317 181.187 172.44 177.667 169.789C177.073 169.322 175.927 168.092 175.164 167.964C174.527 167.837 174.061 168.346 173.467 168.77C171.685 169.958 169.86 171.104 168.078 172.292C167.611 172.589 165.702 173.437 165.532 173.989C165.405 174.456 166.169 176.026 166.296 176.45C166.848 178.359 167.314 180.268 167.781 182.22C170.666 194.906 172.024 208.823 168.46 221.509C165.108 233.516 157.386 244.293 146.991 251.124C136.257 258.167 123.783 259.949 111.309 257.488C89.1613 253.161 66.4197 240.177 54.3276 220.575C51.1862 215.534 48.8795 210.018 47.4966 204.241Z" fill="#DDF1E6"/>
<path fill-rule="evenodd" clip-rule="evenodd" d="M246.868 231.31C246.019 238.141 242.964 244.632 239.188 250.275C238.679 249.299 239.273 248.493 237.915 248.281C236.982 248.154 235.751 248.79 234.86 248.96C231.466 249.554 227.902 249.087 224.55 248.748C225.441 247.814 226.587 247.008 226.163 245.481C225.823 244.293 224.381 243.869 223.829 242.765C224.593 242.426 226.672 244.123 227.435 244.378C227.054 243.444 225.823 241.832 226.12 240.814C226.332 240.092 227.266 240.22 226.46 239.286C226.078 239.626 224.932 241.196 224.296 240.814C224.932 240.262 224.465 239.965 224.72 239.414C224.906 239.049 225.134 238.707 225.399 238.395C226.163 237.419 226.629 236.189 225.696 235.043C225.356 234.662 224.847 234.746 224.55 234.322C224.253 233.898 224.338 233.431 224.253 232.964C224.168 232.455 224.211 231.861 224.084 231.352C223.787 230.291 223.659 230.291 224.168 229.231C223.659 229.697 223.108 230.122 222.599 230.588C222.403 229.451 222.075 228.34 221.623 227.279C221.453 226.94 220.477 226.049 220.52 225.667C220.392 226.727 219.544 225.497 219.204 225.412C218.144 225.158 216.234 226.218 215.428 226.855C213.179 228.679 211.822 232.116 210.379 234.577C208.809 237.292 207.239 240.305 206.815 243.402C206.73 244.166 206.688 245.82 205.797 246.202C205.33 246.414 203.378 245.863 202.869 245.566C201.681 244.887 202.106 243.869 202.572 242.765C203.209 241.443 203.679 240.046 203.972 238.607C204.312 236.783 204.524 234.916 204.821 233.092C205.415 229.231 206.009 225.37 206.306 221.466C206.391 220.236 206.264 218.963 206.306 217.775C206.348 216.714 207.155 215.484 206.73 214.211C206.561 213.787 206.264 213.659 206.264 213.32C206.264 213.108 206.858 213.32 206.942 213.023C207.112 212.429 206.518 211.835 206.391 211.283C206.179 210.435 206.348 209.629 206.476 208.78C206.985 205.301 206.009 201.61 205.076 198.258C204.007 194.671 202.747 191.145 201.299 187.693C200.069 184.638 199.517 181.287 198.075 178.317C196.802 175.728 195.444 173.183 193.153 171.528C192.092 170.764 191.371 169.619 190.353 168.77C189.777 168.219 189.118 167.761 188.401 167.412C187.722 167.115 186.874 167.285 186.28 166.988C185.431 166.564 184.455 165.546 183.522 165.164C182.716 164.824 181.782 164.57 181.061 163.848C180.043 162.873 179.873 162.194 178.431 162.024C177.624 161.897 176.776 161.982 176.182 161.133C173.848 157.866 180.128 153.199 177.243 149.805C176.097 150.95 175.588 152.605 175.036 154.132C174.288 156.03 173.305 157.826 172.109 159.478C170.072 162.533 167.06 165.588 166.211 169.237C164.811 167.243 164.005 166.097 161.883 168.049C161.502 167.158 162.011 165.461 161.205 164.909C159.804 163.891 157.131 166.394 156.368 167.328C153.355 170.892 151.701 175.177 150.046 179.505C149.325 181.414 148.518 183.832 149.452 185.784C150.258 187.524 152.21 188.499 153.864 189.221C156.198 190.281 158.15 190.239 160.653 190.494C161.799 190.621 162.817 191.13 163.92 190.536C164.853 190.027 165.532 189.009 166.381 188.372C166.593 189.009 167.06 189.56 167.696 189.009C168.63 192.954 169.563 196.773 169.351 200.846C169.167 204.585 168.771 208.311 168.163 212.005C167.484 215.823 166.678 219.684 165.193 223.248C163.708 226.77 161.459 229.91 159.38 233.092C158.744 231.819 157.98 232.455 157.089 233.049C156.707 232.286 157.174 231.692 156.707 231.013C156.378 230.833 156.089 230.587 155.859 230.291C155.776 229.744 155.649 229.205 155.477 228.679C155.133 228.807 154.819 229.005 154.556 229.26C154.293 229.516 154.086 229.824 153.949 230.164C152.719 228.043 151.87 228.297 149.622 228.425C146.609 228.594 145.633 231.225 144.615 233.686C144.361 234.28 143.936 235.001 143.894 235.68C143.851 236.147 144.276 236.91 144.191 237.165C144.064 237.632 143.639 237.25 143.512 237.504C143.088 238.395 142.96 239.626 142.748 240.602C142.112 243.147 141.942 247.305 139.396 248.79C137.275 250.021 134.263 250.318 131.887 250.742C128.153 251.463 124.207 251.59 120.431 251.633C117.037 251.633 113.006 252.057 109.781 250.784C109.315 250.615 107.066 249.554 107.617 249.002C107.83 248.79 109.06 249.172 109.315 249.299C109.145 249.214 109.018 248.154 108.933 247.942C108.636 247.051 108.381 247.051 107.745 246.372C106.387 244.887 108.211 245.566 108.084 244.505C108.042 244.293 106.642 244.844 106.684 244.802C106.727 244.463 107.023 243.826 106.854 243.487C106.981 243.741 106.048 241.747 106.133 242.214C105.92 241.323 106.514 240.474 106.387 239.626C106.217 238.438 105.326 238.65 104.648 237.971C104.393 237.716 104.308 237.25 104.096 236.953C104.011 236.825 103.629 236.825 103.587 236.741C103.332 236.316 103.332 236.231 103.629 235.298C103.12 235.51 101.762 236.444 101.253 235.934C100.617 235.34 101.932 234.619 100.871 234.195C100.447 234.025 100.193 234.492 99.8107 234.492C99.5561 234.492 99.5137 233.855 99.1742 234.025C98.5802 234.322 98.453 235.595 98.1984 236.147C96.7558 232.455 92.0463 238.523 91.1977 239.965C90.3916 241.28 90.3491 243.911 88.355 243.699C87.3367 243.572 86.1063 242.468 85.3001 241.917C84.0697 241.111 82.7969 240.432 81.524 239.668C75.9708 236.348 70.6928 232.588 65.7406 228.425C63.9162 226.855 61.4978 224.945 61.2432 222.527C61.1708 221.568 61.0146 220.616 60.7765 219.684C60.2249 217.733 59.5037 218.072 57.9338 217.011C58.5702 215.781 59.4612 215.696 59.4188 214.211C59.304 212.98 58.9887 211.776 58.4854 210.647C57.9762 209.204 57.7217 207.592 56.1518 207.168C54.4971 206.744 54.2425 207.55 53.1818 208.695C53.3091 208.059 53.7758 206.489 53.097 206.107C52.1211 205.556 51.612 207.592 50.8483 207.847C50.2118 206.404 47.9631 204.113 49.533 202.671C50.2967 201.949 51.8241 201.652 52.8 201.228C54.2425 200.549 55.6427 199.828 57.0428 199.064C63.2798 195.755 69.3046 192.148 75.4567 188.796C76.5599 191.3 77.4933 193.888 78.7662 196.349C79.8269 198.385 81.6937 200.337 81.6089 202.713C81.524 205.216 80.3784 207.677 80.1239 210.223C79.9542 211.877 80.2087 212.556 82.0332 211.962C82.2029 213.108 84.0273 214.763 85.0031 215.357C86.573 216.29 88.1853 214.593 89.2884 213.49C90.0521 214.253 90.2218 215.314 90.9007 216.163C91.2401 215.823 91.1553 214.805 91.3674 214.678C91.5796 214.508 92.2584 214.847 92.3857 214.847C92.5978 214.847 92.4281 214.211 92.5978 214.211C93.1494 215.569 94.4647 213.278 95.6951 214.211C95.5254 213.49 95.7375 213.235 96.374 212.896C96.7134 214.381 98.0287 213.702 99.1318 213.872C101.126 214.169 103.12 215.314 105.114 215.823C109.065 216.915 113.15 217.444 117.249 217.393C118.946 217.351 119.625 217.605 120.643 218.921C121.025 219.43 121.195 220.066 121.873 220.278C122.849 220.618 122.892 219.981 123.655 219.812C124.462 219.642 124.037 219.43 124.759 219.812C125.225 220.066 125.48 220.83 125.862 221.169C126.922 222.188 128.068 222.569 128.917 221.169C129.041 221.589 129.312 221.951 129.68 222.188C129.638 221.381 129.511 219.769 130.826 220.151C131.802 220.448 131.335 221.848 132.735 221.594C133.541 221.466 134.178 220.321 134.644 219.769C135.281 219.005 135.323 220.066 135.451 218.708C135.535 217.902 135.026 216.926 134.687 216.248C135.875 216.502 136.087 217.733 137.233 217.86C138.548 217.987 139.227 216.248 140.5 216.587C140.372 216.29 139.906 215.314 140.118 215.017C140.457 214.593 140.881 215.611 141.391 215.526C141.942 215.399 142.536 213.914 142.409 213.447C142.197 212.471 141.009 212.684 140.584 211.92C140.203 211.199 140.542 209.883 140.5 209.077C140.457 208.016 140.245 206.913 140.415 205.853C140.646 204.768 141.175 203.769 141.942 202.968C142.494 202.374 143.979 201.525 142.663 200.846C144.955 199.998 143.597 197.622 143.809 195.627C143.936 194.397 144.403 193.506 144.148 192.148C143.809 190.578 142.96 189.093 142.112 187.736C141.221 186.378 140.33 185.148 139.057 184.214C138.718 183.96 138.336 183.747 137.996 183.493C137.902 183.34 137.756 183.226 137.584 183.172C137.413 183.117 137.228 183.126 137.063 183.196C136.469 182.729 136.342 182.39 135.917 181.711C134.814 180.056 132.862 179.25 131.208 178.317C129.638 177.383 128.28 176.11 126.625 175.304C126.625 175.304 124.886 174.54 125.056 174.753C124.462 173.946 125.056 172.971 125.056 172.122C125.013 171.231 124.504 170.849 124.249 170.085C123.952 169.194 124.504 168.049 123.952 167.243C123.74 166.946 123.358 166.818 123.104 166.564C122.68 166.097 122.467 165.461 122.043 164.994C121.576 165.503 121.152 166.055 120.685 166.564C120.176 165.291 120.049 164.952 118.988 166.182C117.334 168.049 116.4 167.243 115.042 165.503C114.576 164.952 114.067 164.824 113.727 164.4C113.176 163.721 113.77 162.576 113.006 161.982C112.582 161.642 111.945 161.982 111.563 161.388C111.097 160.666 111.86 159.606 111.436 158.8C117.758 160.794 124.249 162.406 130.911 161.897C137.496 161.422 143.953 159.83 150.003 157.187C160.356 152.605 170.454 145.053 174.527 134.149C175.545 135.337 175.333 137.543 176.479 138.646C178.134 140.258 178.006 137.034 178.006 135.973C179.364 136.312 181.273 136.906 181.358 138.519C181.485 140.173 180 141.871 179.449 143.398C178.91 144.951 178.679 146.594 178.77 148.235C178.796 149.047 178.999 149.843 179.364 150.568C179.831 151.417 180.382 151.375 181.061 151.799C180.934 151.714 181.867 152.35 181.867 152.35C183.819 152.817 185.389 154.26 187.468 153.751C188.826 153.411 190.098 152.435 190.607 154.387C191.541 153.751 191.668 153.284 191.626 152.35C191.626 151.969 191.032 151.587 191.626 151.459C191.795 151.417 192.517 152.266 192.814 152.35C193.577 152.563 193.874 152.266 194.256 151.672C194.468 151.332 194.468 149.083 194.723 149.041C195.275 148.956 196.378 151.247 196.717 151.672C196.717 145.053 203.633 152.732 205.797 154.175C207.536 155.363 209.446 156.424 210.931 157.993C212.798 159.988 212.246 161.133 211.016 163.254C209.615 165.63 208.597 168.388 207.324 170.849C206.688 172.08 205.924 173.565 205.924 175.007C205.924 175.474 206.221 175.983 206.179 176.45C206.136 177.129 205.797 177.426 205.542 178.02C205.157 178.844 205.106 179.786 205.398 180.647C205.691 181.509 206.305 182.225 207.112 182.644C208.173 183.196 209.276 183.535 210.337 184.172C211.44 184.851 212.501 185.572 213.858 185.614C214.707 185.657 215.174 185.402 216.022 185.657C216.574 185.826 217.04 186.336 217.719 186.293C219.035 186.166 219.968 184.723 221.326 184.426C222.302 184.214 223.617 184.341 224.253 183.366C225.017 182.178 223.532 180.947 224.72 179.844C225.058 180.462 225.274 181.139 225.356 181.838C225.607 180.97 225.949 180.131 226.375 179.335C226.936 178.606 227.235 177.709 227.223 176.789C227.223 174.837 226.247 172.971 225.781 171.104C227.435 171.189 228.836 174.074 229.557 175.262C230.915 177.468 232.272 179.674 233.63 181.923C235.285 184.723 237.448 187.778 238.509 190.875C239.485 193.676 237.109 195.458 235.836 197.706C234.309 200.379 233.842 202.967 232.994 205.81C232.315 208.101 232.23 210.647 234.139 212.387C235.015 213.099 236.005 213.659 237.067 214.041C238.297 214.55 238.636 215.484 239.994 215.738C241.099 215.944 242.222 216.044 243.346 216.035C245.213 215.993 244.534 215.357 245.552 214.169C245.213 215.272 246.316 216.332 246.613 217.351C247.037 218.751 247.122 220.321 247.292 221.806C247.444 224.98 247.302 228.162 246.868 231.31ZM221.92 260.755C220.223 260.373 217.762 260.585 216.234 259.779C215.174 259.185 215.683 258.634 216.107 257.573C217.295 254.603 220.562 254.306 223.447 255.112C222.938 256.979 222.429 258.888 221.92 260.755ZM224.932 282.988C230.236 285.873 236.048 288.97 240.334 293.298C241.352 294.316 244.067 296.565 243.685 298.219C243.304 299.959 239.909 299.619 238.636 299.577C232.612 299.36 226.706 297.84 221.326 295.122C216.107 292.534 211.058 289.946 207.239 285.406C205.712 283.582 202.869 280.739 203.209 278.108C203.548 275.52 206.179 273.526 207.621 271.489C209.021 269.495 210.719 265.125 213.307 264.446C214.452 264.149 215.555 264.786 216.616 265.125C217.634 265.422 219.162 265.422 220.01 266.101C221.58 267.331 220.944 270.132 219.289 270.938C218.186 271.447 216.913 271.702 215.768 272.083C214.495 272.508 208.003 274.459 210.422 276.666C212.119 278.193 215.089 276.326 216.913 275.902C217.847 275.69 219.332 275.393 219.883 276.454C220.435 277.472 219.459 278.533 218.61 279.042C217.337 279.763 215.768 279.636 214.664 280.696C213.773 281.545 213.561 282.563 214.749 283.072C217.974 284.388 221.538 281.163 224.932 282.988ZM158.235 233.728C158.065 233.007 158.532 232.583 159.295 232.922C159.217 233.146 159.075 233.342 158.887 233.485C158.698 233.628 158.471 233.713 158.235 233.728ZM105.539 249.469C104.86 249.384 105.114 248.493 105.411 248.069C105.878 248.408 105.92 248.875 105.539 249.469ZM57.9338 219.515C57.0852 218.539 58.3581 216.884 59.6734 217.648C59.2915 218.327 58.4005 218.793 57.9338 219.515ZM54.7941 178.953C53.394 176.45 53.3091 171.019 49.6178 170.679C48.2601 170.552 45.8841 172.249 44.7386 171.443C43.6778 170.722 44.6113 167.073 43.0838 167.158C40.92 167.243 42.0231 171.443 41.0897 172.461C40.5381 173.055 39.2653 173.31 38.5016 173.183C37.3136 173.013 37.2287 172.504 37.1863 171.401C37.1439 170.595 37.7379 167.328 35.9134 167.879C34.5557 168.261 34.8952 171.146 34.7679 172.164C34.2587 175.941 28.743 175.771 25.8579 176.11C24.1183 176.322 15.8872 177.595 17.7116 173.989C18.4754 172.461 20.3846 171.189 21.6575 170.128C23.8681 168.329 26.3258 166.857 28.9552 165.758C33.8345 163.679 39.3077 162.576 44.5688 163.297C50.5088 164.103 55.3881 167.031 59.3764 171.443C60.1825 172.377 62.5161 174.456 61.6251 175.771C61.1159 176.492 59.4188 176.662 58.6551 176.959C57.2717 177.417 55.9688 178.09 54.7941 178.953ZM63.5344 180.777C65.5709 180.014 65.9952 182.517 66.8013 183.875C67.4802 185.02 68.9228 186.802 68.1591 188.16C67.4378 189.39 65.3164 190.154 64.0859 190.663C62.5161 191.342 60.8614 191.851 59.2491 192.573C58.4005 190.578 57.7217 188.584 56.8307 186.633C56.3215 185.529 55.3457 184.002 56.1942 182.899C57.6368 181.117 61.5402 181.541 63.5344 180.777ZM119.497 106.316C119.667 104.067 121.152 104.788 121.704 106.358C122.34 108.055 122.383 110.049 122.425 111.831C122.467 113.189 122.17 115.31 120.898 113.316C119.667 111.407 119.328 108.522 119.497 106.316ZM127.474 115.438C127.262 118.195 125.692 116.286 125.098 114.801C124.249 112.68 123.613 109.922 123.952 107.631C124.292 105 125.607 106.655 126.159 108.267C126.965 110.558 127.007 113.062 127.474 115.438ZM130.826 113.189C129.086 113.656 126.328 103.303 128.704 102.921C130.699 102.624 132.565 112.722 130.826 113.189ZM137.869 114.25C137.869 116.541 135.96 114.716 135.281 113.825C133.976 111.959 133.199 109.775 133.032 107.504C132.947 105.552 133.838 103.94 135.196 106.061C136.766 108.395 137.402 111.577 137.869 114.25ZM122.51 87.6894C124.167 82.9407 126.419 78.4213 129.214 74.2396C129.694 73.418 130.279 72.6622 130.953 71.9909C131.505 71.4818 132.311 71.3969 132.862 70.8878C133.923 69.9119 133.117 68.9785 132.056 68.4694C130.317 67.6208 127.177 67.7481 128.407 64.9478C130.105 61.0868 134.475 63.2507 136.172 65.8812C136.851 64.2265 138.081 64.6508 139.566 64.5235C141.815 64.3538 143.894 63.2931 146.143 63.3355C148.222 63.378 150.173 64.3962 152.252 64.4387C154.586 64.4811 156.537 64.566 158.786 65.2448C157.598 67.6208 156.156 69.9968 153.907 71.5242C154.331 70.7605 155.731 68.7664 154.458 68.2148C153.61 67.8329 151.785 69.4028 151.064 69.7847C151.013 69.099 150.778 68.4396 150.385 67.8754C148.179 69.4028 148.9 72.0758 150.81 73.5184C149.183 74.4282 147.421 75.0727 145.591 75.4276C143.767 75.7246 141.942 75.2579 140.118 75.5973C136.936 76.1489 134.56 78.9916 134.05 82.1313C133.796 83.8285 134.687 88.1137 136.087 84.8043C136.384 84.1255 136.511 83.3618 136.936 82.7678C137.657 81.7919 138.208 82.1313 139.269 82.3859C140.16 82.598 141.688 82.7678 142.027 83.7436C142.324 84.6346 141.56 85.7802 141.094 86.459C139.566 88.7502 137.317 90.7019 134.602 91.211C133.075 91.4232 121.322 91.1262 122.51 87.6894ZM126.201 56.5046C125.225 55.8257 125.947 54.1286 126.074 53.2376C126.244 53.577 126.413 53.874 126.583 54.2134C126.456 52.1344 126.753 50.4797 127.177 48.4432C127.304 47.7293 127.347 47.0031 127.304 46.2793C127.251 45.9346 127.295 45.5819 127.432 45.261C127.644 44.9216 127.941 45.8974 127.941 45.8126C129.001 44.5397 128.153 44.2852 128.45 42.9699C128.45 42.9699 129.426 41.9092 129.511 41.7395C130.02 40.806 130.105 40.4666 130.996 39.915C131.887 39.3635 131.59 39.915 132.056 38.727C132.523 37.5815 132.481 36.8178 132.778 35.6298C132.958 35.7702 133.178 35.85 133.407 35.8576C133.636 35.8652 133.861 35.8003 134.05 35.6722C133.878 35.6269 133.724 35.529 133.61 35.3921C133.496 35.2552 133.427 35.0862 133.414 34.9085C134.517 34.7812 135.451 33.7205 136.469 34.1023C136.214 33.6781 136.045 31.2172 136.851 31.2172C136.893 31.5979 136.893 31.9821 136.851 32.3628C137.611 31.1587 138.492 30.0355 139.481 29.0109C140.118 28.4169 139.948 28.5866 140.712 28.5018C141.391 28.4169 141.391 28.6715 141.985 28.0775C141.772 27.4411 141.942 27.0592 142.494 26.8895C142.655 26.8009 142.826 26.7298 143.003 26.6774C143.809 26.1682 144.106 25.6167 144.742 24.9802C145.252 24.4711 146.27 24.2589 146.652 23.7498C147.033 23.1982 146.736 22.0102 147.288 21.586C147.882 21.1192 147.925 21.7132 148.476 21.6708C148.561 21.6708 149.367 21.2041 149.537 21.1617C150.767 20.7374 151.87 20.5677 152.889 19.6342C153.228 19.3373 153.483 18.7008 153.822 18.4887C154.374 18.1068 155.01 18.1493 155.604 17.8098C155.774 17.6825 156.071 17.2158 156.283 17.0037C156.956 16.5074 157.72 16.1472 158.532 15.943C160.101 15.4738 161.645 14.9214 163.156 14.2883C166.532 12.8379 170.023 11.674 173.594 10.8091C174.018 10.7243 175.036 10.7667 175.333 10.5546C175.545 10.4273 175.758 9.91814 175.8 9.87571C176.631 9.41681 177.514 9.06063 178.431 8.815C181.061 8.05129 181.146 9.49385 179.491 11.0213C178.006 12.379 176.182 13.3124 174.654 14.6277C172.151 16.7491 170.539 19.8464 168.884 22.6042C171.09 23.6649 174.273 22.6042 176.521 22.1375C177.668 21.9278 178.835 21.8425 180 21.883L180.382 21.6708C180.679 21.4587 180.849 21.5435 180.934 21.9254C180.976 22.3921 181.188 22.4345 181.613 22.1375C181.824 21.9854 182.052 21.8574 182.292 21.7557C182.716 21.5011 183.352 20.7798 183.861 20.8647C184.625 20.992 184.158 21.3738 184.668 21.586C185.813 22.0102 186.407 20.992 187.468 20.8222C187.85 20.7798 188.359 21.0344 188.783 20.992C189.116 20.8646 189.429 20.6934 189.716 20.4828C189.85 20.4698 189.984 20.5055 190.093 20.5836C190.202 20.6616 190.28 20.7765 190.311 20.9071C191.202 20.9071 192.814 20.695 192.899 19.5918C193.535 20.7798 193.874 20.3555 194.85 19.804C194.85 21.2041 197.863 20.0161 198.711 20.0161C200.833 20.0161 202.7 19.1675 204.736 20.2707C201.13 21.883 197.099 22.6042 193.62 24.4287C192.05 25.2348 190.013 27.5684 191.201 29.4776C191.88 30.5808 193.196 30.5384 194.299 30.4111C195.741 30.2414 196.929 30.7929 198.414 30.7081C201.427 30.5808 205.076 32.8719 207.664 30.4111C208.809 31.9385 210.125 31.9385 211.822 32.0233C212.628 32.0658 217.507 32.9143 217.295 33.8902C217.168 34.4418 214.834 35.2479 214.495 35.4176C213.169 36.0104 211.791 36.4791 210.379 36.8178C207.833 37.4542 205.33 37.4118 202.784 37.836C200.918 38.133 198.626 39.1938 199.136 41.5697C199.602 43.6487 202.063 43.182 203.633 43.0547C205.351 42.8501 207.079 42.7509 208.809 42.7577C210.209 42.8002 213.137 42.7153 214.028 44.1155C210.125 46.9582 205.203 47.6794 200.536 48.2734C195.138 48.9007 189.782 49.85 184.498 51.1161C184.88 50.31 186.662 47.4249 185.94 46.5339C185.092 45.4732 182.546 49.7584 181.91 50.3524C176.352 55.2741 168.714 58.5835 161.926 61.299C164.175 58.5411 167.569 56.6318 170.284 54.3831C172.151 52.8133 175.588 50.31 174.357 47.4249C167.357 51.795 161.459 59.6867 152.592 60.1958C155.774 57.9047 159.38 56.1227 162.011 53.1103C162.605 52.389 164.641 49.716 163.368 48.7402C162.393 47.9764 160.653 50.6494 159.974 51.2434C155.18 55.3166 148.561 58.7533 142.579 60.705C140.415 61.3838 137.487 62.5718 135.493 61.0444C132.862 59.0503 130.783 58.9654 127.813 60.5777C127.474 59.22 127.432 57.3531 126.201 56.5046ZM189.42 149.083V150.738C188.529 150.653 188.91 149.72 188.401 149.253C188.698 149.211 189.08 149.126 189.42 149.083ZM188.274 147.132C188.529 148.108 188.529 148.108 187.383 147.98C187.807 147.598 188.019 147.386 188.274 147.132ZM192.602 148.489C193.238 148.15 192.686 150.271 191.668 149.168C191.965 148.956 192.305 148.744 192.602 148.489ZM194.935 145.392C194.808 146.113 194.681 146.835 194.553 147.514C194.171 147.217 193.79 146.877 193.408 146.58C193.917 146.156 194.426 145.774 194.935 145.392ZM244.704 211.623C245.51 211.114 245.68 213.023 245.764 213.405C245.255 213.065 243.431 212.387 244.704 211.623ZM81.6089 67.0268C80.1392 68.9626 78.793 70.989 77.5782 73.0941C76.9417 74.2821 76.4326 76.0216 75.287 76.7853C74.2263 77.5066 72.4868 77.5915 71.2988 77.8885C68.9228 78.4825 66.5892 79.1613 64.2556 79.9675C56.364 82.7253 48.8965 87.4349 43.3809 93.7567C40.6556 96.7754 38.5637 100.31 37.2287 104.152C35.7862 108.564 36.2953 113.231 35.7437 117.771C35.6164 118.874 35.4043 122.778 34.089 123.244C32.5192 123.838 32.0525 120.02 31.8403 119.002C31.5857 117.729 30.9493 109.073 28.446 109.88C26.9186 110.346 26.9186 115.395 26.8338 116.626C26.6474 119.36 26.2932 122.081 25.7731 124.772C25.3488 126.851 24.8396 128.972 24.3305 131.051C23.9062 132.876 23.3971 135.082 22.0393 136.44C21.0211 130.882 20.8514 124.645 22.7606 119.214C23.2698 117.729 26.5368 110.177 23.6516 109.455C21.9121 109.031 20.5544 113.147 20.0876 114.25C18.5178 117.899 17.2874 121.675 15.9297 125.408C15.0387 127.869 14.1477 132.282 11.9838 133.979C11.1777 127.827 12.8748 121.717 14.9114 115.947C15.2932 114.929 19.7906 104.703 15.8872 105.806C13.7658 106.4 12.2384 110.983 11.3474 112.765C9.18353 117.092 6.55297 121.59 2.94656 124.857C2.77684 121.42 4.98312 117.814 5.78926 114.504C6.6354 110.767 8.03696 107.177 9.94725 103.855C13.6385 97.6177 18.4754 91.7626 23.2698 86.3317C28.2076 80.7263 33.8065 75.74 39.9441 71.4818C45.9397 67.3095 52.7031 64.3676 59.8431 62.8264C67.9893 60.9595 76.8569 59.8564 85.0031 62.2748C83.8576 63.8447 82.7544 65.4145 81.6089 67.0268ZM216.404 75.1306C216.277 75.1731 216.149 75.1731 216.022 75.2155C215.895 74.5791 215.81 73.9426 215.683 73.3062C216.489 73.7729 215.81 74.6215 216.404 75.1306ZM182.292 69.6149C191.975 65.4157 202.052 62.1894 212.373 59.9837C219.374 58.4563 227.266 57.6925 234.097 60.3655C241.946 63.4628 245.213 71.8212 245.552 79.7553C245.934 89.0472 242.794 97.8298 238.255 105.806C237.151 107.716 231.339 119.256 228.878 117.983C229.727 115.735 235.497 102.964 231.678 101.818C229.472 101.182 227.775 107.461 227.011 108.861C226.502 109.837 222.98 116.541 221.792 115.947C222.896 112.383 224.253 108.692 224.168 104.873C224.084 101.988 222.599 100.63 220.986 103.643C217.55 110.134 213.901 116.795 208.852 122.226C208.385 118.195 210.549 113.741 211.822 110.049C212.84 107.122 214.24 104.237 214.537 101.097C214.707 99.3997 214.664 96.0903 212.161 96.6843C209.955 97.1934 208.215 99.6967 206.476 101.012C207.791 98.5511 209.064 96.0479 210.549 93.6719C211.822 91.6353 213.392 89.8109 214.664 87.7743C215.169 86.9152 215.582 86.005 215.895 85.0589C216.234 84.1255 216.786 83.5739 217.38 82.7253C217.791 82.1696 218.08 81.5335 218.228 80.8585C218.271 80.6039 218.101 80.222 218.144 79.9251C218.186 79.4159 218.738 79.2462 218.568 78.6522C219.544 79.9675 219.247 77.3793 219.247 76.8702C219.204 75.1731 219.883 73.3062 219.035 71.7364C217.253 68.3845 211.991 69.0634 208.894 69.2755C204.439 69.6149 198.881 70.6332 195.062 73.0516C194.087 73.6881 193.493 73.3062 192.432 73.7729C191.456 74.1972 190.48 74.6639 189.504 75.0882C186.916 76.1913 184.455 77.5491 181.91 78.6946C182.037 76.7853 182.461 74.9185 182.164 73.0092C181.995 72.2455 181.188 70.1241 182.292 69.6149ZM250.05 217.436C249.201 211.793 248.268 206.192 246.74 200.719C246.019 198.088 245.467 195.415 244.704 192.785C244.11 190.706 242.285 189.645 241.352 187.693C239.23 183.153 237.279 178.614 234.691 174.243C232.027 169.743 228.773 165.62 225.017 161.982C217.295 154.557 208.385 148.871 199.772 142.592C195.393 139.372 190.719 136.573 185.813 134.233C183.866 133.306 181.852 132.526 179.788 131.9C177.624 131.263 176.521 130.5 175.715 128.336C174.06 123.838 170.921 122.353 166.678 120.656C164.769 119.893 162.987 118.789 161.12 117.983C159.168 117.135 157.047 116.456 155.222 115.31C146.864 110.092 158.022 99.2724 162.435 95.369C164.175 93.8416 166.126 92.2717 168.333 91.5504C170.876 90.7929 173.493 90.3093 176.139 90.1079C177.794 89.9806 180.085 90.7443 181.443 89.429C182.546 88.3683 182.122 86.7136 181.995 85.3559C181.613 81.6222 184.668 81.3252 187.765 80.6888C192.559 79.6705 197.057 77.5066 201.851 76.4035C204.906 75.7246 213.434 73.6456 213.476 78.8219C213.519 82.7678 210.591 86.7136 208.724 89.8957C207.282 92.399 205.754 94.8174 204.227 97.2783C203.081 99.1027 202.063 101.139 202.063 103.346C202.063 105.085 202.784 106.825 204.821 106.57C207.155 106.273 208.852 103.982 210.803 102.879C210.888 105.297 209.064 107.97 208.385 110.219C207.551 112.904 206.885 115.639 206.391 118.408C206.094 120.147 205.288 126.936 208.852 126.045C211.228 125.451 213.307 122.353 214.707 120.529C216.192 118.62 217.507 116.583 218.822 114.589C219.671 117.05 214.495 121.844 217.125 124.051C219.926 126.427 224.762 118.026 226.12 116.456C226.375 118.323 223.702 122.523 226.714 123.372C228.836 123.966 231.763 121.081 233.078 119.723C235.539 117.22 235.836 113.698 237.364 110.686C239.103 107.207 241.352 104.067 242.964 100.545C248.098 89.3866 250.686 72.8395 242.625 62.3173C237.194 55.1893 227.732 53.9588 219.374 54.6377C209.87 55.4014 200.578 58.2865 191.668 61.596C185.686 63.8022 179.831 66.3055 173.976 68.8512C169.648 70.7181 165.363 72.6698 161.12 74.6215C159.041 75.5549 157.047 76.5732 155.01 77.6339C153.355 78.5249 151.361 79.5432 149.452 79.0341C150.852 76.9126 153.61 76.2338 155.604 74.8761C157.98 73.2638 159.295 70.5484 160.144 67.8754C161.077 65.0327 161.883 64.3538 164.769 63.5901C167.61 62.8086 170.335 61.653 172.872 60.1534C178.855 56.6743 185.516 54.6801 192.305 53.6194C198.329 52.6436 204.736 52.2193 210.337 49.6736C214.537 47.7643 219.798 43.5639 214.707 39.321C218.313 36.6905 224.72 32.3203 219.119 27.9926C214.749 24.6408 208.215 24.9378 202.997 24.9378C203.76 23.4104 206.136 22.9012 207.494 22.0951C209.149 21.0768 211.185 19.9737 211.779 17.9795C212.713 14.7126 209.149 13.7791 206.688 13.4397C197.269 12.2093 186.662 13.1427 177.752 16.4097C178.218 14.755 180.552 13.567 181.825 12.676C183.564 11.488 185.262 10.2151 186.534 8.518C187.218 7.6557 187.67 6.63361 187.85 5.54801C187.977 4.36001 187.85 4.86915 187.51 4.52973C186.093 3.32633 184.318 2.62523 182.461 2.53559C177.243 2.32345 172.575 4.7843 167.611 5.97229C165.405 6.52386 163.368 6.73601 161.247 7.66943C158.701 8.815 156.113 9.83328 153.567 11.0213C152.422 11.5728 151.319 12.2517 150.131 12.7608C149.07 13.2276 148.815 13.8216 147.967 14.5853C147.161 15.2641 146.312 14.9247 145.421 15.4338C144.191 16.1127 143.003 17.3431 141.857 18.1917C137.312 21.5212 133.194 25.3971 129.595 29.7322C123.443 37.1996 117.376 48.7826 121.534 58.626C122.51 60.9171 124.801 61.6384 125.395 64.1417C125.904 66.3479 125.989 68.5118 126.625 70.6757C127.262 72.8819 124.674 74.9185 123.528 76.7005C121.789 79.5008 121.025 82.6405 120.049 85.7377C119.752 84.8892 119.625 83.489 118.776 83.0223C117.715 82.4283 117.715 83.6588 116.952 83.1072C116.061 82.4283 115.339 79.8826 114.83 78.8643C114.151 77.5066 113.43 76.1489 112.666 74.8336C109.442 69.4877 104.52 65.3721 99.1742 62.2748C88.2277 55.9954 75.0325 55.3166 62.8555 57.6077C50.5937 59.8988 39.9441 66.0085 30.4826 73.9426C25.2726 78.3171 20.5627 83.2547 16.4388 88.6653C12.3657 94.0113 8.12282 99.23 5.11041 105.297C3.34699 108.673 1.95293 112.229 0.952419 115.904C0.231136 118.789 -0.490148 122.226 0.443278 125.154C1.24942 127.657 3.54055 128.972 5.87412 127.36C7.91068 125.96 8.84411 123.372 10.2442 121.42C10.5412 124.687 6.55297 136.652 12.3232 137.203C16.5661 137.628 18.1359 127.827 19.0269 124.984C19.6209 128.803 18.4754 132.918 19.9179 136.609C20.5968 138.391 22.8031 141.658 24.6275 139.07C25.4336 137.925 25.5185 136.27 25.8155 134.955C26.1973 133.258 26.664 131.603 27.0035 129.906C27.9369 125.663 28.446 121.335 29.1673 117.05C30.3553 119.85 30.1432 124.899 33.1132 126.639C36.1256 128.378 37.4833 123.372 37.8227 121.335C38.4167 117.941 38.1197 114.419 38.6289 111.025C39.1391 107.623 40.3686 104.368 42.2353 101.479C48.8965 90.9564 61.3281 83.0223 73.8869 82.4708C73.208 85.0589 69.3471 91.7626 74.396 91.8899C75.5416 91.9323 76.5599 91.7202 77.7055 91.8474C79.1056 92.0171 80.8027 92.7384 82.2029 92.6111C83.0514 92.5687 83.009 92.1869 83.9 92.696C84.8334 93.2476 84.9607 94.0113 85.9366 92.7809C86.7003 94.181 88.4823 94.5629 89.7976 95.1993C89.7976 94.8174 89.84 94.478 89.84 94.0961C90.6886 95.2841 91.5796 95.4963 92.8524 96.0903C93.6585 96.4721 94.2525 96.3449 94.9738 96.557C95.8648 96.7691 96.2891 97.2783 97.0952 97.745C97.9438 98.2541 99.4712 98.1693 100.15 98.933C101.338 100.291 99.5137 102.624 98.8348 103.77C96.968 107.079 95.78 110.855 94.9738 114.547C94.722 115.37 94.6354 116.235 94.7193 117.092C94.8465 117.899 95.1011 117.305 94.9314 118.111C94.889 118.408 94.3374 119.002 94.2525 119.171C93.4464 120.911 93.5737 123.16 93.5313 125.026C93.443 129.384 94.0006 133.731 95.186 137.925C95.6951 139.792 96.1618 141.743 96.8407 143.568C97.4771 145.265 98.4105 146.283 98.0711 148.15C97.3498 152.096 101.465 153.157 103.714 155.617C104.732 156.721 104.902 158.163 105.157 159.606C105.52 161.644 106.148 163.627 107.023 165.503C108.508 168.855 110.503 173.268 113.303 175.728C114.533 176.832 115.679 178.062 117.121 178.911C117.8 179.292 118.606 180.268 119.37 180.438C120.049 180.608 119.837 179.886 120.601 180.48C121.195 180.947 121.152 181.668 121.958 182.178C122.722 182.687 123.571 183.111 124.377 183.578C126.031 184.469 127.813 185.317 129.341 186.463C130.783 187.566 132.268 188.712 133.711 189.857C135.052 190.821 136.025 192.212 136.469 193.803C138.378 201.101 131.674 207.253 125.904 210.308C118.479 214.253 110.036 213.405 102.399 210.562C94.4647 207.592 86.6579 202.119 81.9483 194.991C80.7133 193.213 79.6209 191.341 78.6813 189.39C78.0873 188.118 77.9176 186.548 77.1539 185.402C75.3719 182.772 71.5958 186.548 69.7713 187.524C67.0559 176.11 61.8796 163.212 49.83 159.097C38.3743 155.236 24.0759 159.818 16.6509 169.279C14.9114 171.486 12.4081 175.092 13.5537 178.062C14.5719 180.65 17.9662 181.244 20.3846 181.499C23.9109 181.82 27.466 181.474 30.8645 180.48C31.713 180.226 33.198 179.547 34.1315 179.802C35.5316 180.226 35.4892 182.262 36.2104 183.366C36.9317 184.469 37.9924 184.341 38.247 182.941C38.5016 181.626 37.2712 180.353 38.2894 179.165C38.8834 178.486 40.8351 177.977 41.6413 178.486C42.3201 178.911 42.3626 180.268 42.9141 180.905C44.3991 182.602 44.5688 179.844 44.8658 178.656C45.3326 176.916 47.3267 175.516 49.2784 176.322C50.5088 176.832 50.8058 178.698 51.1028 179.802C51.7392 182.093 52.206 184.341 53.0545 186.59C53.7334 188.287 56.5337 193.082 55.176 194.736C54.3274 195.755 52.2484 196.349 51.018 196.731C49.3208 197.282 47.3267 197.622 45.7568 198.47C45.0356 198.894 43.4233 199.998 43.2111 200.846C42.8293 202.289 44.5688 202.331 45.375 201.61C47.9207 209.162 50.9331 216.587 55.6002 223.121C60.2674 229.655 66.3771 235.086 72.7838 239.838C85.3426 249.172 100.108 255.409 115.721 256.894C123.698 257.658 131.971 256.979 139.566 254.221C140.415 253.869 141.296 253.599 142.197 253.415C143.003 253.288 143.851 253.585 144.658 253.415C145.676 253.245 145.421 252.863 146.058 252.312C146.652 251.803 147.585 251.633 148.264 251.209C151.573 249.045 154.586 245.948 157.216 242.978C162.096 237.377 166.932 230.376 169.224 223.248C171.515 216.078 171.642 208.483 172.321 201.058C172.745 196.476 171.387 192.191 170.624 187.693C169.86 183.111 168.969 178.571 167.866 174.031C167.442 172.249 167.442 170.934 168.842 169.619C169.945 168.6 171.303 167.794 172.745 168.516C174.273 169.237 175.63 170.807 177.03 171.825C178.473 172.843 179.152 174.201 180.552 172.504C180.552 173.989 181.273 174.413 182.504 174.88C184.149 175.494 185.728 176.276 187.213 177.213C190.438 179.335 192.899 182.559 194.723 185.954C196.675 189.56 198.923 193.251 200.281 197.112C201.766 201.355 201.936 206.107 202.106 210.52C202.275 215.144 202.318 219.812 202.063 224.479C201.809 228.849 201.554 233.771 200.281 238.013C198.839 242.638 194.256 247.942 200.493 251.039C204.863 253.203 210.167 252.694 214.495 254.942C213.943 255.833 213.561 256.852 212.967 257.7C212.204 258.803 211.525 258.761 210.337 259.228C208.173 260.034 209.234 261.307 209.021 263.046C208.809 264.574 206.815 266.271 205.839 267.416C204.397 269.071 202.869 270.768 201.724 272.635C199.178 276.751 199.178 281.206 201.512 285.406C203.548 289.097 206.476 293.298 210.082 295.589C214.173 298.094 218.475 300.238 222.938 301.995C226.831 303.543 230.911 304.57 235.072 305.05C238.17 305.432 242.455 305.772 244.958 303.438C247.249 301.274 247.759 297.88 246.698 295.037C244.195 288.333 236.557 284.345 230.957 280.527C232.739 279.89 235.03 279.721 236.43 278.278C238.127 276.538 236.557 275.011 234.606 275.053C232.909 275.053 231.169 275.647 229.557 276.114C228.114 276.538 225.484 277.769 223.999 276.878C222.047 275.69 224.168 274.544 225.229 273.993C227.181 273.017 227.096 271.744 225.187 270.726C222.132 269.071 226.502 268.986 226.969 267.501C227.563 265.592 225.144 263.767 225.314 261.688C225.484 259.694 226.078 256.258 227.648 254.815C228.708 253.839 230.533 253.924 231.89 253.712C234.052 253.331 236.181 252.777 238.255 252.057C238.891 255.791 241.861 252.439 243.007 250.954C245.213 248.154 246.104 244.76 247.292 241.45C248.64 237.782 249.676 234.007 250.389 230.164C251.068 225.752 250.686 221.678 250.05 217.436Z" fill="#46605D"/>
<path fill-rule="evenodd" clip-rule="evenodd" d="M103.842 262.113C103.248 262.791 100.32 261.858 99.5565 261.731C97.1805 261.434 94.9743 261.519 92.6407 260.925C90.8587 260.458 88.2281 259.482 86.4886 259.737C86.3613 259.779 86.531 260.246 86.2764 260.246C85.937 260.246 85.7673 259.991 85.4703 259.864C84.7066 259.567 84.1126 258.888 83.3064 259.482C82.9246 257.658 82.2457 259.27 81.3547 259.227C80.3789 259.227 80.7607 258.082 79.7425 257.912C78.9363 257.785 78.5969 258.294 77.7483 257.955C76.5179 257.488 75.6693 256.809 74.3116 256.47C72.9622 256.094 71.6544 255.582 70.4082 254.942C69.1778 254.391 67.8201 254.221 66.5896 253.712C63.387 252.347 60.2572 250.818 57.213 249.129C51.4427 245.99 45.7149 243.062 40.5386 238.947C38.6293 237.462 37.314 235.807 35.7866 233.94C34.7683 232.667 32.9863 230.249 31.0771 230.631C31.5438 229.4 30.3133 228.297 29.5496 227.533C28.3492 226.36 27.2558 225.082 26.2826 223.715C25.3746 222.458 24.6331 221.089 24.0764 219.642C23.6521 218.539 23.3551 217.393 22.1247 218.539C19.7062 220.787 22.8035 225.157 24.1612 227.109C26.3675 230.334 28.6162 233.643 31.2468 236.571C36.1685 242.001 41.8114 246.923 48.1757 250.657C51.4563 252.591 54.8904 254.251 58.4434 255.621C61.6255 256.809 64.7652 257.445 67.9898 258.294C69.9415 258.803 71.7659 259.482 73.7601 259.821C74.5163 259.99 75.2811 260.117 76.0512 260.203C76.2633 260.203 76.6028 259.949 76.73 259.949C77.027 259.991 77.2816 260.246 77.7483 260.373C78.2482 260.426 78.7442 260.511 79.2333 260.628C79.5541 260.925 79.9104 261.181 80.294 261.391C80.9338 261.678 81.6522 261.738 82.3306 261.561C82.967 261.349 83.4762 260.712 84.1974 260.755C84.1126 261.179 83.9853 261.603 83.9004 262.028C84.6217 261.731 84.9612 261.985 85.64 261.858C85.5127 261.9 87.0401 261.519 86.8704 261.476C86.9553 261.519 87.3796 262.24 87.7614 262.41C89.3313 263.131 91.2406 262.579 92.8953 262.707C94.5924 262.834 96.2471 263.088 97.9443 263.216C99.2171 263.301 105.115 264.064 105.242 261.9C104.772 261.944 104.304 262.015 103.842 262.113Z" fill="#46605D"/>
<path fill-rule="evenodd" clip-rule="evenodd" d="M262.906 64.3537C263.373 60.1957 262.015 56.7166 260.912 52.7708C260.021 49.5462 258.918 46.3641 256.669 43.7759C254.632 41.4424 251.535 38.43 248.268 38.3027C245.722 38.1754 243.94 40.1695 246.189 42.0364C248.438 43.9032 250.432 45.0912 252.214 47.5096C254.214 50.3233 255.8 53.4097 256.924 56.6742C259.003 62.5717 260.191 69.5724 258.196 75.6397C257.984 76.2337 257.221 77.9733 257.984 78.44C258.875 78.9915 259.554 77.6762 259.766 77.0822C259.978 76.5731 260.997 71.5666 261.888 72.203C261.845 71.5241 261.548 71.1847 261.591 70.5058C261.633 70.124 261.973 69.5724 261.973 69.0633C262.185 67.4086 262.736 65.966 262.906 64.3537Z" fill="#46605D"/>
<path fill-rule="evenodd" clip-rule="evenodd" d="M108.678 42.5032C111.351 42.5456 111.479 36.5208 112.285 34.8661C112.667 34.1024 113.091 33.169 113.515 32.4477C113.855 31.8961 114.279 31.8112 114.533 31.3445C115.34 29.8595 114.788 28.714 114.406 27.2714C115.382 27.1017 115.721 27.1017 116.061 26.1258C116.146 25.8288 115.934 25.3197 116.103 25.1076C116.4 24.8106 116.867 24.9803 117.164 24.7257C117.249 24.6408 117.206 24.0468 117.291 23.7923C117.454 23.3568 117.716 22.9647 118.055 22.6467C118.607 22.0951 120.049 21.7981 119.54 20.8223C119.895 20.8236 120.245 20.7361 120.558 20.5677C120.643 20.101 119.667 20.2707 119.752 19.9737C119.914 19.6279 120.144 19.3182 120.429 19.0631C120.713 18.808 121.046 18.6126 121.407 18.4887C120.898 18.2342 120.431 17.9796 119.922 17.725C121.152 17.4704 121.152 16.7067 122.383 17.5553C122.255 16.3673 123.825 15.3066 124.547 14.5429C125.862 13.1427 127.304 11.9123 128.747 10.6395C130.02 9.53632 131.165 8.34833 132.311 7.16033C132.896 6.52658 133.535 5.94456 134.22 5.42076C134.942 4.91162 135.451 4.99648 136.13 4.65705C137.148 4.10548 137.784 2.91749 138.803 2.36592C139.269 2.11135 139.481 2.40835 139.821 2.06892C140.118 1.77192 140.415 0.753637 140.245 0.371781C139.481 -1.28293 133.838 3.0872 132.947 3.6812C122.213 10.597 113.6 20.101 108.89 32.0234C108.381 33.7205 104.775 42.4184 108.678 42.5032Z" fill="#46605D"/>
<path fill-rule="evenodd" clip-rule="evenodd" d="M105.623 263.131C106.344 262.961 107.108 262.792 108.169 262.579C106.217 261.519 106.09 261.604 105.623 263.131Z" fill="#46605D"/>
<path fill-rule="evenodd" clip-rule="evenodd" d="M143.47 72.203C144.912 72.0757 148.052 70.5907 147.585 68.5542C147.161 66.6873 145.464 68.6815 144.276 68.4693C143.045 68.2572 142.451 65.5842 141.433 68.2996C140.882 69.7846 141.688 72.3727 143.47 72.203Z" fill="#46605D"/>
</svg>
